<?xml version="1.0" encoding="UTF-8" standalone="no"?>
<!-- Created with Inkscape (http://www.inkscape.org/) -->

<svg
   width="156.29471mm"
   height="147.69806mm"
   viewBox="0 0 156.29471 147.69806"
   version="1.1"
   id="svg5"
   xml:space="preserve"
   xmlns:inkscape="http://www.inkscape.org/namespaces/inkscape"
   xmlns:sodipodi="http://sodipodi.sourceforge.net/DTD/sodipodi-0.dtd"
   xmlns="http://www.w3.org/2000/svg"
   xmlns:svg="http://www.w3.org/2000/svg"><sodipodi:namedview
     id="namedview7"
     pagecolor="#ffffff"
     bordercolor="#000000"
     borderopacity="0.25"
     inkscape:showpageshadow="2"
     inkscape:pageopacity="0.0"
     inkscape:pagecheckerboard="0"
     inkscape:deskcolor="#d1d1d1"
     inkscape:document-units="mm"
     showgrid="false" /><defs
     id="defs2" /><g
     inkscape:label="Layer 1"
     inkscape:groupmode="layer"
     id="layer1"
     transform="translate(-425.92448,585.68248)"><path
       style="fill:#fefefe;stroke-width:1"
       d="m 484.38709,-438.33821 c -1.46731,-0.72631 -2.13932,-1.97372 -2.0471,-3.79991 0.049,-0.97067 0.15249,-1.3465 0.5262,-1.91123 0.711,-1.07439 1.6427,-1.61002 2.94472,-1.69293 1.44694,-0.0921 2.38762,0.27327 3.26267,1.26738 1.71624,1.94975 1.0756,5.11811 -1.24831,6.17367 -0.96114,0.43656 -2.51528,0.41985 -3.43818,-0.037 z m 2.85586,-1.62962 c 0.27247,-0.16093 0.65049,-0.61302 0.84006,-1.0046 0.29269,-0.60464 0.31733,-0.81349 0.16337,-1.38523 -0.26859,-0.99751 -1.1644,-1.72019 -2.13228,-1.72019 -0.62765,0 -0.86776,0.10006 -1.3911,0.57966 -0.59914,0.54907 -0.63251,0.63463 -0.63251,1.62167 0,0.98705 0.0334,1.07261 0.63251,1.62167 0.50564,0.4634 0.77212,0.57967 1.32854,0.57967 0.38281,0 0.91895,-0.13169 1.19141,-0.29265 z m 30.84147,1.62962 c -1.4673,-0.72631 -2.13932,-1.97372 -2.0471,-3.79991 0.049,-0.97067 0.1525,-1.3465 0.5262,-1.91123 0.711,-1.07439 1.64271,-1.61002 2.94473,-1.69293 1.44693,-0.0921 2.38761,0.27327 3.26266,1.26738 1.71624,1.94975 1.07561,5.11811 -1.24831,6.17367 -0.96113,0.43656 -2.51528,0.41985 -3.43818,-0.037 z m 2.85586,-1.62962 c 0.27248,-0.16093 0.6505,-0.61302 0.84006,-1.0046 0.2927,-0.60464 0.31734,-0.81349 0.16338,-1.38523 -0.2686,-0.99751 -1.16441,-1.72019 -2.13228,-1.72019 -0.62765,0 -0.86777,0.10006 -1.39111,0.57966 -0.59913,0.54907 -0.63251,0.63463 -0.63251,1.62167 0,0.98705 0.0334,1.07261 0.63251,1.62167 0.50565,0.4634 0.77213,0.57967 1.32854,0.57967 0.38281,0 0.91895,-0.13169 1.19141,-0.29265 z m -52.68246,-1.90869 v -3.72533 h 1.143 1.143 l 0.73474,1.43857 c 0.4041,0.79121 0.80471,1.43857 0.89023,1.43857 0.0855,0 0.47672,-0.6477 0.86934,-1.43933 l 0.71383,-1.43933 h 1.1476 1.14759 v 3.72533 3.72533 h -0.762 -0.762 l -0.01,-2.49766 -0.01,-2.49767 -0.79021,1.56633 -0.7902,1.56634 h -0.71392 -0.71391 l -0.76883,-1.397 -0.76883,-1.397 -0.003,2.32833 -0.003,2.32986 h -0.84666 -0.84667 z m 29.63333,0.67734 v -3.048 h -1.18533 -1.18533 v -0.67734 -0.67733 h 3.21733 3.21733 v 0.762 0.762 h -1.18533 -1.18533 v 2.96333 2.96334 h -0.84667 -0.84667 z m 10.32934,-0.67734 v -3.72533 h 0.84666 0.84667 v 3.72533 3.72534 h -0.84667 -0.84666 z m 21.336,0 v -3.72533 l 1.05833,0.006 1.05833,0.006 1.524,2.18348 1.524,2.18349 0.0473,-2.18903 0.0473,-2.18904 h 0.75707 0.75709 v 3.72534 3.72533 h -0.8179 -0.81791 l -1.76442,-2.4343 -1.76444,-2.4343 -0.0469,2.4343 -0.0469,2.4343 h -0.75746 -0.75748 v -3.72533 z m -103.632,-31.32666 v -18.62667 h 4.99533 4.99533 v 6.94267 6.94266 l 5.03767,-0.005 5.03767,-0.005 5.82959,-6.93763 5.8296,-6.93764 h 6.57407 c 3.61574,0 6.57407,0.0409 6.57407,0.091 0,0.05 -3.58176,4.24104 -7.95947,9.31334 l -7.95947,9.22247 7.95947,9.22236 c 4.37771,5.0723 7.95947,9.2633 7.95947,9.31334 0,0.05 -2.96031,0.091 -6.57847,0.091 h -6.57847 l -5.8252,-7.02465 -5.82519,-7.02466 -5.03767,-0.003 -5.03767,-0.003 v 7.02733 7.02733 h -4.99533 -4.99533 z m 47.92133,0 v -18.62667 h 4.99533 4.99534 v 18.62667 18.62666 h -4.99534 -4.99533 z m 15.07067,0 v -18.62667 h 7.41255 7.41255 l 11.34111,13.1276 11.34112,13.1276 0.0434,-13.1276 0.0434,-13.1276 h 4.99428 4.9943 v 18.62667 18.62666 h -7.43397 -7.43397 l -11.31969,-13.10182 -11.3197,-13.10183 -0.0434,13.10183 -0.0434,13.10182 h -4.99428 -4.9943 z m 52.66266,0 v -18.62667 h 20.32 20.32 v 4.65667 4.65666 h -15.32466 -15.32467 v 2.54 2.54 h 15.32467 15.32466 v 4.318 4.318 h -15.32466 -15.32467 v 2.45534 2.45533 h 15.32467 15.32466 v 4.65667 4.65666 h -20.32 -20.32 z m -21.50533,-28.47393 c -2.19522,-0.23598 -5.07194,-1.26504 -7.33432,-2.62365 -2.89509,-1.73854 -4.83531,-3.54321 -8.52967,-7.93376 -3.58344,-4.2587 -5.5994,-6.15933 -7.87356,-7.42311 -2.67872,-1.4886 -4.81742,-1.76559 -10.67203,-1.3822 -2.72209,0.17825 -5.85855,0.25246 -9.27132,0.21935 l -5.15757,-0.05 32.84042,-32.406 32.84042,-32.40599 0.16928,0.65599 c 0.1028,0.39835 0.17054,4.38042 0.17248,10.13867 0.004,10.63416 0.0379,10.28194 -1.27701,13.09684 -1.05457,2.2575 -1.98125,3.38269 -6.9251,8.40857 -7.84545,7.97563 -21.03132,21.7642 -20.97407,21.93276 0.0297,0.0875 2.03525,2.2004 4.45672,4.69524 15.8277,16.30739 19.82776,20.45534 21.09507,21.87502 0.78444,0.87875 1.75726,1.93206 2.16179,2.34068 0.40454,0.40861 0.70934,0.7653 0.67734,0.79261 -0.1477,0.12609 -15.27573,0.18976 -16.39887,0.069 z m 3.72533,-24.13469 c -2.9337,-3.03847 -5.334,-5.5943 -5.334,-5.6796 0,-0.0853 2.43519,-2.70049 5.41152,-5.81151 3.61414,-3.77769 5.45521,-5.58764 5.54306,-5.44934 0.24733,0.38927 0.0634,22.48155 -0.18703,22.46969 -0.0548,-0.003 -2.49985,-2.49076 -5.43355,-5.52924 z m -54.01733,-12.23738 c 0,-6.57692 0.0453,-8.25259 0.23512,-8.69244 0.17555,-0.40685 11.90375,-13.07424 15.85294,-17.12244 l 0.47887,-0.49088 0.70944,0.56188 0.70944,0.56189 -0.0801,6.78699 c -0.11202,9.4975 -0.003,9.17366 -4.66537,13.86861 -3.55133,3.57621 -12.83425,12.53052 -13.08054,12.6175 -0.0988,0.0349 -0.15984,-3.05506 -0.15984,-8.09111 z"
       id="path1647" /></g></svg>
