<?xml version="1.0" encoding="UTF-8" standalone="no"?>
<!-- Created with Inkscape (http://www.inkscape.org/) -->

<svg
   width="156.19186mm"
   height="147.64679mm"
   viewBox="0 0 156.19186 147.64679"
   version="1.1"
   id="svg5"
   xml:space="preserve"
   xmlns:inkscape="http://www.inkscape.org/namespaces/inkscape"
   xmlns:sodipodi="http://sodipodi.sourceforge.net/DTD/sodipodi-0.dtd"
   xmlns="http://www.w3.org/2000/svg"
   xmlns:svg="http://www.w3.org/2000/svg"><sodipodi:namedview
     id="namedview7"
     pagecolor="#ffffff"
     bordercolor="#000000"
     borderopacity="0.25"
     inkscape:showpageshadow="2"
     inkscape:pageopacity="0.0"
     inkscape:pagecheckerboard="0"
     inkscape:deskcolor="#d1d1d1"
     inkscape:document-units="mm"
     showgrid="false" /><defs
     id="defs2" /><g
     inkscape:label="Layer 1"
     inkscape:groupmode="layer"
     id="layer1"
     transform="translate(401.6724,863.87577)"><g
       id="g1568"
       transform="translate(201.31361,-358.97891)"><path
         style="fill:#6a6a6a;stroke-width:1"
         d="m -543.67411,-357.34921 c 0.11642,-0.047 0.30692,-0.047 0.42334,0 0.11641,0.047 0.0212,0.0854 -0.21167,0.0854 -0.23283,0 -0.32808,-0.0384 -0.21167,-0.0854 z m 1.36525,-0.004 c 0.12225,-0.0489 0.2683,-0.0429 0.32456,0.0134 0.0563,0.0563 -0.0438,0.0963 -0.22225,0.0889 -0.19727,-0.008 -0.23738,-0.0483 -0.10231,-0.10231 z m 32.33209,0.004 c 0.11641,-0.047 0.30691,-0.047 0.42333,0 0.11642,0.047 0.0212,0.0854 -0.21167,0.0854 -0.23283,0 -0.32808,-0.0384 -0.21166,-0.0854 z m 1.36525,-0.004 c 0.12224,-0.0489 0.26829,-0.0429 0.32456,0.0134 0.0563,0.0563 -0.0438,0.0963 -0.22225,0.0889 -0.19728,-0.008 -0.23739,-0.0483 -0.10231,-0.10231 z m -22.4193,-3.10162 c 0,-1.72297 0.0251,-2.42782 0.0559,-1.56634 0.0307,0.86149 0.0307,2.27119 0,3.13267 -0.0307,0.86148 -0.0559,0.15663 -0.0559,-1.56633 z m 10.33144,-0.67734 c 0,-2.0955 0.0243,-2.95275 0.054,-1.905 0.0297,1.04775 0.0297,2.76225 0,3.81 -0.0297,1.04775 -0.054,0.1905 -0.054,-1.905 z m 21.336,0 c 0,-2.0955 0.0243,-2.95275 0.054,-1.905 0.0297,1.04775 0.0297,2.76225 0,3.81 -0.0297,1.04775 -0.054,0.1905 -0.054,-1.905 z m -40.79706,2.70934 c 0.16857,-0.18627 0.34459,-0.33867 0.39116,-0.33867 0.0466,0 -0.0533,0.1524 -0.22183,0.33867 -0.16857,0.18626 -0.34459,0.33866 -0.39116,0.33866 -0.0466,0 0.0533,-0.1524 0.22183,-0.33866 z m 33.69733,0 c 0.16857,-0.18627 0.3446,-0.33867 0.39116,-0.33867 0.0466,0 -0.0532,0.1524 -0.22182,0.33867 -0.16857,0.18626 -0.3446,0.33866 -0.39116,0.33866 -0.0466,0 0.0532,-0.1524 0.22182,-0.33866 z m -51.1125,-0.97367 c -0.0432,-0.0699 0.28796,-0.127 0.73584,-0.127 0.44788,0 0.779,0.0571 0.73583,0.127 -0.0432,0.0698 -0.37429,0.127 -0.73583,0.127 -0.36154,0 -0.69267,-0.0571 -0.73584,-0.127 z m 10.90921,-0.98777 c 0.008,-0.19728 0.0482,-0.23739 0.1023,-0.10231 0.0489,0.12224 0.0429,0.26829 -0.0134,0.32456 -0.0563,0.0563 -0.0963,-0.0438 -0.0889,-0.22225 z m 33.69732,0 c 0.008,-0.19728 0.0483,-0.23739 0.10231,-0.10231 0.0489,0.12224 0.0429,0.26829 -0.0134,0.32456 -0.0563,0.0563 -0.0963,-0.0438 -0.089,-0.22225 z m -26.05141,-0.7479 c 0,-0.32596 0.0349,-0.45931 0.0774,-0.29633 0.0426,0.16298 0.0426,0.42968 0,0.59267 -0.0426,0.16298 -0.0774,0.0296 -0.0774,-0.29634 z m 33.69734,0 c 0,-0.32596 0.0348,-0.45931 0.0774,-0.29633 0.0426,0.16298 0.0426,0.42968 0,0.59267 -0.0426,0.16298 -0.0774,0.0296 -0.0774,-0.29634 z m -39.81926,-0.43744 c 0.008,-0.19727 0.0483,-0.23738 0.10231,-0.10231 0.0489,0.12225 0.0429,0.2683 -0.0134,0.32456 -0.0563,0.0563 -0.0963,-0.0437 -0.0889,-0.22225 z m 33.69733,0 c 0.008,-0.19727 0.0483,-0.23738 0.10231,-0.10231 0.0489,0.12225 0.0429,0.2683 -0.0134,0.32456 -0.0563,0.0563 -0.0963,-0.0437 -0.089,-0.22225 z m -35.22132,-0.33866 c 0.008,-0.19728 0.0482,-0.23739 0.1023,-0.10231 0.0489,0.12224 0.0429,0.26829 -0.0134,0.32456 -0.0563,0.0563 -0.0963,-0.0438 -0.0889,-0.22225 z m 33.69732,0 c 0.008,-0.19728 0.0483,-0.23739 0.10231,-0.10231 0.0489,0.12224 0.0429,0.26829 -0.0134,0.32456 -0.0563,0.0563 -0.0963,-0.0438 -0.089,-0.22225 z m -46.16366,-0.42049 c -0.0614,-0.0993 -0.0753,-0.21692 -0.0309,-0.26132 0.0444,-0.0444 0.12583,0.0369 0.18098,0.18062 0.1145,0.29838 0.0169,0.35085 -0.15007,0.0807 z m 18.95621,-1.55507 -0.32258,-0.381 0.381,0.32258 c 0.35804,0.30314 0.45808,0.43942 0.32258,0.43942 -0.0321,0 -0.20359,-0.17145 -0.381,-0.381 z m 6.75088,-0.29634 c 0,-0.4191 0.033,-0.59055 0.0734,-0.381 0.0404,0.20955 0.0404,0.55245 0,0.762 -0.0404,0.20955 -0.0734,0.0381 -0.0734,-0.381 z m 6.26534,0 c 0,-0.4191 0.033,-0.59055 0.0734,-0.381 0.0404,0.20955 0.0404,0.55245 0,0.762 -0.0403,0.20955 -0.0734,0.0381 -0.0734,-0.381 z m 20.68112,0.29634 -0.32258,-0.381 0.381,0.32258 c 0.35804,0.30314 0.45808,0.43942 0.32258,0.43942 -0.0321,0 -0.20359,-0.17145 -0.381,-0.381 z m -37.19492,-1.08582 c 0.11642,-0.047 0.30692,-0.047 0.42334,0 0.11641,0.047 0.0212,0.0854 -0.21167,0.0854 -0.23283,0 -0.32808,-0.0384 -0.21167,-0.0854 z m 1.36525,-0.004 c 0.12225,-0.0489 0.2683,-0.0429 0.32456,0.0134 0.0563,0.0563 -0.0438,0.0963 -0.22225,0.089 -0.19727,-0.008 -0.23738,-0.0483 -0.10231,-0.10231 z m 32.33209,0.004 c 0.11641,-0.047 0.30691,-0.047 0.42333,0 0.11642,0.047 0.0212,0.0854 -0.21167,0.0854 -0.23283,0 -0.32808,-0.0384 -0.21166,-0.0854 z m 1.36525,-0.004 c 0.12224,-0.0489 0.26829,-0.0429 0.32456,0.0134 0.0563,0.0563 -0.0438,0.0963 -0.22225,0.089 -0.19728,-0.008 -0.23739,-0.0483 -0.10231,-0.10231 z m -94.37451,-27.48562 c 0,-10.29124 0.0204,-14.50129 0.0452,-9.35567 0.0249,5.14562 0.0249,13.56572 0,18.71133 -0.0249,5.14562 -0.0452,0.93557 -0.0452,-9.35566 z m 9.81708,11.59933 c 4e-5,-3.9116 0.0222,-5.48762 0.0494,-3.50227 0.0271,1.98535 0.0271,5.18575 -8e-5,7.112 -0.0272,1.92625 -0.0493,0.30187 -0.0493,-3.60973 z m 38.10425,-11.59933 c 0,-10.29124 0.0204,-14.50129 0.0452,-9.35567 0.0249,5.14562 0.0249,13.56572 0,18.71133 -0.0249,5.14562 -0.0452,0.93557 -0.0452,-9.35566 z m 9.82133,0 c 0,-10.29124 0.0204,-14.50129 0.0452,-9.35567 0.0249,5.14562 0.0249,13.56572 0,18.71133 -0.0249,5.14562 -0.0452,0.93557 -0.0452,-9.35566 z m 5.24933,0 c 0,-10.29124 0.0204,-14.50129 0.0452,-9.35567 0.0249,5.14562 0.0249,13.56572 0,18.71133 -0.0249,5.14562 -0.0452,0.93557 -0.0452,-9.35566 z m 9.78088,5.461 c -0.0234,-7.51949 0.023,-13.25034 0.10733,-13.25034 0.0817,0 0.25317,0.13335 0.381,0.29634 0.21044,0.26834 0.2045,0.27445 -0.0629,0.0648 -0.28022,-0.21971 -0.29757,0.44205 -0.33974,12.954 l -0.0444,13.18553 z m 37.63246,-5.461 c 0,-10.29124 0.0203,-14.50129 0.0452,-9.35567 0.0249,5.14562 0.0249,13.56572 0,18.71133 -0.0249,5.14562 -0.0452,0.93557 -0.0452,-9.35566 z m 5.24933,0 c 0,-10.29124 0.0204,-14.50129 0.0452,-9.35567 0.0249,5.14562 0.0249,13.56572 0,18.71133 -0.0249,5.14562 -0.0452,0.93557 -0.0452,-9.35566 z m 40.46337,13.97 c 8e-5,-2.60774 0.0236,-3.65088 0.0522,-2.31809 0.0286,1.33279 0.0286,3.46639 -1.5e-4,4.74133 -0.0287,1.27495 -0.0522,0.18449 -0.0521,-2.42324 z m -125.23337,3.683 c -0.21063,-0.26858 -0.20464,-0.27456 0.0639,-0.0639 0.28207,0.22121 0.37177,0.36027 0.2324,0.36027 -0.0352,0 -0.16851,-0.13335 -0.29633,-0.29633 z m 12.95951,-0.0847 -0.32258,-0.381 0.381,0.32258 c 0.35805,0.30314 0.45809,0.43942 0.32258,0.43942 -0.0321,0 -0.20358,-0.17145 -0.381,-0.381 z m 50.63067,-0.33867 -0.32258,-0.381 0.381,0.32258 c 0.35804,0.30314 0.45808,0.43942 0.32258,0.43942 -0.0321,0 -0.20359,-0.17145 -0.381,-0.381 z m -64.43685,-0.59266 c -0.21063,-0.26858 -0.20464,-0.27456 0.0639,-0.0639 0.16299,0.12783 0.29634,0.26118 0.29634,0.29633 0,0.13938 -0.13906,0.0497 -0.36027,-0.23239 z m 12.79018,-0.254 -0.32258,-0.381 0.381,0.32258 c 0.20955,0.17741 0.381,0.34886 0.381,0.381 0,0.1355 -0.13628,0.0355 -0.43942,-0.32258 z m 50.63067,-0.33867 -0.32258,-0.381 0.381,0.32258 c 0.20955,0.17741 0.381,0.34886 0.381,0.381 0,0.1355 -0.13628,0.0355 -0.43942,-0.32258 z m -64.26752,-0.42333 c -0.21063,-0.26858 -0.20464,-0.27456 0.0639,-0.0639 0.28206,0.22121 0.37176,0.36027 0.2324,0.36027 -0.0352,0 -0.16852,-0.13335 -0.29634,-0.29633 z m 12.53067,-0.508 c -0.21063,-0.26858 -0.20464,-0.27456 0.0639,-0.0639 0.28207,0.22121 0.37177,0.36027 0.2324,0.36027 -0.0352,0 -0.16851,-0.13335 -0.29633,-0.29633 z m 50.63066,-0.33867 c -0.21062,-0.26858 -0.20464,-0.27456 0.0639,-0.0639 0.16298,0.12783 0.29633,0.26118 0.29633,0.29633 0,0.13938 -0.13905,0.0497 -0.36027,-0.23239 z m -64.00799,-0.16933 c -0.21063,-0.26858 -0.20464,-0.27456 0.0639,-0.0639 0.28207,0.22121 0.37177,0.36027 0.2324,0.36027 -0.0352,0 -0.16851,-0.13335 -0.29633,-0.29633 z m 12.28217,-0.762 -0.32257,-0.381 0.381,0.32258 c 0.35804,0.30314 0.45808,0.43942 0.32257,0.43942 -0.0321,0 -0.20358,-0.17145 -0.381,-0.381 z m -13.12884,-0.254 c -0.21063,-0.26858 -0.20464,-0.27456 0.0639,-0.0639 0.28207,0.22121 0.37177,0.36027 0.2324,0.36027 -0.0352,0 -0.16851,-0.13335 -0.29633,-0.29633 z m 63.75951,-0.0847 -0.32258,-0.381 0.381,0.32258 c 0.35804,0.30314 0.45808,0.43942 0.32258,0.43942 -0.0321,0 -0.20359,-0.17145 -0.381,-0.381 z m -51.64667,-0.84667 -0.32257,-0.381 0.381,0.32258 c 0.35804,0.30314 0.45808,0.43942 0.32257,0.43942 -0.0321,0 -0.20358,-0.17145 -0.381,-0.381 z m -12.95951,-0.0847 c -0.21063,-0.26858 -0.20464,-0.27456 0.0639,-0.0639 0.16298,0.12783 0.29633,0.26118 0.29633,0.29633 0,0.13938 -0.13905,0.0497 -0.36027,-0.23239 z m 63.5,-0.33867 c -0.21062,-0.26858 -0.20464,-0.27456 0.0639,-0.0639 0.16298,0.12783 0.29633,0.26118 0.29633,0.29633 0,0.13938 -0.13906,0.0497 -0.36027,-0.23239 z m -64.34666,-0.67733 c -0.21063,-0.26858 -0.20464,-0.27456 0.0639,-0.0639 0.16298,0.12783 0.29633,0.26118 0.29633,0.29633 0,0.13938 -0.13905,0.0497 -0.36026,-0.23239 z m 12.79017,-0.0847 -0.32257,-0.381 0.381,0.32258 c 0.20955,0.17741 0.381,0.34886 0.381,0.381 0,0.1355 -0.13628,0.0355 -0.43943,-0.32258 z m 50.46134,-0.508 -0.32258,-0.381 0.381,0.32258 c 0.35804,0.30314 0.45808,0.43942 0.32258,0.43942 -0.0321,0 -0.20359,-0.17145 -0.381,-0.381 z m -64.09818,-0.42333 c -0.21063,-0.26858 -0.20464,-0.27456 0.0639,-0.0639 0.28207,0.22121 0.37177,0.36027 0.2324,0.36027 -0.0352,0 -0.16851,-0.13335 -0.29633,-0.29633 z m 12.53067,-0.33867 c -0.21063,-0.26858 -0.20464,-0.27456 0.0639,-0.0639 0.28207,0.22122 0.37177,0.36027 0.2324,0.36027 -0.0352,0 -0.16851,-0.13335 -0.29633,-0.29633 z m 50.55151,-0.42333 -0.32258,-0.381 0.381,0.32258 c 0.35804,0.30314 0.45808,0.43942 0.32258,0.43942 -0.0321,0 -0.20359,-0.17145 -0.381,-0.381 z m -63.75951,-0.0847 c -0.21063,-0.26858 -0.20464,-0.27456 0.0639,-0.0639 0.28207,0.22122 0.37177,0.36027 0.2324,0.36027 -0.0352,0 -0.16851,-0.13335 -0.29633,-0.29633 z m 12.11284,-0.762 -0.32258,-0.381 0.381,0.32258 c 0.20955,0.17741 0.381,0.34886 0.381,0.381 0,0.1355 -0.13627,0.0355 -0.43942,-0.32258 z m 89.06847,-2.07433 c 0,-1.397 0.0265,-1.94597 0.0583,-1.21993 0.0318,0.72603 0.0316,1.86903 0,2.54 -0.0321,0.67096 -0.0581,0.0769 -0.0579,-1.32007 z m -102.02798,1.82033 c -0.21063,-0.26858 -0.20464,-0.27456 0.0639,-0.0639 0.28207,0.22122 0.37177,0.36027 0.2324,0.36027 -0.0352,0 -0.16851,-0.13335 -0.29633,-0.29633 z m 63.49999,-0.16933 c -0.21061,-0.26858 -0.20464,-0.27456 0.0639,-0.0639 0.16299,0.12783 0.29634,0.26118 0.29634,0.29633 0,0.13938 -0.13906,0.0497 -0.36028,-0.23239 z m -51.55648,-0.762 -0.32258,-0.381 0.381,0.32258 c 0.35805,0.30314 0.45809,0.43942 0.32258,0.43942 -0.0321,0 -0.20358,-0.17145 -0.381,-0.381 z m -12.79018,-0.0847 c -0.21063,-0.26858 -0.20464,-0.27456 0.0639,-0.0639 0.16298,0.12783 0.29633,0.26118 0.29633,0.29633 0,0.13938 -0.13905,0.0497 -0.36027,-0.23239 z m 63.25152,-0.42333 -0.32258,-0.381 0.381,0.32258 c 0.35804,0.30314 0.45808,0.43942 0.32258,0.43942 -0.0321,0 -0.20359,-0.17145 -0.381,-0.381 z m 14.05466,0 -0.32258,-0.381 0.381,0.32258 c 0.35804,0.30314 0.45808,0.43942 0.32258,0.43942 -0.0321,0 -0.20359,-0.17145 -0.381,-0.381 z m -78.15284,-0.59267 c -0.21063,-0.26858 -0.20464,-0.27456 0.0639,-0.0639 0.28207,0.22122 0.37177,0.36027 0.2324,0.36027 -0.0352,0 -0.16851,-0.13335 -0.29633,-0.29633 z m 12.53066,-0.16933 c -0.21063,-0.26858 -0.20464,-0.27456 0.0639,-0.0639 0.28206,0.22121 0.37176,0.36027 0.2324,0.36027 -0.0352,0 -0.16852,-0.13335 -0.29634,-0.29633 z m 50.55152,-0.42334 -0.32258,-0.381 0.381,0.32258 c 0.20955,0.17741 0.381,0.34886 0.381,0.381 0,0.1355 -0.13628,0.0355 -0.43942,-0.32258 z m 14.05466,0 -0.32258,-0.381 0.381,0.32258 c 0.20955,0.17741 0.381,0.34886 0.381,0.381 0,0.1355 -0.13628,0.0355 -0.43942,-0.32258 z m -77.98351,-0.42333 c -0.21063,-0.26858 -0.20464,-0.27456 0.0639,-0.0639 0.16299,0.12783 0.29634,0.26118 0.29634,0.29633 0,0.13938 -0.13906,0.0497 -0.36027,-0.23239 z m 12.36133,-0.33867 c -0.21063,-0.26858 -0.20464,-0.27455 0.0639,-0.0639 0.28206,0.22122 0.37176,0.36028 0.2324,0.36028 -0.0352,0 -0.16852,-0.13335 -0.29634,-0.29634 z m 50.46133,-0.508 c -0.21062,-0.26858 -0.20464,-0.27455 0.0639,-0.0639 0.28206,0.22122 0.37177,0.36028 0.23239,0.36028 -0.0352,0 -0.1685,-0.13335 -0.29633,-0.29634 z m 14.05467,0 c -0.21062,-0.26858 -0.20464,-0.27455 0.0639,-0.0639 0.16298,0.12783 0.29633,0.26118 0.29633,0.29634 0,0.13937 -0.13906,0.0497 -0.36027,-0.2324 z m -65.61115,-0.762 -0.32258,-0.381 0.381,0.32258 c 0.35805,0.30314 0.45809,0.43942 0.32258,0.43942 -0.0321,0 -0.20358,-0.17145 -0.381,-0.381 z m 123.9572,-3.937 c 10e-5,-2.42146 0.0239,-3.38851 0.0528,-2.14901 0.029,1.23952 0.0289,3.22072 0,4.40267 -0.0291,1.18196 -0.0528,0.16781 -0.0527,-2.25366 z m -73.49587,3.429 -0.32258,-0.381 0.381,0.32258 c 0.35804,0.30314 0.45808,0.43942 0.32258,0.43942 -0.0321,0 -0.20359,-0.17145 -0.381,-0.381 z m 14.05467,0 -0.32258,-0.381 0.381,0.32258 c 0.35804,0.30314 0.45808,0.43942 0.32258,0.43942 -0.0321,0 -0.20359,-0.17145 -0.381,-0.381 z m -65.532,-0.67733 -0.32258,-0.381 0.381,0.32258 c 0.35805,0.30314 0.45809,0.43942 0.32258,0.43942 -0.0321,0 -0.20358,-0.17145 -0.381,-0.381 z m 50.46133,-0.508 -0.32258,-0.381 0.381,0.32258 c 0.35804,0.30314 0.45808,0.43942 0.32258,0.43942 -0.0321,0 -0.20359,-0.17145 -0.381,-0.381 z m 14.05467,0 -0.32258,-0.381 0.381,0.32258 c 0.35804,0.30314 0.45808,0.43942 0.32258,0.43942 -0.0321,0 -0.20359,-0.17145 -0.381,-0.381 z m -65.62218,-0.762 c -0.21063,-0.26858 -0.20464,-0.27456 0.0639,-0.0639 0.28207,0.22122 0.37177,0.36027 0.2324,0.36027 -0.0352,0 -0.16851,-0.13335 -0.29633,-0.29633 z m 50.46133,-0.508 c -0.21062,-0.26858 -0.20464,-0.27456 0.0639,-0.0639 0.28206,0.22122 0.37177,0.36027 0.23239,0.36027 -0.0352,0 -0.1685,-0.13335 -0.29633,-0.29633 z m 14.05466,0 c -0.21061,-0.26858 -0.20464,-0.27456 0.0639,-0.0639 0.28206,0.22122 0.37177,0.36027 0.2324,0.36027 -0.0352,0 -0.16851,-0.13335 -0.29634,-0.29633 z m -65.60047,-0.72564 c -0.30433,-0.33628 -0.30204,-0.35374 0.0945,-0.71967 l 0.40637,-0.37502 -0.31629,0.381 c -0.30539,0.36786 -0.30573,0.39268 -0.01,0.71966 0.16857,0.18627 0.26839,0.33867 0.22183,0.33867 -0.0466,0 -0.22502,-0.15509 -0.39657,-0.34464 z m 50.45066,-0.54436 -0.32258,-0.381 0.381,0.32258 c 0.35804,0.30314 0.45808,0.43942 0.32258,0.43942 -0.0321,0 -0.20359,-0.17145 -0.381,-0.381 z m 14.05467,0 -0.32258,-0.381 0.381,0.32258 c 0.35804,0.30314 0.45808,0.43942 0.32258,0.43942 -0.0321,0 -0.20359,-0.17145 -0.381,-0.381 z m -15.07067,-1.18533 -0.32258,-0.381 0.381,0.32258 c 0.35804,0.30314 0.45808,0.43942 0.32258,0.43942 -0.0321,0 -0.20359,-0.17145 -0.381,-0.381 z m 14.05467,0 -0.32258,-0.381 0.381,0.32258 c 0.35804,0.30314 0.45808,0.43942 0.32258,0.43942 -0.0321,0 -0.20359,-0.17145 -0.381,-0.381 z m -62.55258,-0.0216 c 0,-0.0351 0.13335,-0.1685 0.29633,-0.29633 0.26857,-0.21062 0.27456,-0.20464 0.0639,0.0639 -0.22121,0.28206 -0.36026,0.37177 -0.36026,0.23239 z m 47.39172,-1.24839 c -0.21061,-0.26858 -0.20464,-0.27456 0.0639,-0.0639 0.16299,0.12783 0.29634,0.26118 0.29634,0.29633 0,0.13938 -0.13906,0.0497 -0.36028,-0.23239 z m 14.05467,0 c -0.21062,-0.26858 -0.20464,-0.27456 0.0639,-0.0639 0.16298,0.12783 0.29633,0.26118 0.29633,0.29633 0,0.13938 -0.13905,0.0497 -0.36027,-0.23239 z m -60.17639,-0.21167 c 0.16857,-0.18627 0.34459,-0.33867 0.39115,-0.33867 0.0466,0 -0.0533,0.1524 -0.22182,0.33867 -0.16857,0.18627 -0.34459,0.33867 -0.39116,0.33867 -0.0466,0 0.0533,-0.1524 0.22183,-0.33867 z m 45.02658,-1.05833 -0.32258,-0.381 0.381,0.32258 c 0.20955,0.17741 0.381,0.34886 0.381,0.381 0,0.1355 -0.13628,0.0355 -0.43942,-0.32258 z m 14.05466,0 -0.32258,-0.381 0.381,0.32258 c 0.20955,0.17741 0.381,0.34886 0.381,0.381 0,0.1355 -0.13628,0.0355 -0.43942,-0.32258 z m -58.06524,-0.127 c 0.16857,-0.18627 0.34459,-0.33867 0.39115,-0.33867 0.0466,0 -0.0532,0.1524 -0.22182,0.33867 -0.16857,0.18626 -0.34459,0.33866 -0.39116,0.33866 -0.0466,0 0.0533,-0.1524 0.22183,-0.33866 z m 93.28615,-2.70934 c 0,-1.44356 0.026,-2.03411 0.0577,-1.31233 0.0317,0.72178 0.0317,1.90288 0,2.62467 -0.0317,0.72178 -0.0577,0.13123 -0.0577,-1.31234 z m -115.64541,-4.91066 c 0,-3.86504 0.0222,-5.44619 0.0494,-3.51367 0.0272,1.93252 0.0272,5.09482 0,7.02733 -0.0272,1.93252 -0.0494,0.35137 -0.0494,-3.51366 z m 65.26365,6.477 c -0.21062,-0.26858 -0.20464,-0.27456 0.0639,-0.0639 0.16298,0.12783 0.29633,0.26118 0.29633,0.29633 0,0.13938 -0.13905,0.0497 -0.36027,-0.23239 z m 14.05467,0 c -0.21062,-0.26858 -0.20464,-0.27456 0.0639,-0.0639 0.16298,0.12783 0.29633,0.26118 0.29633,0.29633 0,0.13938 -0.13906,0.0497 -0.36027,-0.23239 z m -56.02773,0.0631 c 0,-0.0352 0.13335,-0.16851 0.29633,-0.29634 0.26858,-0.21061 0.27457,-0.20464 0.0639,0.0639 -0.22122,0.28206 -0.36027,0.37177 -0.36027,0.2324 z m -12.36133,-0.508 c 0,-0.0352 0.13335,-0.16851 0.29633,-0.29634 0.26857,-0.21061 0.27456,-0.20464 0.0639,0.0639 -0.22121,0.28206 -0.36026,0.37177 -0.36026,0.2324 z m 53.23924,-0.82506 -0.32258,-0.381 0.381,0.32258 c 0.35804,0.30314 0.45808,0.43942 0.32258,0.43942 -0.0321,0 -0.20359,-0.17145 -0.381,-0.381 z m 14.05467,0 -0.32258,-0.381 0.381,0.32258 c 0.35804,0.30314 0.45808,0.43942 0.32258,0.43942 -0.0321,0 -0.20359,-0.17145 -0.381,-0.381 z m -53.91658,0.14772 c 0,-0.0351 0.13335,-0.1685 0.29633,-0.29633 0.26858,-0.21062 0.27457,-0.20464 0.0639,0.0639 -0.22122,0.28206 -0.36027,0.37177 -0.36027,0.23239 z m -12.27667,-0.61339 c 0.16857,-0.18627 0.34459,-0.33867 0.39116,-0.33867 0.0466,0 -0.0533,0.1524 -0.22182,0.33867 -0.16857,0.18627 -0.34459,0.33867 -0.39116,0.33867 -0.0466,0 0.0533,-0.1524 0.22182,-0.33867 z m 65.17725,-0.71967 -0.32258,-0.381 0.381,0.32258 c 0.35804,0.30314 0.45808,0.43942 0.32258,0.43942 -0.0321,0 -0.20359,-0.17145 -0.381,-0.381 z m -51.63058,-0.127 c 0.16857,-0.18626 0.34459,-0.33866 0.39116,-0.33866 0.0466,0 -0.0533,0.1524 -0.22183,0.33866 -0.16857,0.18627 -0.34459,0.33867 -0.39115,0.33867 -0.0466,0 0.0532,-0.1524 0.22182,-0.33867 z m -12.78467,-0.0639 c 0,-0.0351 0.13335,-0.1685 0.29634,-0.29633 0.26857,-0.21062 0.27456,-0.20464 0.0639,0.0639 -0.22121,0.28206 -0.36027,0.37177 -0.36027,0.23239 z m 13.80067,-1.12139 c 0.16857,-0.18627 0.34459,-0.33867 0.39116,-0.33867 0.0466,0 -0.0533,0.1524 -0.22183,0.33867 -0.16857,0.18627 -0.34459,0.33867 -0.39115,0.33867 -0.0466,0 0.0533,-0.1524 0.22182,-0.33867 z m 49.50839,0.0423 c -0.21061,-0.26858 -0.20464,-0.27455 0.0639,-0.0639 0.28206,0.22122 0.37177,0.36028 0.2324,0.36028 -0.0352,0 -0.16851,-0.13335 -0.29634,-0.29634 z m -62.46239,0.0631 c 0,-0.0351 0.13335,-0.1685 0.29633,-0.29633 0.26858,-0.21062 0.27457,-0.20464 0.0639,0.0639 -0.22122,0.28206 -0.36027,0.37177 -0.36027,0.23239 z m 132.66244,-5.10072 c 8e-5,-2.60774 0.0236,-3.65088 0.0522,-2.31809 0.0286,1.33279 0.0286,3.46639 -1.5e-4,4.74133 -0.0287,1.27495 -0.0522,0.18449 -0.0521,-2.42324 z m -131.56177,3.81 c 0.16857,-0.18627 0.34459,-0.33867 0.39115,-0.33867 0.0466,0 -0.0532,0.1524 -0.22182,0.33867 -0.16857,0.18626 -0.34459,0.33866 -0.39116,0.33866 -0.0466,0 0.0533,-0.1524 0.22183,-0.33866 z m 60.26658,-0.0423 -0.32258,-0.381 0.381,0.32258 c 0.35804,0.30314 0.45808,0.43942 0.32258,0.43942 -0.0321,0 -0.20359,-0.17145 -0.381,-0.381 z m -47.48192,0.14773 c 0,-0.0352 0.13335,-0.1685 0.29634,-0.29633 0.26857,-0.21062 0.27456,-0.20464 0.0639,0.0639 -0.22121,0.28206 -0.36027,0.37177 -0.36027,0.23239 z m -12.02266,-1.016 c 0,-0.0351 0.13335,-0.1685 0.29633,-0.29633 0.26857,-0.21062 0.27456,-0.20464 0.0639,0.0639 -0.22121,0.28206 -0.36026,0.37177 -0.36026,0.23239 z m 58.48858,-0.31706 -0.32258,-0.381 0.381,0.32258 c 0.35804,0.30314 0.45808,0.43942 0.32258,0.43942 -0.0321,0 -0.20359,-0.17145 -0.381,-0.381 z m -45.19592,-0.127 c 0.16857,-0.18627 0.34459,-0.33867 0.39116,-0.33867 0.0466,0 -0.0532,0.1524 -0.22182,0.33867 -0.16857,0.18627 -0.34459,0.33867 -0.39116,0.33867 -0.0466,0 0.0533,-0.1524 0.22182,-0.33867 z m -12.446,-0.57194 c 0,-0.0351 0.13335,-0.1685 0.29634,-0.29633 0.26857,-0.21062 0.27456,-0.20464 0.0639,0.0639 -0.22121,0.28206 -0.36027,0.37177 -0.36027,0.23239 z m 13.462,-0.61339 c 0.16857,-0.18627 0.34459,-0.33867 0.39116,-0.33867 0.0466,0 -0.0533,0.1524 -0.22182,0.33867 -0.16857,0.18626 -0.34459,0.33866 -0.39116,0.33866 -0.0466,0 0.0532,-0.1524 0.22182,-0.33866 z m 43.07373,0.0423 c -0.21062,-0.26858 -0.20464,-0.27456 0.0639,-0.0639 0.16298,0.12783 0.29633,0.26118 0.29633,0.29633 0,0.13938 -0.13905,0.0497 -0.36027,-0.23239 z m -55.68906,-0.44494 c 0,-0.0352 0.13335,-0.1685 0.29633,-0.29633 0.26858,-0.21062 0.27457,-0.20464 0.0639,0.0639 -0.22122,0.28206 -0.36027,0.37177 -0.36027,0.23239 z m 13.63133,-0.78273 c 0.16857,-0.18626 0.34459,-0.33866 0.39116,-0.33866 0.0466,0 -0.0532,0.1524 -0.22182,0.33866 -0.16857,0.18627 -0.34459,0.33867 -0.39116,0.33867 -0.0466,0 0.0533,-0.1524 0.22182,-0.33867 z m 40.96258,-0.0423 -0.32258,-0.381 0.381,0.32258 c 0.20955,0.17741 0.381,0.34886 0.381,0.381 0,0.1355 -0.13628,0.0355 -0.43942,-0.32258 z m -53.57791,-0.36027 c 0,-0.0352 0.13335,-0.16851 0.29633,-0.29634 0.26858,-0.21061 0.27457,-0.20464 0.0639,0.0639 -0.22122,0.28206 -0.36027,0.37177 -0.36027,0.2324 z m 52.56191,-0.82506 -0.32258,-0.381 0.381,0.32258 c 0.35804,0.30314 0.45808,0.43942 0.32258,0.43942 -0.0321,0 -0.20359,-0.17145 -0.381,-0.381 z m -39.01524,0.14772 c 0,-0.0351 0.13335,-0.1685 0.29633,-0.29633 0.26857,-0.21062 0.27456,-0.20464 0.0639,0.0639 -0.22121,0.28206 -0.36026,0.37177 -0.36026,0.23239 z m -12.7,-0.33866 c 0,-0.0352 0.13335,-0.16851 0.29633,-0.29634 0.26857,-0.21061 0.27456,-0.20464 0.0639,0.0639 -0.22121,0.28206 -0.36026,0.37177 -0.36026,0.2324 z m 13.97,-1.1214 c 0.16857,-0.18626 0.34459,-0.33866 0.39115,-0.33866 0.0466,0 -0.0532,0.1524 -0.22182,0.33866 -0.16857,0.18627 -0.34459,0.33867 -0.39116,0.33867 -0.0466,0 0.0533,-0.1524 0.22183,-0.33867 z m 36.63906,0.0423 c -0.21062,-0.26858 -0.20464,-0.27456 0.0639,-0.0639 0.28206,0.22121 0.37177,0.36027 0.23239,0.36027 -0.0352,0 -0.1685,-0.13335 -0.29633,-0.29633 z m -49.7624,0.0631 c 0,-0.0352 0.13335,-0.16851 0.29634,-0.29634 0.26857,-0.21061 0.27456,-0.20464 0.0639,0.0639 -0.22121,0.28206 -0.36027,0.37177 -0.36027,0.2324 z m 14.13934,-1.29073 c 0.16857,-0.18627 0.34459,-0.33867 0.39115,-0.33867 0.0466,0 -0.0533,0.1524 -0.22182,0.33867 -0.16857,0.18627 -0.34459,0.33867 -0.39116,0.33867 -0.0466,0 0.0533,-0.1524 0.22183,-0.33867 z m 34.52791,-0.0423 -0.32258,-0.381 0.381,0.32258 c 0.35804,0.30314 0.45808,0.43942 0.32258,0.43942 -0.0321,0 -0.20359,-0.17145 -0.381,-0.381 z m -47.65125,0.14772 c 0,-0.0352 0.13335,-0.1685 0.29634,-0.29633 0.26857,-0.21062 0.27456,-0.20464 0.0639,0.0639 -0.22121,0.28206 -0.36027,0.37177 -0.36027,0.23239 z m 65.913,-10.89011 c 0.16299,-0.0426 0.42969,-0.0426 0.59267,0 0.16298,0.0426 0.0296,0.0774 -0.29633,0.0774 -0.32597,0 -0.45932,-0.0348 -0.29634,-0.0774 z m -2.62466,-0.16476 c 0.11641,-0.047 0.30691,-0.047 0.42333,0 0.11642,0.047 0.0212,0.0854 -0.21167,0.0854 -0.23283,0 -0.32808,-0.0384 -0.21166,-0.0854 z m 7.28133,-0.0132 c 0.58208,-0.0331 1.53458,-0.0331 2.11667,0 0.58208,0.0331 0.10583,0.0601 -1.05834,0.0601 -1.16416,0 -1.64041,-0.027 -1.05833,-0.0601 z m 8.16122,-0.84829 -0.58355,-0.635 0.635,0.58355 c 0.59104,0.54316 0.71286,0.68645 0.58355,0.68645 -0.0283,0 -0.31404,-0.28575 -0.635,-0.635 z m -2.45259,-2.794 -0.8403,-0.889 0.889,0.8403 c 0.82608,0.78083 0.96666,0.9377 0.8403,0.9377 -0.0268,0 -0.42684,-0.40005 -0.889,-0.889 z m -23.12924,-0.93134 c -0.21061,-0.26858 -0.20464,-0.27455 0.0639,-0.0639 0.28206,0.22122 0.37177,0.36028 0.2324,0.36028 -0.0352,0 -0.16851,-0.13335 -0.29634,-0.29634 z m -1.25904,-1.10066 -0.49735,-0.55034 0.55033,0.49735 c 0.30269,0.27354 0.55034,0.52119 0.55034,0.55034 0,0.13082 -0.13972,0.0156 -0.60332,-0.49735 z m 20.07665,-2.41302 c -0.69384,-0.6985 -1.22342,-1.27 -1.17685,-1.27 0.0466,0 0.65234,0.5715 1.34618,1.27 0.69385,0.6985 1.22342,1.27 1.17685,1.27 -0.0466,0 -0.65234,-0.5715 -1.34618,-1.27 z m -21.93932,0.55033 -0.49735,-0.55033 0.55034,0.49735 c 0.30268,0.27354 0.55033,0.52119 0.55033,0.55033 0,0.13083 -0.13972,0.0156 -0.60332,-0.49735 z m -1.95829,-2.286 c -0.21061,-0.26858 -0.20464,-0.27455 0.0639,-0.0639 0.28206,0.22122 0.37177,0.36028 0.2324,0.36028 -0.0352,0 -0.16851,-0.13335 -0.29634,-0.29634 z m -0.84666,-1.016 c -0.21062,-0.26858 -0.20464,-0.27455 0.0639,-0.0639 0.16298,0.12783 0.29633,0.26118 0.29633,0.29634 0,0.13937 -0.13906,0.0497 -0.36027,-0.2324 z m -0.84667,-1.016 c -0.21062,-0.26858 -0.20464,-0.27455 0.0639,-0.0639 0.28206,0.22122 0.37177,0.36028 0.23239,0.36028 -0.0352,0 -0.1685,-0.13335 -0.29633,-0.29634 z m 20.42229,-1.60866 -1.35068,-1.397 1.397,1.35068 c 0.76835,0.74289 1.397,1.37154 1.397,1.397 0,0.12352 -0.18883,-0.0532 -1.44332,-1.35068 z m -21.85067,0 -0.49735,-0.55034 0.55034,0.49735 c 0.30268,0.27354 0.55033,0.52119 0.55033,0.55034 0,0.13082 -0.13972,0.0156 -0.60332,-0.49735 z m -2.032,-2.032 -0.49735,-0.55034 0.55034,0.49735 c 0.30268,0.27354 0.55033,0.52119 0.55033,0.55034 0,0.13082 -0.13972,0.0156 -0.60332,-0.49735 z m 18.29513,-3.72534 -1.52048,-1.56633 1.56634,1.52048 c 1.45477,1.41217 1.64341,1.61219 1.52047,1.61219 -0.0252,0 -0.73008,-0.70485 -1.56633,-1.56634 z m -46.47848,0.0827 c 0,-0.0709 1.27635,-1.38535 2.83634,-2.921 l 2.83633,-2.79207 -2.78961,2.83386 -2.78962,2.83388 5.32962,0.0473 5.32961,0.0473 -5.37633,0.0398 c -2.95699,0.0219 -5.37634,-0.0182 -5.37634,-0.0891 z m 12.65965,-0.16017 c 0.21063,-0.0405 0.51543,-0.039 0.67733,0.003 0.16189,0.0424 -0.0105,0.0755 -0.38298,0.0736 -0.37253,-0.002 -0.505,-0.0366 -0.29435,-0.0771 z m 8.6446,0.004 c 0.12225,-0.0489 0.2683,-0.0429 0.32456,0.0134 0.0563,0.0563 -0.0438,0.0963 -0.22225,0.089 -0.19727,-0.008 -0.23738,-0.0483 -0.10231,-0.10231 z m -6.27591,-0.17316 c 0.20955,-0.0404 0.55245,-0.0404 0.762,0 0.20955,0.0403 0.0381,0.0734 -0.381,0.0734 -0.4191,0 -0.59055,-0.033 -0.381,-0.0734 z m 4.99855,0.002 c 0.16476,-0.0429 0.39336,-0.0401 0.508,0.006 0.11465,0.0464 -0.0202,0.0815 -0.29955,0.0781 -0.2794,-0.003 -0.3732,-0.0414 -0.20845,-0.0843 z m 34.9178,-1.95698 -1.35069,-1.397 1.397,1.35068 c 0.76835,0.74289 1.397,1.37154 1.397,1.397 0,0.12352 -0.18882,-0.0532 -1.44331,-1.35068 z m 2.86431,-0.80434 c 0,-1.2573 0.0266,-1.77165 0.0592,-1.143 0.0326,0.62865 0.0326,1.65735 0,2.286 -0.0326,0.62865 -0.0592,0.1143 -0.0592,-1.143 z m -17.17274,-3.00566 -1.43559,-1.48167 1.48167,1.43559 c 1.37612,1.33335 1.55879,1.52774 1.43559,1.52774 -0.0253,0 -0.69208,-0.66675 -1.48167,-1.48166 z m 9.0591,-1.60867 -1.35069,-1.397 1.397,1.35069 c 0.76835,0.74288 1.397,1.37153 1.397,1.397 0,0.12351 -0.18882,-0.0532 -1.44331,-1.35069 z m -51.34843,-7.874 0.0403,-6.56167 0.0464,6.51307 0.0465,6.51306 1.31028,-1.26373 1.31029,-1.26375 -1.26576,1.31234 c -0.69617,0.72178 -1.32482,1.31233 -1.397,1.31233 -0.0722,0 -0.11312,-2.95275 -0.091,-6.56167 z m 59.64121,-0.0423 c 0,-3.2131 0.0228,-4.52755 0.0506,-2.921 0.0278,1.60655 0.0278,4.23545 0,5.842 -0.0278,1.60655 -0.0506,0.2921 -0.0506,-2.921 z m -10.49014,4.40267 c 0.36377,-0.37254 0.6995,-0.67734 0.74607,-0.67734 0.0466,0 -0.21297,0.3048 -0.57673,0.67734 -0.36377,0.37253 -0.6995,0.67733 -0.74607,0.67733 -0.0466,0 0.21297,-0.3048 0.57673,-0.67733 z m -9.906,-0.762 c 0.59999,-0.60537 1.12898,-1.10067 1.17555,-1.10067 0.0466,0 -0.40623,0.4953 -1.00621,1.10067 -0.59999,0.60536 -1.12898,1.10066 -1.17555,1.10066 -0.0466,0 0.40623,-0.4953 1.00621,-1.10066 z m -22.606,-2.96334 c 1.76769,-1.76953 3.2521,-3.21733 3.29867,-3.21733 0.0466,0 -1.36165,1.4478 -3.12933,3.21733 -1.76769,1.76954 -3.2521,3.21734 -3.29867,3.21734 -0.0466,0 1.36165,-1.4478 3.12933,-3.21734 z m -10.668,0.16934 c 0.64694,-0.65194 1.21435,-1.18534 1.26092,-1.18534 0.0466,0 -0.44465,0.5334 -1.09158,1.18534 -0.64694,0.65193 -1.21435,1.18533 -1.26092,1.18533 -0.0466,0 0.44465,-0.5334 1.09158,-1.18533 z m 46.90534,-0.33867 c 0.55297,-0.5588 1.0435,-1.016 1.09006,-1.016 0.0466,0 -0.36776,0.4572 -0.92073,1.016 -0.55297,0.5588 -1.0435,1.016 -1.09007,1.016 -0.0466,0 0.36776,-0.4572 0.92074,-1.016 z m -9.56734,-1.10067 c 0.59999,-0.60536 1.12898,-1.10066 1.17555,-1.10066 0.0466,0 -0.40623,0.4953 -1.00621,1.10066 -0.59999,0.60537 -1.12898,1.10067 -1.17555,1.10067 -0.0466,0 0.40623,-0.4953 1.00621,-1.10067 z m 13.462,-2.96333 c 0.55298,-0.5588 1.0435,-1.016 1.09007,-1.016 0.0466,0 -0.36776,0.4572 -0.92073,1.016 -0.55298,0.5588 -1.0435,1.016 -1.09007,1.016 -0.0466,0 0.36776,-0.4572 0.92073,-1.016 z m -44.61933,-1.60867 c 1.16137,-1.16416 2.14969,-2.11666 2.19625,-2.11666 0.0466,0 -0.86554,0.9525 -2.02692,2.11666 -1.16137,1.16417 -2.14968,2.11667 -2.19625,2.11667 -0.0466,0 0.86555,-0.9525 2.02692,-2.11667 z m 35.052,0.508 c 0.59998,-0.60536 1.12898,-1.10066 1.17555,-1.10066 0.0466,0 -0.40623,0.4953 -1.00622,1.10066 -0.59998,0.60537 -1.12898,1.10067 -1.17554,1.10067 -0.0466,0 0.40623,-0.4953 1.00621,-1.10067 z m 4.14867,-4.318 c 0.64693,-0.65193 1.21435,-1.18533 1.26092,-1.18533 0.0466,0 -0.44465,0.5334 -1.09159,1.18533 -0.64694,0.65194 -1.21436,1.18534 -1.26092,1.18534 -0.0466,0 0.44465,-0.5334 1.09159,-1.18534 z m -22.01334,-2.87866 c 1.76769,-1.76954 3.2521,-3.21734 3.29867,-3.21734 0.0466,0 -1.36165,1.4478 -3.12933,3.21734 -1.76769,1.76953 -3.2521,3.21733 -3.29867,3.21733 -0.0466,0 1.36165,-1.4478 3.12933,-3.21733 z m -28.194,0.42333 c 0.31594,-0.32597 0.61254,-0.59267 0.6591,-0.59267 0.0466,0 -0.17382,0.2667 -0.48976,0.59267 -0.31594,0.32597 -0.61254,0.59267 -0.6591,0.59267 -0.0466,0 0.17382,-0.2667 0.48976,-0.59267 z m 16.26936,-1.03011 c 0.008,-0.19727 0.0483,-0.23739 0.10231,-0.10231 0.0489,0.12224 0.0429,0.26829 -0.0134,0.32456 -0.0563,0.0563 -0.0963,-0.0437 -0.0889,-0.22225 z m 39.61064,-2.35656 c 1.06801,-1.07103 1.97992,-1.94733 2.02648,-1.94733 0.0466,0 -0.78914,0.8763 -1.85714,1.94733 -1.06801,1.07104 -1.97992,1.94734 -2.02648,1.94734 -0.0466,0 0.78914,-0.8763 1.85714,-1.94734 z m -39.41538,1.10067 c 0,-0.32597 0.0349,-0.45932 0.0774,-0.29633 0.0426,0.16298 0.0426,0.42968 0,0.59266 -0.0426,0.16299 -0.0774,0.0296 -0.0774,-0.29633 z m -14.00928,-0.33867 c 0.36377,-0.37253 0.6995,-0.67733 0.74606,-0.67733 0.0466,0 -0.21296,0.3048 -0.57673,0.67733 -0.36377,0.37254 -0.6995,0.67734 -0.74607,0.67734 -0.0466,0 0.21297,-0.3048 0.57674,-0.67734 z m 14.21362,-6.43466 c 0,-2.56117 0.0235,-3.60892 0.0523,-2.32834 0.0288,1.28059 0.0288,3.37609 0,4.65667 -0.0288,1.28058 -0.0523,0.23283 -0.0523,-2.32833 z m -11.59603,3.683 c 0.4152,-0.44239 0.77715,-0.80434 0.80433,-0.80434 0.12715,0 -0.007,0.15204 -0.75492,0.85375 l -0.80434,0.75492 z m 2.70933,-2.87867 c 0.70171,-0.74764 0.85374,-0.88207 0.85374,-0.75492 0,0.0272 -0.36195,0.38912 -0.80433,0.80433 l -0.80433,0.75492 z m 33.02708,-4.61433 c 1.72107,-1.72297 3.16733,-3.13267 3.21389,-3.13267 0.0466,0 -1.32349,1.4097 -3.04456,3.13267 -1.72107,1.72296 -3.16733,3.13266 -3.2139,3.13266 -0.0466,0 1.3235,-1.4097 3.04457,-3.13266 z m 21.336,3.06873 c 0,-0.0352 0.13335,-0.16851 0.29633,-0.29633 0.26858,-0.21063 0.27456,-0.20464 0.0639,0.0639 -0.22122,0.28207 -0.36027,0.37177 -0.36027,0.2324 z m -51.65375,-1.33307 c 0.70171,-0.74764 0.85375,-0.88207 0.85375,-0.75492 0,0.0272 -0.36195,0.38913 -0.80434,0.80433 l -0.80433,0.75493 z m 2.80108,-3.00566 c 0.36376,-0.37254 0.6995,-0.67734 0.74607,-0.67734 0.0466,0 -0.21297,0.3048 -0.57674,0.67734 -0.36376,0.37253 -0.6995,0.67733 -0.74606,0.67733 -0.0466,0 0.21297,-0.3048 0.57673,-0.67733 z m 52.76069,-3.48545 c 0.008,-0.19726 0.0483,-0.23739 0.10231,-0.1023 0.0489,0.12223 0.0429,0.26829 -0.0134,0.32455 -0.0563,0.0563 -0.0963,-0.0437 -0.089,-0.22225 z m 0.22002,-2.77989 c 0,-1.07103 0.0275,-1.50918 0.0611,-0.97366 0.0336,0.53551 0.0336,1.41181 0,1.94733 -0.0336,0.53552 -0.0611,0.0974 -0.0611,-0.97367 z m -12.76404,-4.99533 c 1.72107,-1.72297 3.16733,-3.13267 3.21389,-3.13267 0.0466,0 -1.32349,1.4097 -3.04456,3.13267 -1.72107,1.72297 -3.16733,3.13267 -3.2139,3.13267 -0.0466,0 1.3235,-1.4097 3.04457,-3.13267 z m 12.76465,-7.28133 c 0,-1.1176 0.0277,-1.55277 0.0609,-0.96703 0.0332,0.58573 0.0329,1.50013 0,2.032 -0.0335,0.53186 -0.0606,0.0526 -0.0603,-1.06497 z m -1.84618,-3.42902 c 0.83626,-0.86147 1.54111,-1.56632 1.56634,-1.56632 0.0252,0 0.0458,0.127 0.0458,0.28223 0,0.15522 -0.0532,0.22904 -0.11816,0.16406 -0.065,-0.065 -0.76984,0.51285 -1.56633,1.28409 l -1.44817,1.40226 z m 1.6452,0.0423 c 0.003,-0.2794 0.0414,-0.3732 0.0843,-0.20844 0.0429,0.16475 0.0401,0.39335 -0.006,0.508 -0.0464,0.11464 -0.0815,-0.0202 -0.0781,-0.29956 z"
         id="path1572" /><path
         style="fill:#000000;stroke-width:1"
         d="m -543.66579,-357.39427 c -1.98616,-0.39756 -3.36257,-2.62763 -2.84369,-4.60739 0.47659,-1.81839 1.81047,-2.89294 3.60628,-2.90518 2.22358,-0.0151 3.84343,1.5759 3.84343,3.77511 0,2.44568 -2.18835,4.22138 -4.60602,3.73746 z m 1.82609,-1.63882 c 0.72519,-0.34412 1.25593,-1.19284 1.25593,-2.00837 0,-2.46947 -2.9559,-3.33149 -4.23425,-1.23481 -0.65656,1.07683 -0.26602,2.47361 0.88837,3.17746 0.66885,0.4078 1.32554,0.42846 2.08995,0.0657 z m 31.87124,1.63882 c -1.98616,-0.39756 -3.36257,-2.62763 -2.84368,-4.60739 0.47659,-1.81839 1.81046,-2.89294 3.60627,-2.90518 2.22359,-0.0151 3.84343,1.5759 3.84343,3.77511 0,2.44568 -2.18835,4.22138 -4.60602,3.73746 z m 1.82609,-1.63882 c 0.72519,-0.34412 1.25593,-1.19284 1.25593,-2.00837 0,-2.46947 -2.9559,-3.33149 -4.23425,-1.23481 -0.65655,1.07683 -0.26602,2.47361 0.88838,3.17746 0.66885,0.4078 1.32554,0.42846 2.08994,0.0657 z m -52.59207,-2.09864 v -3.72533 l 1.05833,0.002 1.05834,0.002 0.84666,1.60638 c 0.46567,0.88349 0.88751,1.60653 0.93744,1.60675 0.0499,0 0.46902,-0.72239 0.93133,-1.60581 l 0.84057,-1.60621 1.05833,-0.002 1.05833,-0.003 v 3.72534 3.72533 h -0.762 -0.762 l -0.009,-2.667 -0.009,-2.667 -0.83966,1.651 -0.83966,1.651 h -0.67404 -0.67404 l -0.83966,-1.651 -0.83966,-1.651 -0.009,2.667 -0.009,2.66707 h -0.762 -0.762 z m 29.80267,0.67734 v -3.048 h -1.18534 -1.18533 v -0.67734 -0.67733 h 3.048 3.048 v 0.67733 0.67734 h -1.10067 -1.10066 v 3.048 3.048 h -0.762 -0.762 z m 10.32933,-0.67734 v -3.72533 h 0.762 0.762 v 3.72533 3.72534 h -0.762 -0.762 z m 21.336,0 v -3.72533 l 0.889,0.006 0.889,0.006 1.60867,2.28981 1.60866,2.28981 0.0471,-2.2963 0.0471,-2.29627 h 0.67256 0.67256 v 3.72533 3.72533 h -0.65976 c -0.65596,0 -0.67039,-0.0147 -2.49767,-2.54374 l -1.83791,-2.54373 -0.0467,2.54373 -0.0468,2.54374 h -0.67291 -0.67293 v -3.72533 z m -103.632,-31.32666 v -18.62667 h 4.826 4.826 v 6.94267 6.94266 l 5.207,-0.005 5.207,-0.005 5.82438,-6.93801 5.82438,-6.93803 h 6.49163 6.49164 l -8.03736,9.31334 -8.03737,9.31333 8.03737,9.31333 8.03736,9.31334 h -6.4943 -6.49429 l -5.82172,-7.02375 -5.82172,-7.02371 -5.207,-0.004 -5.207,-0.004 v 7.02733 7.02733 h -4.826 -4.826 z m 47.92133,0 v -18.62667 h 4.826 4.826 v 18.62667 18.62666 h -4.826 -4.826 z m 15.07067,0 v -18.62667 h 7.24684 7.24684 l 11.42216,13.22212 11.42216,13.22212 0.0434,-13.22212 0.0434,-13.22212 h 4.90964 4.90963 v 18.62667 18.62666 h -7.26669 -7.26668 l -11.37394,-13.16566 c -6.25568,-7.24112 -11.44386,-13.19107 -11.52931,-13.22211 -0.0934,-0.034 -0.15538,5.21481 -0.15538,13.16567 v 13.2221 h -4.826 -4.826 z m 52.66267,0 v -18.62667 h 20.15066 20.15067 v 4.65667 4.65666 h -15.32467 -15.32466 v 2.54 2.54 h 15.32466 15.32467 v 4.318 4.318 h -15.32467 -15.32466 v 2.45534 2.45533 h 15.32466 15.32467 v 4.65667 4.65666 h -20.15067 -20.15066 z m -22.18267,-28.63361 c -2.64238,-0.40823 -6.26081,-2.03191 -8.83019,-3.96235 -1.93597,-1.45452 -3.60001,-3.13123 -6.06561,-6.11171 -4.21614,-5.0966 -7.29626,-7.71332 -10.30674,-8.75613 -1.86842,-0.64719 -4.18419,-0.76332 -9.34146,-0.46848 -2.00237,0.11449 -5.84646,0.18283 -8.54243,0.15188 l -4.90177,-0.0563 32.57057,-32.13973 c 23.71156,-23.39791 32.6213,-32.08901 32.75709,-31.95327 0.13156,0.13149 0.18654,3.09157 0.18654,10.04173 v 9.85527 l -0.39715,1.27 c -0.50196,1.60507 -1.36148,3.32957 -2.36317,4.74133 -0.42953,0.60537 -2.87978,3.2343 -5.445,5.84208 -6.79946,6.91229 -21.00468,21.72402 -21.00468,21.90152 0,0.0837 0.5999,0.75274 1.33311,1.48667 1.14659,1.14769 10.37258,10.65496 21.17805,21.82373 1.71197,1.76954 3.60348,3.809 4.20334,4.53214 0.59986,0.72316 1.25225,1.42801 1.44975,1.56634 0.32249,0.22589 -0.004,0.25152 -3.20711,0.25152 -1.9614,0 -5.50262,0.0346 -7.86934,0.0769 -2.46648,0.0441 -4.77291,0.004 -5.4038,-0.0931 z m 4.318,-24.07212 c -2.88713,-2.98448 -5.24933,-5.49635 -5.24933,-5.58194 0,-0.0856 2.4003,-2.6646 5.334,-5.73114 l 5.334,-5.57551 0.0409,7.06883 c 0.0225,3.88785 -0.0156,8.90869 -0.0847,11.15744 l -0.12553,4.08862 z m -53.93203,-12.3411 c 6.7e-4,-7.71064 0.0192,-8.21956 0.31781,-8.69784 0.23728,-0.38001 13.04759,-14.1277 15.68049,-16.82787 l 0.39251,-0.40255 0.62403,0.47598 0.62403,0.47597 -0.0711,6.86923 c -0.10233,9.89162 0.36477,8.82478 -7.07086,16.14909 -2.94971,2.90555 -6.51837,6.37744 -7.93036,7.71533 l -2.56724,2.4325 6.8e-4,-8.18984 z"
         id="path1570" /></g></g></svg>
