<?xml version="1.0" encoding="UTF-8" standalone="no"?>
<!-- Created with Inkscape (http://www.inkscape.org/) -->

<svg
   width="95.194397mm"
   height="57.98568mm"
   viewBox="0 0 95.194397 57.98568"
   version="1.1"
   id="svg5"
   xml:space="preserve"
   xmlns:inkscape="http://www.inkscape.org/namespaces/inkscape"
   xmlns:sodipodi="http://sodipodi.sourceforge.net/DTD/sodipodi-0.dtd"
   xmlns="http://www.w3.org/2000/svg"
   xmlns:svg="http://www.w3.org/2000/svg"><sodipodi:namedview
     id="namedview7"
     pagecolor="#ffffff"
     bordercolor="#000000"
     borderopacity="0.25"
     inkscape:showpageshadow="2"
     inkscape:pageopacity="0.0"
     inkscape:pagecheckerboard="0"
     inkscape:deskcolor="#d1d1d1"
     inkscape:document-units="mm"
     showgrid="false" /><defs
     id="defs2" /><g
     inkscape:label="Layer 1"
     inkscape:groupmode="layer"
     id="layer1"
     transform="translate(767.02455,-25.31237)"><g
       id="g1926"
       transform="translate(29.283591,145.23633)"><path
         style="fill:#5facd5;stroke-width:1"
         d="m -722.16723,-61.995243 c 0.2005,-0.03032 0.49729,-0.02951 0.65953,0.0018 0.16224,0.03131 -0.002,0.05612 -0.36456,0.05513 -0.36274,-0.0011 -0.49548,-0.02661 -0.29497,-0.05693 z m 2.77003,0 c 0.20051,-0.03032 0.4973,-0.02951 0.65954,0.0018 0.16224,0.03131 -0.002,0.05612 -0.36456,0.05513 -0.36274,-0.0011 -0.49548,-0.02661 -0.29498,-0.05693 z m -4.22031,-0.128663 c 0.12834,-0.03344 0.30641,-0.03124 0.39572,0.0049 0.0893,0.03613 -0.0157,0.0635 -0.23335,0.06081 -0.21764,-0.0027 -0.29071,-0.03225 -0.16237,-0.06569 z m 5.86733,0.004 c 0.0907,-0.03659 0.23908,-0.03659 0.32977,0 0.0907,0.03659 0.0165,0.06653 -0.16488,0.06653 -0.18137,0 -0.25557,-0.02994 -0.16489,-0.06653 z m -6.71899,-0.134654 c 0.0952,-0.0381 0.20899,-0.03342 0.25282,0.01041 0.0438,0.04383 -0.0341,0.07501 -0.17313,0.06928 -0.15366,-0.0063 -0.18492,-0.03758 -0.0797,-0.07969 z m 7.65058,0 c 0.0952,-0.0381 0.20899,-0.03342 0.25283,0.01041 0.0438,0.04383 -0.0341,0.07501 -0.17313,0.06928 -0.15367,-0.0063 -0.18492,-0.03758 -0.0797,-0.07969 z m -8.44202,-0.131907 c 0.0952,-0.0381 0.20899,-0.03342 0.25282,0.01041 0.0438,0.04383 -0.0341,0.07501 -0.17313,0.06928 -0.15366,-0.0063 -0.18492,-0.03758 -0.0797,-0.07969 z m -51.91351,-0.528446 c 0.12696,-0.03318 0.33472,-0.03318 0.46168,0 0.12696,0.03318 0.0231,0.06032 -0.23084,0.06032 -0.25392,0 -0.3578,-0.02715 -0.23084,-0.06032 z m -2.10799,-0.132389 c 0.12834,-0.03344 0.30641,-0.03124 0.39572,0.0049 0.0893,0.03613 -0.0157,0.0635 -0.23335,0.06081 -0.21765,-0.0027 -0.29071,-0.03225 -0.16237,-0.06569 z m 4.35292,0 c 0.12834,-0.03344 0.30641,-0.03124 0.39572,0.0049 0.0893,0.03613 -0.0157,0.0635 -0.23335,0.06081 -0.21765,-0.0027 -0.29072,-0.03225 -0.16237,-0.06569 z m -5.47664,-0.127856 c 0.0907,-0.03659 0.23908,-0.03659 0.32977,0 0.0907,0.03659 0.0165,0.06653 -0.16489,0.06653 -0.18137,0 -0.25557,-0.02994 -0.16488,-0.06653 z m 6.73548,-0.0027 c 0.0952,-0.0381 0.20899,-0.03342 0.25282,0.01041 0.0438,0.04383 -0.0341,0.07501 -0.17312,0.06928 -0.15367,-0.0063 -0.18492,-0.03759 -0.0797,-0.07969 z m 0.92335,-0.131906 c 0.0952,-0.0381 0.20899,-0.03342 0.25282,0.01041 0.0438,0.04383 -0.0341,0.07501 -0.17313,0.06928 -0.15366,-0.0063 -0.18492,-0.03758 -0.0797,-0.07969 z m 0.65953,-0.131907 c 0.0952,-0.0381 0.20899,-0.03342 0.25282,0.01041 0.0438,0.04383 -0.0341,0.07501 -0.17312,0.06928 -0.15367,-0.0063 -0.18492,-0.03759 -0.0797,-0.07969 z m 49.7221,-3.168945 c 0.16408,-0.03155 0.40151,-0.03035 0.52763,0.0027 0.12611,0.03302 -0.008,0.05883 -0.29833,0.05737 -0.2902,-0.0015 -0.39338,-0.02848 -0.2293,-0.06003 z m 3.36208,0.0024 c 0.12696,-0.03318 0.33471,-0.03318 0.46167,0 0.12696,0.03318 0.0231,0.06033 -0.23083,0.06033 -0.25392,0 -0.3578,-0.02715 -0.23084,-0.06033 z m -4.55078,-0.128338 c 0.0907,-0.03659 0.23908,-0.03659 0.32977,0 0.0907,0.03659 0.0165,0.06653 -0.16488,0.06653 -0.18138,0 -0.25557,-0.02994 -0.16489,-0.06653 z m 5.81214,-0.0027 c 0.0952,-0.0381 0.20899,-0.03342 0.25282,0.01041 0.0438,0.04383 -0.0341,0.07501 -0.17313,0.06928 -0.15366,-0.0063 -0.18492,-0.03759 -0.0797,-0.07969 z m 11.10489,-0.239664 c 0.17039,-0.181371 0.33948,-0.329766 0.37575,-0.329766 0.0363,0 -0.0734,0.148395 -0.24384,0.329766 -0.1704,0.181372 -0.33948,0.329767 -0.37576,0.329767 -0.0363,0 0.0735,-0.148395 0.24385,-0.329767 z m -17.70022,0.107753 c 0.0952,-0.0381 0.20899,-0.03342 0.25282,0.01041 0.0438,0.04383 -0.0341,0.07501 -0.17313,0.06928 -0.15366,-0.0063 -0.18492,-0.03759 -0.0797,-0.07969 z m -0.65954,-0.131906 c 0.0952,-0.0381 0.20899,-0.03342 0.25282,0.01041 0.0438,0.04383 -0.0341,0.07501 -0.17312,0.06928 -0.15367,-0.0063 -0.18492,-0.03758 -0.0797,-0.07969 z m -12.18916,-0.602403 -0.25128,-0.29679 0.29679,0.251281 c 0.27891,0.236142 0.35684,0.342299 0.25128,0.342299 -0.025,0 -0.15859,-0.133556 -0.29679,-0.29679 z m -53.36053,-0.06595 c -0.16408,-0.209211 -0.15941,-0.213877 0.0498,-0.0498 0.12696,0.09957 0.23084,0.203446 0.23084,0.230836 0,0.108565 -0.10832,0.03869 -0.28064,-0.181034 z m 12.98063,0.133718 c 0.3468,-0.02726 0.88102,-0.02693 1.18716,7.92e-4 0.30615,0.02766 0.0224,0.04997 -0.63053,0.04957 -0.65294,-3.96e-4 -0.90342,-0.02304 -0.55663,-0.0503 z m -1.78472,-0.122147 c 0.0907,-0.03659 0.23908,-0.03659 0.32977,0 0.0907,0.03659 0.0165,0.06653 -0.16488,0.06653 -0.18138,0 -0.25557,-0.02994 -0.16489,-0.06653 z m 4.48483,0 c 0.0907,-0.03659 0.23908,-0.03659 0.32977,0 0.0907,0.03659 0.0165,0.06653 -0.16489,0.06653 -0.18137,0 -0.25557,-0.02994 -0.16488,-0.06653 z m -5.26802,-0.134654 c 0.0952,-0.0381 0.20899,-0.03342 0.25282,0.01041 0.0438,0.04383 -0.0341,0.07501 -0.17313,0.06928 -0.15366,-0.0063 -0.18492,-0.03759 -0.0797,-0.07969 z m 6.32327,0.0027 c 0.0907,-0.03659 0.23908,-0.03659 0.32977,0 0.0907,0.03659 0.0165,0.06653 -0.16489,0.06653 -0.18137,0 -0.25556,-0.02994 -0.16488,-0.06653 z m 0.79969,-0.134655 c 0.0952,-0.0381 0.20899,-0.03342 0.25282,0.01041 0.0438,0.04383 -0.0341,0.07501 -0.17313,0.06928 -0.15366,-0.0063 -0.18492,-0.03759 -0.0797,-0.07969 z m 0.65953,-0.131906 c 0.0952,-0.0381 0.20899,-0.03342 0.25282,0.01041 0.0438,0.04383 -0.0341,0.07501 -0.17313,0.06928 -0.15366,-0.0063 -0.18492,-0.03758 -0.0797,-0.07969 z m 34.56745,-0.140726 c -0.16408,-0.209212 -0.15941,-0.213878 0.0498,-0.0498 0.12696,0.09957 0.23083,0.203446 0.23083,0.230837 0,0.108564 -0.10832,0.03869 -0.28063,-0.181034 z m -23.06684,0.04913 c 0,-0.02739 0.10388,-0.131267 0.23084,-0.230836 0.20921,-0.164075 0.21387,-0.15941 0.0498,0.0498 -0.17232,0.219724 -0.28064,0.289599 -0.28064,0.181034 z m -30.87326,-0.576754 -0.45457,-0.49465 0.49465,0.454573 c 0.27206,0.250015 0.49465,0.472607 0.49465,0.49465 0,0.100727 -0.11162,0.0058 -0.53473,-0.454573 z m 86.66977,0.164884 c 0.17039,-0.181372 0.33948,-0.329767 0.37575,-0.329767 0.0363,0 -0.0734,0.148395 -0.24385,0.329767 -0.17039,0.181371 -0.33947,0.329766 -0.37575,0.329766 -0.0363,0 0.0735,-0.148395 0.24385,-0.329766 z m -42.63882,-0.686671 c 0.16323,-0.03144 0.43034,-0.03144 0.59358,0 0.16323,0.03144 0.0297,0.05716 -0.29679,0.05716 -0.32647,0 -0.46003,-0.02573 -0.29679,-0.05716 z m 1.51692,-0.0014 c 0.19951,-0.03022 0.52598,-0.03022 0.72549,0 0.19951,0.03022 0.0363,0.05495 -0.36274,0.05495 -0.39902,0 -0.56226,-0.02473 -0.36275,-0.05495 z m 41.64952,0.04467 c 0,-0.02739 0.10388,-0.131267 0.23084,-0.230837 0.20921,-0.164074 0.21388,-0.159409 0.0498,0.0498 -0.17231,0.219724 -0.28064,0.289598 -0.28064,0.181034 z m -44.21345,-0.172211 c 0.0952,-0.0381 0.20899,-0.03342 0.25282,0.01041 0.0438,0.04383 -0.0341,0.07501 -0.17313,0.06928 -0.15366,-0.0063 -0.18492,-0.03759 -0.0797,-0.07969 z m 4.34467,0.0027 c 0.0907,-0.03659 0.23908,-0.03659 0.32977,0 0.0907,0.03659 0.0165,0.06653 -0.16488,0.06653 -0.18138,0 -0.25557,-0.02994 -0.16489,-0.06653 z m 6.0047,-0.440264 c 0,-0.326468 0.0257,-0.460024 0.0572,-0.296789 0.0314,0.163234 0.0314,0.430345 0,0.593579 -0.0314,0.163235 -0.0572,0.02968 -0.0572,-0.29679 z m -4.9412,0.305614 c 0.0952,-0.0381 0.20899,-0.03342 0.25282,0.01041 0.0438,0.04383 -0.0341,0.07501 -0.17313,0.06928 -0.15366,-0.0063 -0.18492,-0.03758 -0.0797,-0.07969 z m 0.8158,-2.25748 0.0656,-2.203193 0.0368,2.100445 c 0.0203,1.155245 -0.009,2.146683 -0.0656,2.203194 -0.0563,0.05651 -0.0729,-0.888689 -0.0368,-2.100446 z m -50.40479,1.72103 c -0.16408,-0.209212 -0.15941,-0.213878 0.0498,-0.0498 0.12696,0.09957 0.23084,0.203446 0.23084,0.230837 0,0.108564 -0.10832,0.03869 -0.28064,-0.181034 z m 82.78824,-0.03298 c 0.13131,-0.145097 0.26843,-0.263813 0.3047,-0.263813 0.0363,0 -0.0415,0.118716 -0.17279,0.263813 -0.13131,0.145098 -0.26843,0.263813 -0.3047,0.263813 -0.0363,0 0.0415,-0.118715 0.17279,-0.263813 z m -48.97005,-0.725486 c 10e-4,-0.290195 0.0285,-0.393379 0.06,-0.229299 0.0316,0.16408 0.0303,0.401512 -0.003,0.527627 -0.033,0.126114 -0.0588,-0.0081 -0.0574,-0.298328 z m -28.0143,-0.03298 c -0.16407,-0.209212 -0.15941,-0.213877 0.0498,-0.0498 0.12696,0.09957 0.23084,0.203447 0.23084,0.230837 0,0.108564 -0.10832,0.03869 -0.28064,-0.181034 z m 35.35098,0 c -0.16407,-0.209212 -0.15941,-0.213877 0.0498,-0.0498 0.12696,0.09957 0.23084,0.203447 0.23084,0.230837 0,0.108564 -0.10832,0.03869 -0.28064,-0.181034 z m -36.59222,-1.121206 -0.65458,-0.69251 0.69251,0.654575 c 0.64349,0.608242 0.753,0.730444 0.65458,0.730444 -0.0209,0 -0.3325,-0.311629 -0.69251,-0.692509 z m 79.87443,0.246987 c 0,-0.02739 0.10387,-0.131267 0.23083,-0.230837 0.20921,-0.164074 0.21388,-0.159409 0.0498,0.0498 -0.17231,0.219723 -0.28063,0.289598 -0.28063,0.181034 z m -27.99719,-0.307101 c 0.16324,-0.03144 0.43035,-0.03144 0.59358,0 0.16324,0.03144 0.0297,0.05716 -0.29679,0.05716 -0.32647,0 -0.46002,-0.02572 -0.29679,-0.05716 z m -23.32448,-0.40156 -0.31978,-0.362743 0.36274,0.319783 c 0.33904,0.298886 0.42323,0.405704 0.31978,0.405704 -0.0236,0 -0.18686,-0.163235 -0.36274,-0.362744 z m -29.68584,-0.791439 c -0.16407,-0.209212 -0.15941,-0.213878 0.0498,-0.0498 0.21973,0.172319 0.2896,0.280639 0.18104,0.280639 -0.0274,0 -0.13127,-0.103876 -0.23084,-0.230836 z m 36.57579,-0.164884 c 0,-0.181371 0.0299,-0.255569 0.0665,-0.164883 0.0366,0.09069 0.0366,0.239081 0,0.329767 -0.0366,0.09069 -0.0665,0.01649 -0.0665,-0.164884 z m 7.59679,-0.360396 c 0.30833,-0.02777 0.81287,-0.02777 1.1212,0 0.30833,0.02777 0.0561,0.05049 -0.5606,0.05049 -0.61666,0 -0.86894,-0.02272 -0.5606,-0.05049 z m 2.25065,-0.12543 c 0.0952,-0.0381 0.20899,-0.03342 0.25282,0.01041 0.0438,0.04383 -0.0341,0.07501 -0.17312,0.06928 -0.15367,-0.0063 -0.18492,-0.03759 -0.0797,-0.07969 z m -3.86558,-0.172197 c -0.0462,-0.07477 0.007,-0.09689 0.12413,-0.05184 0.22851,0.08769 0.27032,0.182237 0.0806,0.182237 -0.0683,0 -0.16038,-0.05868 -0.20471,-0.130397 z m -0.84791,-1.397522 c 0.006,-0.153664 0.0376,-0.184919 0.0797,-0.07969 0.0381,0.09522 0.0334,0.208991 -0.0104,0.252822 -0.0438,0.04383 -0.075,-0.03408 -0.0693,-0.173128 z m 46.29923,0 c 0.006,-0.153664 0.0376,-0.184919 0.0797,-0.07969 0.0381,0.09522 0.0334,0.208991 -0.0104,0.252822 -0.0438,0.04383 -0.075,-0.03408 -0.0693,-0.173128 z m 0.13191,-0.659533 c 0.006,-0.153664 0.0376,-0.18492 0.0797,-0.07969 0.0381,0.09522 0.0334,0.20899 -0.0104,0.252822 -0.0438,0.04383 -0.075,-0.03408 -0.0693,-0.173128 z m -4.61673,-0.79144 c 0.006,-0.153664 0.0376,-0.184919 0.0797,-0.07969 0.0381,0.09522 0.0334,0.208991 -0.0104,0.252822 -0.0438,0.04383 -0.075,-0.03408 -0.0693,-0.173128 z m 4.76394,-0.252821 c 0.003,-0.217646 0.0323,-0.290714 0.0657,-0.162373 0.0334,0.128341 0.0312,0.306415 -0.005,0.39572 -0.0361,0.0893 -0.0635,-0.0157 -0.0608,-0.233347 z m -94.98809,-0.01099 c 0.006,-0.153665 0.0376,-0.18492 0.0797,-0.07969 0.0381,0.09522 0.0334,0.20899 -0.0104,0.252822 -0.0438,0.04383 -0.075,-0.03408 -0.0693,-0.173128 z m 4.61674,-0.659533 c 0.006,-0.153665 0.0376,-0.18492 0.0797,-0.07969 0.0381,0.09522 0.0334,0.20899 -0.0104,0.252821 -0.0438,0.04383 -0.075,-0.03408 -0.0693,-0.173127 z m 85.77325,-0.714499 c 0,-0.544115 0.0233,-0.766707 0.0517,-0.49465 0.0285,0.272058 0.0285,0.717243 0,0.9893 -0.0285,0.272058 -0.0517,0.04947 -0.0517,-0.49465 z m -90.50659,0.461673 c 0.003,-0.217645 0.0323,-0.290714 0.0657,-0.162373 0.0335,0.128342 0.0312,0.306416 -0.005,0.39572 -0.0361,0.0893 -0.0635,-0.0157 -0.0608,-0.233347 z m 4.63623,-1.450973 c 5.3e-4,-0.580389 0.0237,-0.801413 0.0515,-0.491163 0.0279,0.310249 0.0275,0.785113 -9.2e-4,1.055253 -0.0284,0.270139 -0.0512,0.0163 -0.0507,-0.56409 z m 90.46846,-0.39572 c 0.003,-0.217645 0.0323,-0.290714 0.0657,-0.162373 0.0334,0.128342 0.0312,0.306416 -0.005,0.39572 -0.0361,0.0893 -0.0635,-0.0157 -0.0608,-0.233347 z m -4.76394,-0.274805 c 0.006,-0.153664 0.0376,-0.184919 0.0797,-0.07969 0.0381,0.09522 0.0334,0.208991 -0.0104,0.252822 -0.0438,0.04383 -0.075,-0.03408 -0.0693,-0.173128 z m -90.34075,-0.780448 c 0.003,-0.217646 0.0323,-0.290714 0.0657,-0.162373 0.0335,0.128341 0.0312,0.306415 -0.005,0.39572 -0.0361,0.0893 -0.0635,-0.0157 -0.0608,-0.233347 z m 94.95748,0.120915 c 0.006,-0.153664 0.0376,-0.18492 0.0797,-0.07969 0.0381,0.09522 0.0334,0.20899 -0.0104,0.252822 -0.0438,0.04383 -0.075,-0.03408 -0.0693,-0.173128 z m -90.22414,-0.39572 c 0.006,-0.153664 0.0376,-0.18492 0.0797,-0.07969 0.0381,0.09522 0.0334,0.208991 -0.0104,0.252822 -0.0438,0.04383 -0.075,-0.03408 -0.0693,-0.173128 z m 82.35907,-4.968484 -0.52142,-0.560603 0.56061,0.521421 c 0.52135,0.484915 0.62121,0.599786 0.52142,0.599786 -0.0216,0 -0.27383,-0.252272 -0.56061,-0.560604 z m -79.92922,-0.09893 c 0.13132,-0.145097 0.26843,-0.263813 0.30471,-0.263813 0.0363,0 -0.0415,0.118716 -0.1728,0.263813 -0.13131,0.145098 -0.26843,0.263814 -0.3047,0.263814 -0.0363,0 0.0415,-0.118716 0.17279,-0.263814 z m 78.7974,-0.890369 c -0.16408,-0.209212 -0.15941,-0.213878 0.0498,-0.0498 0.21972,0.172319 0.2896,0.280639 0.18103,0.280639 -0.0274,0 -0.13126,-0.103876 -0.23083,-0.230836 z m -77.21452,-0.69251 c 0.13132,-0.145098 0.26843,-0.263814 0.30471,-0.263814 0.0363,0 -0.0415,0.118716 -0.1728,0.263814 -0.13131,0.145097 -0.26843,0.263813 -0.3047,0.263813 -0.0363,0 0.0415,-0.118716 0.17279,-0.263813 z m 82.43336,-0.29679 -0.38743,-0.428697 0.4287,0.387422 c 0.39961,0.361131 0.48933,0.469971 0.38742,0.469971 -0.0227,0 -0.21561,-0.192913 -0.42869,-0.428696 z m -88.03939,-0.148733 c 0,-0.02739 0.10388,-0.131267 0.23084,-0.230836 0.20921,-0.164075 0.21388,-0.15941 0.0498,0.0498 -0.17232,0.219724 -0.28064,0.289599 -0.28064,0.181034 z m 1.31907,-1.467124 c 0.39406,-0.399017 0.74615,-0.725486 0.78243,-0.725486 0.0363,0 -0.25646,0.326469 -0.65052,0.725486 -0.39407,0.399018 -0.74616,0.725487 -0.78243,0.725487 -0.0363,0 0.25646,-0.326469 0.65052,-0.725487 z m 85.46552,0.362744 -0.31978,-0.362744 0.36274,0.319783 c 0.33904,0.298886 0.42323,0.405704 0.31978,0.405704 -0.0236,0 -0.18686,-0.163234 -0.36274,-0.362743 z m -0.93019,-0.79144 c -0.16408,-0.209212 -0.15941,-0.213878 0.0498,-0.0498 0.12696,0.09957 0.23084,0.203446 0.23084,0.230837 0,0.108564 -0.10832,0.03869 -0.28064,-0.181034 z m -9.63709,-0.123084 c 0.0952,-0.0381 0.20899,-0.03342 0.25282,0.01041 0.0438,0.04383 -0.0341,0.07501 -0.17313,0.06928 -0.15366,-0.0063 -0.18492,-0.03759 -0.0797,-0.07969 z m -1.18716,-0.263813 c 0.0952,-0.0381 0.20899,-0.03342 0.25282,0.01041 0.0438,0.04383 -0.0341,0.07501 -0.17313,0.06928 -0.15366,-0.0063 -0.18492,-0.03759 -0.0797,-0.07969 z m -72.45797,-0.305613 c 0.13131,-0.145097 0.26843,-0.263813 0.3047,-0.263813 0.0363,0 -0.0415,0.118716 -0.17279,0.263813 -0.13131,0.145097 -0.26843,0.263813 -0.3047,0.263813 -0.0363,0 0.0415,-0.118716 0.17279,-0.263813 z m 71.52638,0.176454 c 0.0907,-0.03659 0.23908,-0.03659 0.32976,0 0.0907,0.03659 0.0165,0.06653 -0.16488,0.06653 -0.18137,0 -0.25557,-0.02994 -0.16488,-0.06653 z m -1.25312,-0.135475 c 0.12696,-0.03318 0.33472,-0.03318 0.46168,0 0.12696,0.03318 0.0231,0.06032 -0.23084,0.06032 -0.25392,0 -0.3578,-0.02715 -0.23084,-0.06032 z m -2.04455,-0.128338 c 0.0907,-0.03659 0.23908,-0.03659 0.32977,0 0.0907,0.03659 0.0165,0.06653 -0.16489,0.06653 -0.18137,0 -0.25556,-0.02994 -0.16488,-0.06653 z m -0.95539,-0.306851 c -0.0462,-0.07477 0.007,-0.09689 0.12412,-0.05184 0.22852,0.08769 0.27033,0.182237 0.0806,0.182237 -0.0683,0 -0.16038,-0.05868 -0.20471,-0.130397 z m -56.54766,-0.223523 c 0.0952,-0.0381 0.20899,-0.03342 0.25282,0.01041 0.0438,0.04383 -0.0341,0.07501 -0.17313,0.06928 -0.15366,-0.0063 -0.18492,-0.03759 -0.0797,-0.07969 z m 56.06823,-0.14073 c -0.16408,-0.209212 -0.15941,-0.213878 0.0498,-0.0498 0.21973,0.172319 0.2896,0.280639 0.18104,0.280639 -0.0274,0 -0.13127,-0.103876 -0.23084,-0.230836 z m -55.27679,0.0088 c 0.0952,-0.0381 0.20899,-0.03342 0.25282,0.01041 0.0438,0.04383 -0.0341,0.07501 -0.17313,0.06928 -0.15366,-0.0063 -0.18492,-0.03759 -0.0797,-0.07969 z m 0.7832,-0.129159 c 0.0907,-0.03659 0.23908,-0.03659 0.32976,0 0.0907,0.03659 0.0165,0.06653 -0.16488,0.06653 -0.18137,0 -0.25557,-0.02994 -0.16488,-0.06653 z m 1.58524,-0.140144 c 0.23708,-0.02936 0.59323,-0.02875 0.79144,0.0013 0.19821,0.0301 0.004,0.05412 -0.43106,0.05338 -0.43529,-7.92e-4 -0.59746,-0.02537 -0.36038,-0.05472 z m 2.93256,-0.761798 c 0.17039,-0.181371 0.33948,-0.329766 0.37575,-0.329766 0.0363,0 -0.0734,0.148395 -0.24385,0.329766 -0.17039,0.181372 -0.33947,0.329767 -0.37575,0.329767 -0.0363,0 0.0735,-0.148395 0.24385,-0.329767 z m 49.48582,-0.06595 c 0,-0.181372 0.0299,-0.255569 0.0665,-0.164883 0.0366,0.09069 0.0366,0.239081 0,0.329766 -0.0366,0.09069 -0.0665,0.01649 -0.0665,-0.164883 z m 0,-0.79144 c 0,-0.181371 0.0299,-0.255569 0.0665,-0.164883 0.0366,0.09069 0.0366,0.239081 0,0.329766 -0.0366,0.09069 -0.0665,0.01649 -0.0665,-0.164883 z m -48.93737,-0.263813 c 0,-0.181372 0.0299,-0.255569 0.0665,-0.164883 0.0366,0.09069 0.0366,0.23908 0,0.329766 -0.0366,0.09069 -0.0665,0.01649 -0.0665,-0.164883 z m -0.0104,-0.736478 c 0.006,-0.153665 0.0376,-0.18492 0.0797,-0.07969 0.0381,0.09522 0.0334,0.20899 -0.0104,0.252821 -0.0438,0.04383 -0.075,-0.03408 -0.0693,-0.173127 z m 65.28337,-0.500485 c 0,-0.02739 0.10388,-0.131266 0.23084,-0.230836 0.20921,-0.164075 0.21388,-0.159409 0.0498,0.0498 -0.17232,0.219723 -0.28064,0.289598 -0.28064,0.181033 z m -14.27889,-0.433276 c 0.0907,-0.03659 0.23908,-0.03659 0.32976,0 0.0907,0.03659 0.0165,0.06653 -0.16488,0.06653 -0.18137,0 -0.25557,-0.02994 -0.16488,-0.06653 z m -51.55935,-0.275384 c -0.16407,-0.209212 -0.15941,-0.213877 0.0498,-0.0498 0.21973,0.172319 0.2896,0.28064 0.18104,0.28064 -0.0274,0 -0.13127,-0.103877 -0.23084,-0.230837 z m 56.30953,0.137544 c 0.16408,-0.03155 0.40151,-0.03035 0.52762,0.0027 0.12612,0.03301 -0.008,0.05883 -0.29833,0.05737 -0.29019,-0.0015 -0.39337,-0.02848 -0.22929,-0.06003 z m 1.32577,-0.128721 c 0.0952,-0.0381 0.20899,-0.03342 0.25282,0.01041 0.0438,0.04383 -0.0341,0.07501 -0.17313,0.06928 -0.15366,-0.0063 -0.18492,-0.03759 -0.0797,-0.07969 z m 9.45606,-0.43752 c 0.28336,-0.290194 0.54489,-0.527626 0.58116,-0.527626 0.0363,0 -0.16589,0.237432 -0.44926,0.527626 -0.28337,0.290195 -0.54489,0.527627 -0.58117,0.527627 -0.0363,0 0.1659,-0.237432 0.44927,-0.527627 z m -8.79653,0.305614 c 0.0952,-0.0381 0.20899,-0.03342 0.25282,0.01041 0.0438,0.04383 -0.0341,0.07501 -0.17313,0.06928 -0.15366,-0.0063 -0.18491,-0.03759 -0.0797,-0.07969 z m -74.84058,-0.866217 -0.38743,-0.428696 0.4287,0.387421 c 0.39961,0.361132 0.48933,0.469972 0.38742,0.469972 -0.0227,0 -0.21561,-0.192914 -0.42869,-0.428697 z m 11.78723,0.198553 c 0.60197,-0.0245 1.5517,-0.02436 2.1105,2.63e-4 0.55881,0.02466 0.0663,0.04471 -1.09449,0.04454 -1.16078,-1.32e-4 -1.61798,-0.02035 -1.01601,-0.04484 z m -2.38059,-0.121029 c 0.0907,-0.03659 0.23908,-0.03659 0.32977,0 0.0907,0.03659 0.0165,0.06653 -0.16488,0.06653 -0.18138,0 -0.25557,-0.02994 -0.16489,-0.06653 z m -10.52954,-1.19873 -0.31978,-0.362744 0.36275,0.319783 c 0.33903,0.298886 0.42323,0.405704 0.31978,0.405704 -0.0236,0 -0.18686,-0.163234 -0.36275,-0.362743 z m 80.07732,0.181034 c 0,-0.02739 0.10388,-0.131267 0.23084,-0.230837 0.20921,-0.164075 0.21387,-0.159409 0.0498,0.0498 -0.17232,0.219723 -0.28064,0.289598 -0.28064,0.181034 z m -80.74369,-0.972474 c -0.16408,-0.209212 -0.15941,-0.213878 0.0498,-0.0498 0.21973,0.172319 0.2896,0.280639 0.18104,0.280639 -0.0274,0 -0.13127,-0.103876 -0.23084,-0.230836 z m 4.95837,-0.9893 -0.65458,-0.692504 0.69251,0.654569 c 0.64349,0.608243 0.753,0.730445 0.65458,0.730445 -0.0209,0 -0.3325,-0.31163 -0.69251,-0.69251 z m 29.77928,-1.385014 -0.0294,-2.14349 2.27539,0.0296 2.27539,0.0296 -2.2061,0.0396 -2.20611,0.0396 -0.0399,2.07435 -0.0399,2.074357 z m 14.90524,0.0687 -0.0292,-2.0748 -2.67111,-0.0386 -2.67111,-0.0386 2.67525,-0.0301 c 2.08885,-0.0235 2.68961,0.007 2.74075,0.14059 0.036,0.0939 0.0473,1.05844 0.025,2.14348 l -0.0405,1.972807 z m 32.68368,1.695228 c 0,-0.02739 0.10388,-0.131267 0.23084,-0.230837 0.20921,-0.164074 0.21387,-0.159409 0.0498,0.0498 -0.17232,0.219724 -0.28064,0.289598 -0.28064,0.181034 z m 6.60575,-3.588618 c 0.006,-0.15367 0.0376,-0.18492 0.0797,-0.0797 0.0381,0.0952 0.0334,0.20899 -0.0104,0.25282 -0.0438,0.0438 -0.075,-0.0341 -0.0693,-0.17312 z m -91.01559,-0.26382 c 0.006,-0.15366 0.0376,-0.18492 0.0797,-0.0797 0.0381,0.0952 0.0334,0.20899 -0.0104,0.25282 -0.0438,0.0438 -0.075,-0.0341 -0.0693,-0.17313 z m 86.39885,-0.39572 c 0.006,-0.15366 0.0376,-0.18492 0.0797,-0.0797 0.0381,0.0952 0.0334,0.20899 -0.0104,0.25282 -0.0438,0.0438 -0.075,-0.0341 -0.0693,-0.17313 z m -86.53075,-0.26381 c 0.006,-0.15366 0.0376,-0.18492 0.0797,-0.0797 0.0381,0.0952 0.0334,0.20899 -0.0104,0.25282 -0.0438,0.0438 -0.075,-0.0341 -0.0693,-0.17313 z m 91.31653,-0.97831 c 0,-0.68921 0.0222,-0.97116 0.0494,-0.62655 0.0272,0.3446 0.0272,0.9085 0,1.25311 -0.0272,0.34461 -0.0494,0.0627 -0.0494,-0.62656 z m -86.6998,0.18687 c 0.006,-0.15366 0.0376,-0.18492 0.0797,-0.0797 0.0381,0.0952 0.0334,0.20899 -0.0104,0.25282 -0.0438,0.0438 -0.075,-0.0341 -0.0693,-0.17313 z m -4.71088,-1.17617 c 4e-4,-0.72548 0.0225,-1.00544 0.0492,-0.62213 0.0267,0.38331 0.0264,0.97689 -6.6e-4,1.31906 -0.0271,0.34218 -0.0489,0.0286 -0.0486,-0.69693 z m 86.6249,-0.2748 c 0.006,-0.15367 0.0376,-0.18492 0.0797,-0.0797 0.0381,0.0952 0.0334,0.20899 -0.0104,0.25283 -0.0438,0.0438 -0.075,-0.0341 -0.0693,-0.17313 z m 4.61674,-0.79144 c 0.006,-0.15367 0.0376,-0.18492 0.0797,-0.0797 0.0381,0.0952 0.0334,0.20899 -0.0104,0.25283 -0.0438,0.0438 -0.075,-0.0341 -0.0693,-0.17313 z m -86.53076,-0.26382 c 0.006,-0.15366 0.0376,-0.18492 0.0797,-0.0797 0.0381,0.0952 0.0334,0.20899 -0.0104,0.25282 -0.0438,0.0438 -0.075,-0.0341 -0.0693,-0.17313 z m 86.39885,-0.39572 c 0.006,-0.15366 0.0376,-0.18492 0.0797,-0.0797 0.0381,0.0952 0.0334,0.20899 -0.0104,0.25282 -0.0438,0.0438 -0.075,-0.0341 -0.0693,-0.17313 z m -91.00517,-0.31877 c 0,-0.18137 0.0299,-0.25557 0.0665,-0.16488 0.0366,0.0907 0.0366,0.23908 0,0.32976 -0.0366,0.0907 -0.0665,0.0165 -0.0665,-0.16488 z m 0.12149,-0.73648 c 0.006,-0.15366 0.0376,-0.18492 0.0797,-0.0797 0.0381,0.0952 0.0334,0.20899 -0.0104,0.25282 -0.0438,0.0438 -0.075,-0.0341 -0.0693,-0.17313 z m 60.36985,0.11576 c 0.16324,-0.0314 0.43035,-0.0314 0.59358,0 0.16324,0.0314 0.0297,0.0572 -0.29679,0.0572 -0.32647,0 -0.46002,-0.0257 -0.29679,-0.0572 z m 1.81372,-0.56644 c 0.13131,-0.1451 0.26843,-0.26381 0.3047,-0.26381 0.0363,0 -0.0415,0.11871 -0.17279,0.26381 -0.13132,0.1451 -0.26843,0.26381 -0.30471,0.26381 -0.0363,0 0.0415,-0.11871 0.1728,-0.26381 z m -34.09787,-1.64883 c -0.54048,-0.54412 -0.95301,-0.9893 -0.91674,-0.9893 0.0363,0 0.50817,0.44518 1.04865,0.9893 0.54048,0.54411 0.95302,0.9893 0.91674,0.9893 -0.0363,0 -0.50816,-0.44519 -1.04865,-0.9893 z m 3.75934,0.59358 c 0.13131,-0.1451 0.26843,-0.26382 0.3047,-0.26382 0.0363,0 -0.0415,0.11872 -0.17279,0.26382 -0.13131,0.14509 -0.26843,0.26381 -0.3047,0.26381 -0.0363,0 0.0415,-0.11872 0.17279,-0.26381 z m 52.81179,0.033 c -0.16408,-0.20921 -0.15941,-0.21387 0.0498,-0.0498 0.21972,0.17232 0.2896,0.28064 0.18103,0.28064 -0.0274,0 -0.13126,-0.10388 -0.23083,-0.23084 z m -52.40759,-0.59927 c 0.0495,-0.13008 0.12329,-0.20329 0.16391,-0.16268 0.0406,0.0406 8e-5,0.14705 -0.0901,0.23653 -0.13027,0.1293 -0.14542,0.11415 -0.0738,-0.0738 z m 31.71507,-0.15919 c 0.17039,-0.18137 0.33948,-0.32977 0.37575,-0.32977 0.0363,0 -0.0734,0.1484 -0.24384,0.32977 -0.17039,0.18137 -0.33948,0.32977 -0.37576,0.32977 -0.0363,0 0.0735,-0.1484 0.24385,-0.32977 z m 19.90792,-0.16488 -0.31978,-0.36275 0.36274,0.31979 c 0.19951,0.17588 0.36274,0.33911 0.36274,0.36274 0,0.10345 -0.10682,0.0193 -0.4057,-0.31978 z m -51.42319,-0.24183 c 0.006,-0.15367 0.0376,-0.18492 0.0797,-0.0797 0.0381,0.0952 0.0334,0.209 -0.0104,0.25283 -0.0438,0.0438 -0.075,-0.0341 -0.0693,-0.17313 z m -26.12793,0.0271 c 0,-0.0274 0.10387,-0.13127 0.23083,-0.23084 0.20922,-0.16407 0.21388,-0.1594 0.0498,0.0498 -0.17232,0.21972 -0.28064,0.2896 -0.28064,0.18103 z m 76.62093,-0.57675 c -0.16407,-0.20921 -0.15941,-0.21388 0.0498,-0.0498 0.12696,0.0996 0.23084,0.20345 0.23084,0.23084 0,0.10857 -0.10832,0.0387 -0.28064,-0.18103 z m -50.493,-0.10992 c 0.006,-0.15367 0.0376,-0.18492 0.0797,-0.0797 0.0381,0.0952 0.0334,0.20899 -0.0104,0.25282 -0.0438,0.0438 -0.075,-0.0341 -0.0693,-0.17312 z m 10.12043,-0.28534 c 0.74749,-0.0236 1.93465,-0.0235 2.63814,2.7e-4 0.70349,0.0237 0.0919,0.0429 -1.35906,0.0428 -1.45098,-1.1e-4 -2.02656,-0.0195 -1.27908,-0.043 z m 16.51429,-0.0832 c 0,-0.0274 0.10388,-0.13127 0.23084,-0.23084 0.20921,-0.16407 0.21388,-0.15941 0.0498,0.0498 -0.17232,0.21973 -0.28064,0.2896 -0.28064,0.18104 z m -51.57549,-0.13191 c 0,-0.0274 0.10387,-0.13127 0.23083,-0.23084 0.20922,-0.16407 0.21388,-0.1594 0.0498,0.0498 -0.17232,0.21972 -0.28064,0.2896 -0.28064,0.18103 z m 52.23503,-0.651 c 0,-0.0227 0.19291,-0.21562 0.42869,-0.4287 l 0.4287,-0.38742 -0.38742,0.42869 c -0.36113,0.39961 -0.46997,0.48933 -0.46997,0.38743 z m 28.3431,-0.18957 c -0.16408,-0.20921 -0.15941,-0.21387 0.0498,-0.0498 0.21973,0.17232 0.2896,0.28064 0.18104,0.28064 -0.0274,0 -0.13127,-0.10388 -0.23084,-0.23084 z m -56.64961,-0.46167 -0.25128,-0.29679 0.29679,0.25128 c 0.16323,0.13821 0.29679,0.27176 0.29679,0.29679 0,0.10556 -0.10616,0.0276 -0.3423,-0.25128 z m 38.96621,-0.32094 c 0.0952,-0.0381 0.20899,-0.0334 0.25282,0.0104 0.0438,0.0438 -0.0341,0.075 -0.17312,0.0693 -0.15367,-0.006 -0.18492,-0.0376 -0.0797,-0.0797 z m 0.79144,-0.13191 c 0.0952,-0.0381 0.20899,-0.0334 0.25282,0.0104 0.0438,0.0438 -0.0341,0.075 -0.17312,0.0693 -0.15367,-0.006 -0.18492,-0.0376 -0.0797,-0.0797 z m 6.33152,0 c 0.0952,-0.0381 0.20899,-0.0334 0.25282,0.0104 0.0438,0.0438 -0.0341,0.075 -0.17312,0.0693 -0.15367,-0.006 -0.18492,-0.0376 -0.0797,-0.0797 z m -16.4636,-0.0916 c 0,-0.0274 0.10388,-0.13127 0.23084,-0.23084 0.20921,-0.16407 0.21388,-0.15941 0.0498,0.0498 -0.17232,0.21973 -0.28064,0.2896 -0.28064,0.18104 z m 10.98374,-0.0416 c 0.12834,-0.0334 0.30642,-0.0312 0.39572,0.005 0.0893,0.0361 -0.0157,0.0635 -0.23335,0.0608 -0.21764,-0.003 -0.29071,-0.0322 -0.16237,-0.0657 z m 4.54827,0.004 c 0.0907,-0.0366 0.23908,-0.0366 0.32977,0 0.0907,0.0366 0.0165,0.0665 -0.16489,0.0665 -0.18137,0 -0.25557,-0.0299 -0.16488,-0.0665 z m -72.9114,-0.90194 c 0.46738,-0.47156 0.87946,-0.85739 0.91573,-0.85739 0.0363,0 -0.31644,0.38583 -0.78382,0.85739 -0.46737,0.47157 -0.87945,0.85739 -0.91572,0.85739 -0.0363,0 0.31644,-0.38582 0.78381,-0.85739 z m 70.33922,0.76044 c 0.34461,-0.0272 0.90851,-0.0272 1.25311,0 0.34461,0.0272 0.0627,0.0494 -0.62655,0.0494 -0.68921,0 -0.97117,-0.0222 -0.62656,-0.0494 z m -43.96787,-0.66151 -0.31978,-0.36274 0.36274,0.31978 c 0.33904,0.29889 0.42323,0.4057 0.31978,0.4057 -0.0236,0 -0.18686,-0.16323 -0.36274,-0.36274 z m 56.18539,0 c -0.16408,-0.20921 -0.15941,-0.21388 0.0498,-0.0498 0.21972,0.17232 0.2896,0.28064 0.18103,0.28064 -0.0274,0 -0.13126,-0.10388 -0.23083,-0.23084 z m -73.348,0.009 c 0.0952,-0.0381 0.20899,-0.0334 0.25282,0.0104 0.0438,0.0438 -0.0341,0.075 -0.17313,0.0693 -0.15366,-0.006 -0.18492,-0.0376 -0.0797,-0.0797 z m 0.65953,-0.13191 c 0.0952,-0.0381 0.20899,-0.0334 0.25282,0.0104 0.0438,0.0438 -0.0341,0.075 -0.17313,0.0693 -0.15366,-0.006 -0.18492,-0.0376 -0.0797,-0.0797 z m 5.66374,0.003 c 0.0907,-0.0366 0.23908,-0.0366 0.32977,0 0.0907,0.0366 0.0165,0.0665 -0.16488,0.0665 -0.18138,0 -0.25557,-0.0299 -0.16489,-0.0665 z m -4.68017,-0.13595 c 0.12834,-0.0335 0.30641,-0.0312 0.39572,0.005 0.0893,0.0361 -0.0157,0.0635 -0.23335,0.0608 -0.21765,-0.003 -0.29071,-0.0323 -0.16237,-0.0657 z m 3.36264,-0.002 c 0.16408,-0.0315 0.40152,-0.0303 0.52763,0.003 0.12611,0.033 -0.008,0.0588 -0.29833,0.0574 -0.29019,-0.001 -0.39338,-0.0285 -0.2293,-0.06 z m 11.35859,-0.40135 c -0.16408,-0.20921 -0.15941,-0.21388 0.0498,-0.0498 0.12696,0.0996 0.23084,0.20344 0.23084,0.23083 0,0.10857 -0.10832,0.0387 -0.28064,-0.18103 z m -24.38591,-0.4785 c 0,-0.0274 0.10388,-0.13127 0.23084,-0.23084 0.20921,-0.16407 0.21388,-0.15941 0.0498,0.0498 -0.17231,0.21972 -0.28064,0.28959 -0.28064,0.18103 z m 0.52763,-0.39572 c 0,-0.0274 0.10388,-0.13127 0.23084,-0.23084 0.20921,-0.16407 0.21388,-0.15941 0.0498,0.0498 -0.17232,0.21972 -0.28064,0.28959 -0.28064,0.18103 z m 65.13715,-2.0189 c 0.0952,-0.0381 0.20899,-0.0334 0.25282,0.0104 0.0438,0.0438 -0.0341,0.075 -0.17313,0.0693 -0.15366,-0.006 -0.18492,-0.0376 -0.0797,-0.0797 z m 8.0463,0 c 0.0952,-0.0381 0.20899,-0.0334 0.25283,0.0104 0.0438,0.0438 -0.0341,0.075 -0.17313,0.0693 -0.15367,-0.006 -0.18492,-0.0376 -0.0797,-0.0797 z m -7.26311,-0.12916 c 0.0907,-0.0366 0.23909,-0.0366 0.32977,0 0.0907,0.0366 0.0165,0.0665 -0.16488,0.0665 -0.18137,0 -0.25557,-0.0299 -0.16489,-0.0665 z m 6.47167,-0.003 c 0.0952,-0.0381 0.20899,-0.0334 0.25283,0.0104 0.0438,0.0438 -0.0341,0.075 -0.17313,0.0693 -0.15367,-0.006 -0.18492,-0.0376 -0.0797,-0.0797 z m -5.34795,-0.13321 c 0.12834,-0.0334 0.30642,-0.0312 0.39572,0.005 0.0893,0.0361 -0.0157,0.0635 -0.23335,0.0608 -0.21764,-0.003 -0.29071,-0.0323 -0.16237,-0.0657 z m 4.22101,0 c 0.12835,-0.0334 0.30642,-0.0312 0.39572,0.005 0.0893,0.0361 -0.0157,0.0635 -0.23334,0.0608 -0.21765,-0.003 -0.29072,-0.0323 -0.16238,-0.0657 z m -2.11301,-0.13143 c 0.12696,-0.0332 0.33471,-0.0332 0.46167,0 0.12696,0.0332 0.0231,0.0603 -0.23084,0.0603 -0.25392,0 -0.35779,-0.0271 -0.23083,-0.0603 z m -63.24099,-0.39489 c 0.0952,-0.0381 0.20899,-0.0334 0.25282,0.0104 0.0438,0.0438 -0.0341,0.075 -0.17313,0.0693 -0.15366,-0.006 -0.18492,-0.0376 -0.0797,-0.0797 z m 8.57393,-0.26382 c 0.0952,-0.0381 0.20899,-0.0334 0.25282,0.0104 0.0438,0.0438 -0.0341,0.075 -0.17313,0.0693 -0.15366,-0.006 -0.18492,-0.0376 -0.0797,-0.0797 z m -6.46343,-0.1319 c 0.0952,-0.0381 0.20899,-0.0334 0.25283,0.0104 0.0438,0.0438 -0.0341,0.075 -0.17313,0.0693 -0.15367,-0.006 -0.18492,-0.0376 -0.0797,-0.0797 z m 5.53184,0.003 c 0.0907,-0.0366 0.23908,-0.0366 0.32977,0 0.0907,0.0366 0.0165,0.0665 -0.16489,0.0665 -0.18137,0 -0.25557,-0.0299 -0.16488,-0.0665 z m -4.35292,-0.13764 c 0.16323,-0.0314 0.43034,-0.0314 0.59358,0 0.16323,0.0314 0.0297,0.0572 -0.29679,0.0572 -0.32647,0 -0.46003,-0.0257 -0.29679,-0.0572 z m 2.77004,0 c 0.16323,-0.0314 0.43034,-0.0314 0.59358,0 0.16323,0.0314 0.0297,0.0572 -0.29679,0.0572 -0.32647,0 -0.46003,-0.0257 -0.29679,-0.0572 z"
         id="path1930" /><path
         style="fill:#0d83c0;stroke-width:1"
         d="m -722.4549,-62.033418 c -3.70444,-0.321386 -6.77289,-1.257996 -10.89324,-3.325036 -3.81712,-1.914925 -4.9465,-2.950497 -4.9465,-4.535658 0,-1.191206 0.86841,-2.031382 2.09965,-2.031382 0.79352,0 1.01494,0.102505 2.82133,1.306103 3.35773,2.237259 6.6837,3.519934 10.31107,3.976514 1.95836,0.246501 5.08738,0.09885 6.74778,-0.318409 5.0802,-1.276656 9.0394,-4.745762 10.20126,-8.938484 1.80004,-6.495666 -3.25081,-12.900695 -11.53784,-14.631233 -0.68401,-0.142841 -2.08025,-0.315961 -3.10274,-0.384713 -1.54122,-0.103631 -1.95245,-0.176707 -2.40521,-0.427411 -0.73417,-0.406534 -1.05751,-0.990106 -1.04939,-1.893952 0.008,-0.941351 0.36955,-1.526508 1.18583,-1.92166 0.57213,-0.276963 0.86537,-0.307236 3.78734,-0.390989 3.57424,-0.102448 4.45318,-0.261923 6.15299,-1.116392 1.29234,-0.649641 1.87606,-1.064218 2.79345,-1.983988 3.44861,-3.457532 3.51177,-8.654812 0.14722,-12.114042 -2.95431,-3.03743 -7.61368,-4.21258 -13.04943,-3.29122 -3.09509,0.52462 -5.4485,1.75883 -7.92536,4.15634 -0.73151,0.70808 -1.49155,1.32795 -1.68896,1.3775 -0.59675,0.14978 -1.60019,-0.0108 -2.04455,-0.32724 -0.91293,-0.65007 -1.10254,-1.78457 -0.47856,-2.86343 0.81704,-1.41265 3.55971,-3.69715 5.79072,-4.82336 5.04586,-2.54714 11.51378,-3.04677 16.52978,-1.27687 4.83271,1.70523 8.36851,5.28807 9.55149,9.67856 0.40142,1.48983 0.49154,4.25541 0.18763,5.75778 -0.73293,3.623161 -3.34251,6.85495 -7.22617,8.949119 -0.56225,0.30318 -1.02228,0.570905 -1.02228,0.594943 0,0.02404 0.50599,0.312876 1.12442,0.641862 4.59586,2.444861 7.70964,6.125875 8.86204,10.476433 0.2836,1.070635 0.3406,1.582632 0.34809,3.126954 0.0125,2.576259 -0.42628,4.413485 -1.604,6.715975 -3.35893,6.566822 -11.34191,10.559719 -19.66786,9.837386 z m -57.52223,-1.121243 c -6.53936,-0.895673 -12.21531,-4.697254 -14.76932,-9.892039 -2.92454,-5.94842 -1.6502,-12.361375 3.39532,-17.086515 1.24999,-1.170627 3.30458,-2.603823 4.61378,-3.218385 0.45343,-0.212848 0.82442,-0.423613 0.82442,-0.468365 0,-0.04475 -0.28195,-0.217114 -0.62656,-0.383025 -1.18746,-0.571702 -3.13534,-1.9713 -4.15834,-2.987854 -2.47874,-2.463143 -3.65421,-5.203636 -3.6562,-8.524126 -0.001,-1.789 0.20962,-3.0257 0.78555,-4.61088 1.31735,-3.62583 4.67391,-6.82102 8.79502,-8.3722 4.91157,-1.84871 11.2494,-1.48875 16.35973,0.92914 3.15602,1.49324 6.09442,4.0503 6.59721,5.74103 0.32153,1.08123 -0.50447,2.37765 -1.63679,2.56895 -0.97251,0.1643 -1.29343,0.003 -2.7844,-1.40297 -2.77782,-2.61872 -5.21041,-3.81508 -8.79292,-4.32439 -1.37001,-0.19476 -4.35675,-0.16442 -5.62174,0.0571 -4.50421,0.78883 -7.92264,3.59962 -8.88242,7.30355 -0.27234,1.05099 -0.27588,3.00085 -0.007,4.04467 0.64439,2.50485 2.46509,4.710556 4.93842,5.982693 1.94681,1.00133 3.01449,1.204759 6.93546,1.321447 2.56193,0.07624 2.95494,0.11711 3.34983,0.348319 1.5267,0.893891 1.50075,3.048591 -0.0464,3.853156 -0.2386,0.12408 -1.03055,0.248736 -2.04455,0.321819 -4.00267,0.288492 -6.85767,1.167296 -9.60104,2.955323 -2.68723,1.75144 -4.5644,4.16953 -5.33818,6.876424 -0.23524,0.822935 -0.29324,1.358652 -0.28987,2.677597 0.004,1.505277 0.0413,1.757934 0.43013,2.901946 0.5866,1.725852 1.4517,3.117463 2.78936,4.487018 3.2307,3.307733 8.02955,4.955173 13.09412,4.4952 4.12361,-0.374514 7.61174,-1.62948 11.25483,-4.049278 0.80482,-0.534577 1.6934,-1.068094 1.97462,-1.185595 1.42702,-0.596246 2.95955,0.431262 2.95955,1.984275 0,1.507514 -1.17324,2.541938 -5.14436,4.535722 -5.5778,2.800446 -10.65829,3.810344 -15.69689,3.120223 z m 32.17228,-6.145633 c -2.80565,-0.235499 -4.57264,-1.624163 -4.99977,-3.929293 -0.0817,-0.440828 -0.13165,-5.460041 -0.13165,-13.223641 v -12.513127 h -2.17646 -2.17646 v -2.044555 -2.04455 h 2.17646 2.17646 v -4.48483 -4.48482 h 2.57218 2.57218 v 4.48482 4.48483 h 2.63813 2.63813 v 2.04455 2.044555 h -2.63813 -2.63813 v 11.797057 c 0,8.014434 0.045,11.916122 0.1403,12.168388 0.40244,1.065151 1.42773,1.451333 3.49598,1.316774 0.6578,-0.0428 1.2974,-0.116723 1.42133,-0.16428 0.20773,-0.07971 0.2225,0.08219 0.18902,2.072411 l -0.0363,2.158877 -1.05525,0.147901 c -1.47192,0.206298 -2.98987,0.267822 -4.168,0.168933 z"
         id="path1928" /></g></g></svg>
