<?xml version="1.0" encoding="UTF-8" standalone="no"?>
<!-- Created with Inkscape (http://www.inkscape.org/) -->

<svg
   width="184.85118mm"
   height="38.516617mm"
   viewBox="0 0 184.85118 38.516617"
   version="1.1"
   id="svg5"
   xml:space="preserve"
   xmlns:inkscape="http://www.inkscape.org/namespaces/inkscape"
   xmlns:sodipodi="http://sodipodi.sourceforge.net/DTD/sodipodi-0.dtd"
   xmlns="http://www.w3.org/2000/svg"
   xmlns:svg="http://www.w3.org/2000/svg"><sodipodi:namedview
     id="namedview7"
     pagecolor="#ffffff"
     bordercolor="#000000"
     borderopacity="0.25"
     inkscape:showpageshadow="2"
     inkscape:pageopacity="0.0"
     inkscape:pagecheckerboard="0"
     inkscape:deskcolor="#d1d1d1"
     inkscape:document-units="mm"
     showgrid="false" /><defs
     id="defs2" /><g
     inkscape:label="Layer 1"
     inkscape:groupmode="layer"
     id="layer1"
     transform="translate(363.94169,188.47712)"><g
       id="g1832"
       transform="translate(174.42835,-66.741065)"><path
         style="fill:#e01a22;stroke-width:0.999999"
         d="m -536.32512,-84.556557 c -0.22408,-1.397099 -0.2945,-4.527688 -0.12195,-5.421637 0.0776,-0.40205 4.4e-4,-0.306518 -0.34056,0.421488 -0.49785,1.062953 -1.09457,3.1663 -1.26056,4.443311 l -0.111,0.853914 -0.13111,-0.594152 c -0.31778,-1.440028 0.34941,-5.097211 1.3827,-7.579284 1.56756,-3.765441 5.26199,-7.131357 8.39801,-7.651233 0.84589,-0.14023 2.13761,-0.0594 2.13647,0.133639 -3e-4,0.052 -0.2887,0.213006 -0.64088,0.3578 -0.35217,0.144793 -0.86923,0.454367 -1.14901,0.68794 l -0.5087,0.424681 1.11244,-0.01952 c 1.38423,-0.02429 2.66385,0.17197 2.36296,0.362415 -0.11591,0.07337 -0.35375,0.134424 -0.52851,0.135674 -0.17477,0.0012 -0.4722,0.127336 -0.66097,0.280189 l -0.34321,0.277915 0.51243,0.259503 c 0.28184,0.142727 0.73227,0.424106 1.00096,0.625284 l 0.48853,0.365781 0.47697,-0.475761 c 0.53767,-0.536315 1.78943,-1.178456 2.3015,-1.180647 0.32,-0.0013 0.31045,0.02726 -0.16885,0.506566 -1.86898,1.868983 -0.80816,4.730335 1.76069,4.749108 0.40848,0.003 1.01005,-0.114245 1.33684,-0.260512 l 0.59415,-0.265939 -0.55702,-0.289354 c -0.30636,-0.159145 -0.55701,-0.312203 -0.55701,-0.340129 0,-0.02793 0.25947,-0.0033 0.57661,0.05467 0.94862,0.173467 1.46471,0.02332 1.95204,-0.567893 0.24316,-0.294994 0.44211,-0.573021 0.44211,-0.617838 0,-0.04482 -0.28408,-0.05609 -0.63129,-0.02505 l -0.63129,0.05643 0.6196,-0.536829 c 0.79934,-0.692555 1.16067,-1.599565 1.02375,-2.56985 -0.12683,-0.898787 -0.69269,-2.091083 -1.22984,-2.591313 -0.4344,-0.40454 -2.74413,-1.78089 -2.83542,-1.6896 -0.0819,0.0819 0.27115,0.70947 0.60586,1.07708 l 0.30062,0.33018 -0.44961,-0.12894 c -1.22217,-0.35052 -2.35538,-1.22553 -2.71662,-2.09763 -0.0978,-0.23605 -0.30432,-0.46934 -0.45899,-0.51843 -0.15466,-0.0491 -0.59549,-0.45328 -0.97961,-0.8982 -0.53307,-0.61746 -0.72665,-0.75847 -0.81776,-0.59566 -0.19249,0.34396 -1.08432,0.83055 -1.52225,0.83055 h -0.40415 l 0.4001,-0.4755 c 0.50514,-0.60032 0.46041,-1.02105 -0.31271,-2.94088 -0.43624,-1.08327 -0.57573,-1.64598 -0.6004,-2.42205 -0.0177,-0.55602 -0.0959,-1.09075 -0.1738,-1.18831 -0.0779,-0.0975 -0.18775,-0.32775 -0.24411,-0.51157 -0.0873,-0.28468 -0.0475,-0.33421 0.26823,-0.33421 0.31612,0 0.41654,-0.12572 0.68223,-0.85409 0.17136,-0.46975 0.3934,-1.01663 0.49342,-1.21528 0.3183,-0.63212 1.17707,-1.34631 1.87887,-1.56254 0.6534,-0.20131 0.66077,-0.20978 0.19094,-0.21973 -0.7054,-0.0149 -1.52421,0.45769 -2.31314,1.33516 -0.72201,0.80306 -0.83557,0.77861 -0.46813,-0.10081 0.33523,-0.80232 1.0193,-1.58744 1.92904,-2.214 0.45156,-0.311 0.82102,-0.61992 0.82102,-0.68648 0,-0.16542 -0.68853,-0.32622 -0.88279,-0.20616 -0.0863,0.0534 -0.15698,0.004 -0.15698,-0.11071 0,-0.2419 0.49326,-0.49224 1.24934,-0.63408 0.29322,-0.055 0.53312,-0.14972 0.53312,-0.21047 0,-0.29567 -1.73244,-1.69716 -2.55918,-2.0703 l -0.93147,-0.42041 0.66842,-0.18478 c 0.80747,-0.22323 2.01259,-0.13314 3.19185,0.23858 0.66423,0.20939 1.11755,0.49957 1.89507,1.2131 0.95482,0.87624 1.06285,0.9349 1.64385,0.89266 0.53672,-0.039 0.62025,-0.091 0.61007,-0.37943 -0.0131,-0.37237 0.11076,-0.41094 0.5555,-0.17292 0.2716,0.14536 0.2911,0.12702 0.19746,-0.18567 -0.19497,-0.65102 -0.60812,-1.23679 -1.12054,-1.58871 -0.4291,-0.29469 -0.45182,-0.33487 -0.14051,-0.24855 0.75399,0.20907 1.87365,0.82252 2.42798,1.33027 0.53614,0.49109 0.56419,0.55923 0.467,1.1345 -0.0984,0.58247 -0.0888,0.60421 0.19923,0.45007 0.16645,-0.0891 0.43768,-0.16197 0.60273,-0.16197 0.28357,0 0.28002,0.0201 -0.0645,0.3646 -0.3988,0.3988 -0.49655,0.86502 -0.15378,0.73349 0.11594,-0.0445 0.3666,0.0178 0.55701,0.13843 0.19042,0.12063 0.71298,0.2955 1.16124,0.38861 1.04419,0.21689 1.48731,0.50818 1.48731,0.97771 0,0.28384 0.0773,0.36792 0.3383,0.36792 0.44951,0 0.94928,0.36511 1.2222,0.89287 0.31633,0.61171 0.27783,0.75814 -0.18652,0.70954 -0.56546,-0.0592 -0.61831,0.44176 -0.11029,1.04551 0.52887,0.62853 2.22538,1.51115 2.90463,1.51115 0.64971,0 0.89251,0.24903 1.25766,1.28995 l 0.27014,0.77006 -0.35672,0.52059 c -0.42441,0.61939 -0.55427,0.60093 -0.22684,-0.0322 0.22923,-0.44328 0.18624,-0.91445 -0.0834,-0.91445 -0.0759,0 -0.26685,0.30079 -0.42444,0.66843 -0.33934,0.79166 -0.63866,0.84922 -1.80553,0.34725 -0.79099,-0.34027 -1.00898,-0.26328 -1.01442,0.3583 -0.002,0.21321 0.13125,0.25994 0.74042,0.25994 0.40848,0 0.74269,0.0623 0.74269,0.13853 0,0.15375 -0.24632,0.24274 -1.08223,0.39097 -0.4578,0.0812 -0.60154,0.19351 -0.77312,0.60416 -0.24328,0.58224 -0.53856,0.74439 -0.92072,0.5056 -0.24238,-0.15145 -0.23718,-0.15943 0.0526,-0.0807 0.22935,0.0623 0.38912,-0.009 0.55702,-0.24876 0.33679,-0.48084 0.29281,-0.70222 -0.17304,-0.87093 -0.84892,-0.30742 -1.09305,-0.51519 -1.75617,-1.49465 -0.75771,-1.11916 -1.44703,-1.71495 -2.34024,-2.02268 -0.55912,-0.19263 -0.64115,-0.18188 -1.32708,0.174 -0.84615,0.43899 -1.14655,0.4652 -1.75085,0.1527 -0.24103,-0.12465 -0.43824,-0.19227 -0.43824,-0.15028 0,0.28163 1.13005,2.74494 1.38905,3.0279 0.71022,0.77594 2.39076,1.35488 3.94122,1.35776 l 0.94839,0.002 -0.3844,0.30237 c -0.21142,0.16631 -0.58495,0.37228 -0.83006,0.45773 l -0.44565,0.15535 1.15649,0.87144 c 4.27806,3.22362 5.3942,5.941524 4.41146,10.742295 -0.2149,1.049792 -0.49904,2.119266 -0.63143,2.376608 -0.32436,0.630498 -2.0214,3.075052 -2.0883,3.008155 -0.0293,-0.02929 0.0256,-0.366507 0.12205,-0.74938 0.24338,-0.966554 0.0273,-1.106696 -0.64257,-0.416682 -1.09364,1.126589 -2.19303,3.465707 -2.19303,4.665999 0,1.05954 -0.80127,-0.458728 -0.96898,-1.836048 l -0.10303,-0.846141 -1.20932,0.653484 c -1.36882,0.739675 -3.05909,1.410413 -3.55218,1.409586 -0.30053,-4.46e-4 -0.29001,-0.0255 0.1148,-0.273004 0.24508,-0.149847 0.53228,-0.377437 0.63821,-0.505758 0.17303,-0.20961 0.0674,-0.226493 -1.03977,-0.166218 -2.81079,0.153016 -3.65446,0.495812 -5.45578,2.216786 l -1.19808,1.144644 0.32858,-0.799469 c 0.18072,-0.439706 0.71156,-1.551487 1.17965,-2.470624 l 0.85108,-1.671156 -0.54844,0.438313 c -0.71177,0.568847 -1.75356,0.794579 -3.0899,0.669504 -1.25528,-0.117489 -1.63937,-0.287598 -0.97756,-0.432956 0.7277,-0.159829 1.59254,-0.882366 1.9568,-1.634836 0.60606,-1.251954 0.37918,-2.650891 -0.58656,-3.616627 -0.64542,-0.645422 -1.35318,-0.919774 -2.36263,-0.915835 -1.06648,0.0042 -1.83106,0.358058 -2.72134,1.259607 -1.54861,1.568205 -2.43942,4.193136 -2.62115,7.723681 l -0.10704,2.079532 z m 24.74309,-25.735593 c -0.0264,-0.0264 -0.40261,-0.31255 -0.83612,-0.63599 -0.90756,-0.67713 -1.40981,-0.78059 -1.24334,-0.25612 0.14399,0.45368 1.16881,1.82122 1.58253,2.11176 0.3341,0.23463 0.3384,0.23006 0.44112,-0.46739 0.0571,-0.38739 0.0822,-0.7259 0.0558,-0.75226 z m -1.95134,-4.95077 c -0.47107,-0.49548 -1.10627,-0.87797 -1.45805,-0.87797 -0.2336,0 -0.68641,0.38667 -0.68641,0.58616 0,0.18431 1.49793,0.71547 2.07019,0.73408 l 0.51054,0.0166 z m 93.51402,24.596304 v -1.708187 h 1.63392 1.63392 v 1.708187 1.708188 h -1.63392 -1.63392 z m -59.56374,-0.07427 v -1.633918 h 9.43216 9.43217 v 1.633918 1.633919 h -9.43217 -9.43216 z m 0,-9.209357 v -1.633917 h 6.38713 6.38714 v 1.633917 1.633918 h -6.38714 -6.38713 z m 0,-9.135087 v -1.70819 h 9.43216 9.43217 v 1.70819 1.70819 h -9.43217 -9.43216 z m -28.22222,0.95673 c 0,-0.0865 0.0668,-0.11599 0.14854,-0.0655 0.0817,0.0505 0.14853,0.12128 0.14853,0.1573 0,0.036 -0.0668,0.0655 -0.14853,0.0655 -0.0817,0 -0.14854,-0.0708 -0.14854,-0.15731 z"
         id="path1836" /><path
         style="fill:#221e1f;stroke-width:0.999999"
         d="m -451.36087,-88.630718 c -3.28924,-0.472697 -5.81703,-1.896302 -6.8999,-3.885898 -0.4973,-0.913696 -0.81992,-2.060879 -0.82231,-2.92403 l -0.002,-0.634966 2.40977,0.04081 2.40978,0.04081 0.11024,0.64662 c 0.2577,1.511515 1.34647,2.571668 3.24434,3.159065 0.90565,0.2803 1.43697,0.342324 2.89195,0.337588 2.00737,-0.0065 3.00819,-0.232759 4.10052,-0.926884 1.79577,-1.141116 1.68239,-3.386877 -0.22009,-4.359591 -0.90089,-0.460618 -1.77755,-0.664998 -4.99447,-1.164375 -5.03076,-0.780951 -6.65316,-1.318208 -8.02025,-2.655911 -0.74917,-0.73306 -0.91116,-0.9949 -1.19632,-1.93373 -0.59133,-1.94684 -0.17794,-4.2697 1.00601,-5.65289 1.69528,-1.98055 4.93577,-2.96174 9.1621,-2.77421 2.91926,0.12953 4.79855,0.57898 6.43781,1.53965 1.55213,0.90961 2.8082,2.70406 3.12462,4.46391 l 0.14022,0.77982 h -2.42465 -2.42463 l -0.18065,-0.60294 c -0.27058,-0.9031 -1.14915,-1.80589 -2.23637,-2.298 -0.82339,-0.37269 -1.15373,-0.4317 -2.72433,-0.48663 -3.47691,-0.12162 -5.41566,0.8784 -5.41566,2.79342 0,0.91869 0.41598,1.53919 1.34878,2.01187 0.94064,0.47666 1.92611,0.68395 5.58397,1.17457 6.40026,0.85845 8.63228,2.238817 9.11846,5.639201 0.39413,2.756533 -0.96991,5.243785 -3.57706,6.522647 -1.90861,0.936203 -3.09178,1.164838 -6.31094,1.219525 -1.55222,0.02637 -3.18985,-0.0049 -3.63918,-0.06946 z m 61.71754,-0.0139 c -1.89234,-0.379831 -3.21933,-1.269327 -3.86626,-2.591578 -1.00813,-2.060557 -0.46874,-4.526479 1.24512,-5.692227 1.15926,-0.78853 2.22339,-1.058055 5.74044,-1.45398 4.94301,-0.556449 5.65391,-0.723116 6.02257,-1.411954 0.28026,-0.523663 0.0299,-1.409753 -0.5396,-1.909773 -0.80805,-0.70947 -1.85999,-0.9374 -4.04855,-0.87722 -1.7761,0.0488 -1.92425,0.0768 -2.67992,0.50542 -0.74486,0.42251 -1.18947,0.96781 -1.41645,1.73721 -0.0679,0.23034 -0.29709,0.25994 -2.01233,0.25994 h -1.93566 v -0.36577 c 0,-0.73031 0.61531,-2.01005 1.35623,-2.82073 1.30421,-1.42702 2.92444,-1.98487 6.14494,-2.11571 4.45491,-0.181 7.47369,0.69457 8.57688,2.48762 0.56703,0.92162 0.70422,2.2789 0.70562,6.981086 10e-4,2.752418 0.0501,3.844119 0.17937,3.973392 0.10092,0.100912 0.58425,0.178245 1.11404,0.178245 h 0.93579 v 1.390606 1.390605 l -0.84174,0.169044 c -1.31563,0.264218 -3.13647,0.210934 -3.84889,-0.112633 -0.6681,-0.303438 -1.25089,-0.94278 -1.25089,-1.372273 0,-0.152375 -0.0267,-0.277045 -0.0593,-0.277045 -0.0326,0 -0.39933,0.228792 -0.81487,0.508425 -0.98515,0.662961 -2.10769,1.07411 -3.68229,1.348697 -1.34389,0.234355 -4.02096,0.271973 -5.02421,0.0706 z m 5.94482,-2.830775 c 1.26673,-0.391249 2.36794,-1.273275 2.83078,-2.267355 0.28485,-0.611771 0.35688,-1.011659 0.35804,-1.987614 l 10e-4,-1.221763 -0.39086,0.148608 c -0.65419,0.248723 -1.50934,0.404986 -3.99101,0.729288 -2.93602,0.383676 -3.78194,0.617212 -4.37161,1.206877 -0.39939,0.399386 -0.45587,0.558115 -0.45587,1.281008 0,1.841352 1.2375,2.640804 3.83765,2.479222 0.68104,-0.04232 1.66268,-0.208043 2.18143,-0.368271 z m 19.45518,2.77385 c -1.5242,-0.376526 -3.24821,-1.363065 -3.63059,-2.077567 -0.33488,-0.625712 -0.4542,-0.454319 -0.4542,0.652382 v 1.039766 h -2.00526 -2.00527 v -10.769007 -10.769011 h 2.00527 2.00526 v 4.01053 c 0,2.20579 0.032,4.01052 0.0712,4.01052 0.0392,0 0.33739,-0.28877 0.66272,-0.64171 1.22453,-1.32846 2.95494,-1.94187 5.50467,-1.95135 1.97295,-0.007 3.35441,0.33787 4.76361,1.19036 2.832,1.7132 4.3344,5.364991 3.63805,8.842753 -0.84221,4.206166 -4.03529,6.691806 -8.5502,6.655855 -0.69442,-0.0055 -1.59679,-0.09261 -2.00527,-0.193521 z m 3.66058,-3.387132 c 1.04148,-0.476809 1.84144,-1.275189 2.33742,-2.33281 0.34691,-0.739741 0.38878,-1.007145 0.3858,-2.463723 -0.003,-1.480348 -0.0421,-1.713529 -0.41591,-2.480936 -0.51863,-1.064716 -1.63487,-2.088106 -2.66734,-2.445456 -0.55013,-0.19041 -1.20693,-0.2675 -2.26078,-0.26537 -1.27796,0.003 -1.60041,0.0563 -2.30911,0.38434 -1.15413,0.53425 -1.8453,1.1936 -2.36685,2.257848 -1.05241,2.147518 -0.59779,5.065687 1.01637,6.523988 1.15929,1.04735 2.00211,1.306632 4.03948,1.242673 1.14029,-0.0358 1.58126,-0.118553 2.24092,-0.420554 z m -144.69742,-7.841563 v -10.843282 h 2.59104 2.59103 l 6.41477,8.09532 c 3.52812,4.452436 6.47294,8.095331 6.54405,8.095331 0.0718,0 0.12929,-3.601064 0.12929,-8.095331 v -8.09532 h 2.1538 2.1538 v 10.843282 10.843276 h -2.5836 -2.58359 l -6.51436,-8.167617 -6.51435,-8.167621 -0.0384,8.167621 -0.0384,8.167617 h -2.15254 -2.15255 z m 76.34854,1.708187 v -9.135089 h -4.08479 -4.0848 v -1.70819 -1.70819 h 10.39766 10.39766 v 1.70819 1.70819 h -4.08479 -4.0848 v 9.135089 9.135089 h -2.22807 -2.22807 z m 16.19064,-1.48538 V -110.3279 h 2.22807 2.22807 v 8.91228 8.912279 h 6.46141 6.4614 v 1.708187 1.708188 h -8.68947 -8.68948 z"
         id="path1834" /></g></g></svg>
