<?xml version="1.0" encoding="UTF-8" standalone="no"?>
<!-- Created with Inkscape (http://www.inkscape.org/) -->

<svg
   width="184.8512mm"
   height="38.516373mm"
   viewBox="0 0 184.8512 38.516373"
   version="1.1"
   id="svg5"
   xml:space="preserve"
   xmlns:inkscape="http://www.inkscape.org/namespaces/inkscape"
   xmlns:sodipodi="http://sodipodi.sourceforge.net/DTD/sodipodi-0.dtd"
   xmlns="http://www.w3.org/2000/svg"
   xmlns:svg="http://www.w3.org/2000/svg"><sodipodi:namedview
     id="namedview7"
     pagecolor="#ffffff"
     bordercolor="#000000"
     borderopacity="0.25"
     inkscape:showpageshadow="2"
     inkscape:pageopacity="0.0"
     inkscape:pagecheckerboard="0"
     inkscape:deskcolor="#d1d1d1"
     inkscape:document-units="mm"
     showgrid="false" /><defs
     id="defs2" /><g
     inkscape:label="Layer 1"
     inkscape:groupmode="layer"
     id="layer1"
     transform="translate(460.70082,-82.138471)"><g
       id="g1197"
       transform="translate(-24.174093,178.13171)"
       style="fill:#ffffff;fill-opacity:1"><path
         style="fill:#ffffff;fill-opacity:1;stroke-width:0.999999"
         d="m -434.48183,-58.813737 c -0.22408,-1.397099 -0.2945,-4.527688 -0.12195,-5.421637 0.0776,-0.40205 4.4e-4,-0.306518 -0.34056,0.421488 -0.49785,1.062953 -1.09457,3.1663 -1.26056,4.443311 l -0.111,0.853914 -0.13111,-0.594152 c -0.31778,-1.440028 0.34941,-5.097211 1.3827,-7.579284 1.56756,-3.765441 5.26199,-7.131357 8.39801,-7.651237 0.84589,-0.140229 2.13761,-0.05943 2.13647,0.133643 -3e-4,0.05199 -0.2887,0.213006 -0.64088,0.3578 -0.35217,0.144793 -0.86923,0.454367 -1.14901,0.68794 l -0.5087,0.424681 1.11244,-0.01952 c 1.38423,-0.02429 2.66385,0.17197 2.36296,0.362415 -0.11591,0.07337 -0.35375,0.134424 -0.52851,0.135674 -0.17477,0.0012 -0.4722,0.127336 -0.66097,0.280189 l -0.34321,0.277915 0.51243,0.259503 c 0.28184,0.142727 0.73227,0.424106 1.00096,0.625284 l 0.48853,0.365781 0.47697,-0.475761 c 0.53767,-0.536315 1.78943,-1.178456 2.3015,-1.180647 0.32,-0.0013 0.31045,0.02726 -0.16885,0.506566 -1.86898,1.868983 -0.80816,4.730335 1.76069,4.749108 0.40848,0.003 1.01005,-0.114245 1.33684,-0.260512 l 0.59415,-0.265939 -0.55702,-0.289354 c -0.30636,-0.159145 -0.55701,-0.312203 -0.55701,-0.340129 0,-0.02793 0.25947,-0.0033 0.57661,0.05467 0.94862,0.173467 1.46471,0.02332 1.95204,-0.567893 0.24316,-0.294994 0.44211,-0.573021 0.44211,-0.617838 0,-0.04482 -0.28408,-0.05609 -0.63129,-0.02505 l -0.63129,0.05643 0.6196,-0.536829 c 0.79934,-0.692555 1.16067,-1.599565 1.02375,-2.56985 -0.12683,-0.898787 -0.69269,-2.091078 -1.22984,-2.591308 -0.4344,-0.404543 -2.74413,-1.780892 -2.83542,-1.689604 -0.0819,0.08187 0.27115,0.709471 0.60586,1.077085 l 0.30062,0.330182 -0.44961,-0.128947 c -1.22217,-0.350511 -2.35538,-1.225522 -2.71662,-2.097626 -0.0978,-0.236046 -0.30432,-0.46934 -0.45899,-0.518429 -0.15466,-0.04909 -0.59549,-0.453283 -0.97961,-0.898206 -0.53307,-0.617459 -0.72665,-0.75846 -0.81776,-0.595654 -0.19249,0.343959 -1.08432,0.830545 -1.52225,0.830545 h -0.40415 l 0.4001,-0.475491 c 0.50514,-0.600329 0.46041,-1.021058 -0.31271,-2.940884 -0.43624,-1.08327 -0.57573,-1.645981 -0.6004,-2.422052 -0.0177,-0.556016 -0.0959,-1.090753 -0.1738,-1.188304 -0.0779,-0.09755 -0.18775,-0.327758 -0.24411,-0.511574 -0.0873,-0.284677 -0.0475,-0.33421 0.26823,-0.33421 0.31612,0 0.41654,-0.125723 0.68223,-0.854094 0.17136,-0.469752 0.3934,-1.016627 0.49342,-1.215277 0.3183,-0.632123 1.17707,-1.346307 1.87887,-1.562537 0.6534,-0.201315 0.66077,-0.209788 0.19094,-0.219735 -0.7054,-0.01493 -1.52421,0.457693 -2.31314,1.335165 -0.72201,0.803056 -0.83557,0.778602 -0.46813,-0.10081 0.33523,-0.802321 1.0193,-1.587441 1.92904,-2.214004 0.45156,-0.311001 0.82102,-0.619914 0.82102,-0.686475 0,-0.165427 -0.68853,-0.326226 -0.88279,-0.206165 -0.0863,0.05336 -0.15698,0.0035 -0.15698,-0.110712 0,-0.241894 0.49326,-0.492235 1.24934,-0.634079 0.29322,-0.05501 0.53312,-0.14972 0.53312,-0.210472 0,-0.295665 -1.73244,-1.697153 -2.55918,-2.070296 l -0.93147,-0.42041 0.66842,-0.184785 c 0.80747,-0.223221 2.01259,-0.133139 3.19185,0.238589 0.66423,0.209383 1.11755,0.499565 1.89507,1.213093 0.95482,0.876243 1.06285,0.934905 1.64385,0.892663 0.53672,-0.03902 0.62025,-0.09098 0.61007,-0.379426 -0.0131,-0.37237 0.11076,-0.410939 0.5555,-0.172923 0.2716,0.145356 0.2911,0.127017 0.19746,-0.185673 -0.19497,-0.651023 -0.60812,-1.23679 -1.12054,-1.588703 -0.4291,-0.294694 -0.45182,-0.334878 -0.14051,-0.248556 0.75399,0.20907 1.87365,0.822523 2.42798,1.330275 0.53614,0.491083 0.56419,0.559223 0.467,1.134496 -0.0984,0.582467 -0.0888,0.604208 0.19923,0.450068 0.16645,-0.08908 0.43768,-0.161966 0.60273,-0.161966 0.28357,0 0.28002,0.02006 -0.0645,0.364594 -0.3988,0.398799 -0.49655,0.865023 -0.15378,0.733492 0.11594,-0.04449 0.3666,0.0178 0.55701,0.138432 0.19042,0.120628 0.71298,0.295504 1.16124,0.388612 1.04419,0.21689 1.48731,0.50818 1.48731,0.977709 0,0.283838 0.0773,0.367921 0.3383,0.367921 0.44951,0 0.94928,0.365107 1.2222,0.892868 0.31633,0.611709 0.27783,0.758143 -0.18652,0.709538 -0.56546,-0.05919 -0.61831,0.441765 -0.11029,1.045509 0.52887,0.628531 2.22538,1.51115 2.90463,1.51115 0.64971,0 0.89251,0.249034 1.25766,1.289948 l 0.27014,0.770066 -0.35672,0.520593 c -0.42441,0.619387 -0.55427,0.600927 -0.22684,-0.03225 0.22923,-0.443271 0.18624,-0.914441 -0.0834,-0.914441 -0.0759,0 -0.26685,0.300789 -0.42444,0.668421 -0.33934,0.79166 -0.63866,0.849227 -1.80553,0.347255 -0.79099,-0.340274 -1.00898,-0.263279 -1.01442,0.358301 -0.002,0.213208 0.13125,0.259941 0.74042,0.259941 0.40848,0 0.74269,0.06234 0.74269,0.138528 0,0.15375 -0.24632,0.242736 -1.08223,0.390967 -0.4578,0.08118 -0.60154,0.193508 -0.77312,0.604159 -0.24328,0.582244 -0.53856,0.744392 -0.92072,0.505601 -0.24238,-0.151451 -0.23718,-0.159426 0.0526,-0.0807 0.22935,0.0623 0.38912,-0.009 0.55702,-0.248766 0.33679,-0.480835 0.29281,-0.702217 -0.17304,-0.870921 -0.84892,-0.307425 -1.09305,-0.5152 -1.75617,-1.494656 -0.75771,-1.119159 -1.44703,-1.714948 -2.34024,-2.022681 -0.55912,-0.192632 -0.64115,-0.181876 -1.32708,0.173997 -0.84615,0.438998 -1.14655,0.465198 -1.75085,0.1527 -0.24103,-0.124641 -0.43824,-0.192266 -0.43824,-0.150277 0,0.281618 1.13005,2.744941 1.38905,3.027904 0.71022,0.775927 2.39076,1.354876 3.94122,1.357758 l 0.94839,0.0018 -0.3844,0.302373 c -0.21142,0.166304 -0.58495,0.37228 -0.83006,0.457727 l -0.44565,0.155354 1.15649,0.87144 c 4.27806,3.223615 5.3942,5.941517 4.41146,10.742288 -0.2149,1.049792 -0.49904,2.119266 -0.63143,2.376608 -0.32436,0.630498 -2.0214,3.075052 -2.0883,3.008155 -0.0293,-0.02929 0.0256,-0.366507 0.12205,-0.74938 0.24338,-0.966554 0.0273,-1.106696 -0.64257,-0.416682 -1.09364,1.126589 -2.19303,3.465707 -2.19303,4.665999 0,1.05954 -0.80127,-0.458728 -0.96898,-1.836048 l -0.10303,-0.846141 -1.20932,0.653484 c -1.36882,0.739675 -3.05909,1.410413 -3.55218,1.409586 -0.30053,-4.46e-4 -0.29001,-0.0255 0.1148,-0.273004 0.24508,-0.149847 0.53228,-0.377437 0.63821,-0.505758 0.17303,-0.20961 0.0674,-0.226493 -1.03977,-0.166218 -2.81079,0.153016 -3.65446,0.495812 -5.45578,2.216786 l -1.19808,1.144644 0.32858,-0.799469 c 0.18072,-0.439706 0.71156,-1.551487 1.17965,-2.470624 l 0.85108,-1.671156 -0.54844,0.438313 c -0.71177,0.568847 -1.75356,0.794579 -3.0899,0.669504 -1.25528,-0.117489 -1.63937,-0.287598 -0.97756,-0.432956 0.7277,-0.159829 1.59254,-0.882366 1.9568,-1.634836 0.60606,-1.251954 0.37918,-2.650891 -0.58656,-3.616627 -0.64542,-0.645422 -1.35318,-0.919774 -2.36263,-0.915835 -1.06648,0.0042 -1.83106,0.358058 -2.72134,1.259607 -1.54861,1.568205 -2.43942,4.193136 -2.62115,7.723681 l -0.10704,2.079532 z m 24.74309,-25.735592 c -0.0264,-0.02636 -0.40261,-0.312553 -0.83612,-0.63599 -0.90756,-0.67713 -1.40981,-0.780588 -1.24334,-0.256117 0.14399,0.453674 1.16881,1.821213 1.58253,2.111756 0.3341,0.234629 0.3384,0.230065 0.44112,-0.467393 0.0571,-0.387384 0.0822,-0.725899 0.0558,-0.752256 z m -1.95134,-4.95077 c -0.47107,-0.495483 -1.10627,-0.877967 -1.45805,-0.877967 -0.2336,0 -0.68641,0.38667 -0.68641,0.586155 0,0.18431 1.49793,0.71547 2.07019,0.734082 l 0.51054,0.0166 z m 93.51402,24.596303 v -1.708187 h 1.63392 1.63392 v 1.708187 1.708188 h -1.63392 -1.63392 z m -59.56374,-0.07427 v -1.633918 h 9.43216 9.43217 v 1.633918 1.633919 h -9.43217 -9.43216 z m 0,-9.209357 v -1.633918 h 6.38713 6.38714 v 1.633918 1.633918 h -6.38714 -6.38713 z m 0,-9.135088 v -1.708187 h 9.43216 9.43217 v 1.708187 1.708187 h -9.43217 -9.43216 z m -28.22222,0.95673 c 0,-0.08652 0.0668,-0.115993 0.14854,-0.0655 0.0817,0.05049 0.14853,0.121278 0.14853,0.157305 0,0.03603 -0.0668,0.0655 -0.14853,0.0655 -0.0817,0 -0.14854,-0.07079 -0.14854,-0.157305 z"
         id="path1201" /><path
         style="fill:#ffffff;fill-opacity:1;stroke-width:0.999999"
         d="m -349.51758,-62.887898 c -3.28924,-0.472697 -5.81703,-1.896302 -6.8999,-3.885898 -0.4973,-0.913696 -0.81992,-2.060879 -0.82231,-2.92403 l -0.002,-0.634966 2.40977,0.04081 2.40978,0.04081 0.11024,0.64662 c 0.2577,1.511515 1.34647,2.571668 3.24434,3.159065 0.90565,0.2803 1.43697,0.342324 2.89195,0.337588 2.00737,-0.0065 3.00819,-0.232759 4.10052,-0.926884 1.79577,-1.141116 1.68239,-3.386877 -0.22009,-4.359591 -0.90089,-0.460618 -1.77755,-0.664998 -4.99447,-1.164375 -5.03076,-0.780951 -6.65316,-1.318208 -8.02025,-2.655909 -0.74917,-0.733065 -0.91116,-0.994899 -1.19632,-1.933735 -0.59133,-1.946831 -0.17794,-4.2697 1.00601,-5.652889 1.69528,-1.980545 4.93577,-2.961741 9.1621,-2.774209 2.91926,0.129536 4.79855,0.578982 6.43781,1.539655 1.55213,0.909612 2.8082,2.704062 3.12462,4.463903 l 0.14022,0.779825 h -2.42465 -2.42463 l -0.18065,-0.602943 c -0.27058,-0.903093 -1.14915,-1.805884 -2.23637,-2.297993 -0.82339,-0.372695 -1.15373,-0.431702 -2.72433,-0.486637 -3.47691,-0.121614 -5.41566,0.8784 -5.41566,2.793421 0,0.918695 0.41598,1.539194 1.34878,2.011876 0.94064,0.476658 1.92611,0.683949 5.58397,1.174566 6.40026,0.858445 8.63228,2.238815 9.11846,5.639199 0.39413,2.756533 -0.96991,5.243785 -3.57706,6.522647 -1.90861,0.936203 -3.09178,1.164838 -6.31094,1.219525 -1.55222,0.02637 -3.18985,-0.0049 -3.63918,-0.06946 z m 61.71754,-0.0139 c -1.89234,-0.379831 -3.21933,-1.269327 -3.86626,-2.591578 -1.00813,-2.060557 -0.46874,-4.526479 1.24512,-5.692227 1.15926,-0.78853 2.22339,-1.058055 5.74044,-1.45398 4.94301,-0.556449 5.65391,-0.723116 6.02257,-1.411954 0.28026,-0.523662 0.0299,-1.409753 -0.5396,-1.909772 -0.80805,-0.709467 -1.85999,-0.937399 -4.04855,-0.87722 -1.7761,0.04884 -1.92425,0.07678 -2.67992,0.505423 -0.74486,0.422509 -1.18947,0.967811 -1.41645,1.737209 -0.0679,0.230342 -0.29709,0.259941 -2.01233,0.259941 h -1.93566 v -0.365773 c 0,-0.730302 0.61531,-2.010045 1.35623,-2.820727 1.30421,-1.427018 2.92444,-1.984866 6.14494,-2.115709 4.45491,-0.180996 7.47369,0.694569 8.57688,2.487623 0.56703,0.921621 0.70422,2.278896 0.70562,6.981078 10e-4,2.752418 0.0501,3.844119 0.17937,3.973392 0.10092,0.100912 0.58425,0.178245 1.11404,0.178245 h 0.93579 v 1.390606 1.390605 l -0.84174,0.169044 c -1.31563,0.264218 -3.13647,0.210934 -3.84889,-0.112633 -0.6681,-0.303438 -1.25089,-0.94278 -1.25089,-1.372273 0,-0.152375 -0.0267,-0.277045 -0.0593,-0.277045 -0.0326,0 -0.39933,0.228792 -0.81487,0.508425 -0.98515,0.662961 -2.10769,1.07411 -3.68229,1.348697 -1.34389,0.234355 -4.02096,0.271973 -5.02421,0.0706 z m 5.94482,-2.830775 c 1.26673,-0.391249 2.36794,-1.273275 2.83078,-2.267355 0.28485,-0.611771 0.35688,-1.011659 0.35804,-1.987614 l 0.001,-1.221763 -0.39086,0.148608 c -0.65419,0.248723 -1.50934,0.404986 -3.99101,0.729288 -2.93602,0.383676 -3.78194,0.617212 -4.37161,1.206877 -0.39939,0.399386 -0.45587,0.558115 -0.45587,1.281008 0,1.841352 1.2375,2.640804 3.83765,2.479222 0.68104,-0.04232 1.66268,-0.208043 2.18143,-0.368271 z m 19.45518,2.77385 c -1.5242,-0.376526 -3.24821,-1.363065 -3.63059,-2.077567 -0.33488,-0.625712 -0.4542,-0.454319 -0.4542,0.652382 v 1.039766 h -2.00526 -2.00527 v -10.769007 -10.769006 h 2.00527 2.00526 v 4.010526 c 0,2.20579 0.032,4.010527 0.0712,4.010527 0.0392,0 0.33739,-0.28877 0.66272,-0.64171 1.22453,-1.328464 2.95494,-1.941879 5.50467,-1.951355 1.97295,-0.0073 3.35441,0.337874 4.76361,1.190358 2.832,1.713203 4.3344,5.36499 3.63805,8.842752 -0.84221,4.206166 -4.03529,6.691806 -8.5502,6.655855 -0.69442,-0.0055 -1.59679,-0.09261 -2.00527,-0.193521 z m 3.66058,-3.387132 c 1.04148,-0.476809 1.84144,-1.275189 2.33742,-2.33281 0.34691,-0.739741 0.38878,-1.007145 0.3858,-2.463723 -0.003,-1.480348 -0.0421,-1.713529 -0.41591,-2.480936 -0.51863,-1.06471 -1.63487,-2.088101 -2.66734,-2.445453 -0.55013,-0.190409 -1.20693,-0.267503 -2.26078,-0.265366 -1.27796,0.0026 -1.60041,0.05626 -2.30911,0.384333 -1.15413,0.534258 -1.8453,1.193607 -2.36685,2.257848 -1.05241,2.147518 -0.59779,5.065687 1.01637,6.523988 1.15929,1.04735 2.00211,1.306632 4.03948,1.242673 1.14029,-0.0358 1.58126,-0.118553 2.24092,-0.420554 z m -144.69742,-7.841563 v -10.843275 h 2.59104 2.59103 l 6.41477,8.095322 c 3.52812,4.452427 6.47294,8.095322 6.54405,8.095322 0.0718,0 0.12929,-3.601064 0.12929,-8.095322 v -8.095322 h 2.1538 2.1538 v 10.843275 10.843276 h -2.5836 -2.58359 l -6.51436,-8.167617 -6.51435,-8.167617 -0.0384,8.167617 -0.0384,8.167617 h -2.15254 -2.15255 z m 76.34854,1.708187 v -9.135088 h -4.08479 -4.0848 v -1.708187 -1.708187 h 10.39766 10.39766 v 1.708187 1.708187 h -4.08479 -4.0848 v 9.135088 9.135089 h -2.22807 -2.22807 z m 16.19064,-1.48538 v -10.620468 h 2.22807 2.22807 v 8.912281 8.912281 h 6.46141 6.4614 v 1.708187 1.708188 h -8.68947 -8.68948 z"
         id="path1199" /></g></g></svg>
