<?xml version="1.0" encoding="UTF-8" standalone="no"?>
<svg
   width="453"
   height="230"
   viewBox="0 0 453 230"
   fill="none"
   version="1.1"
   id="svg6"
   sodipodi:docname="Logo-Types=imagotype-light (1).svg"
   inkscape:export-filename="rpt-imagotype-light with padding.png"
   inkscape:export-xdpi="96"
   inkscape:export-ydpi="96"
   inkscape:version="1.2.2 (b0a8486541, 2022-12-01)"
   xmlns:inkscape="http://www.inkscape.org/namespaces/inkscape"
   xmlns:sodipodi="http://sodipodi.sourceforge.net/DTD/sodipodi-0.dtd"
   xmlns="http://www.w3.org/2000/svg"
   xmlns:svg="http://www.w3.org/2000/svg">
  <defs
     id="defs10" />
  <sodipodi:namedview
     id="namedview8"
     pagecolor="#ffffff"
     bordercolor="#000000"
     borderopacity="0.25"
     inkscape:showpageshadow="2"
     inkscape:pageopacity="0.0"
     inkscape:pagecheckerboard="0"
     inkscape:deskcolor="#d1d1d1"
     showgrid="false"
     inkscape:zoom="2.5714286"
     inkscape:cx="218.16667"
     inkscape:cy="127.75"
     inkscape:window-width="3440"
     inkscape:window-height="1371"
     inkscape:window-x="0"
     inkscape:window-y="0"
     inkscape:window-maximized="1"
     inkscape:current-layer="svg6" />
  <g
     id="g295"
     transform="translate(30.6035,7.0428754)">
    <path
       fill-rule="evenodd"
       clip-rule="evenodd"
       d="m 89.7227,1.26819 c 2.8376,-1.638295 6.3129,-1.689157 9.1904,-0.15332 L 99.1904,1.26819 118.762,12.568 c 2.929,1.6912 4.733,4.8162 4.733,8.1982 v 16.5879 l 16.702,9.4698 15.555,-8.9795 c 2.838,-1.6384 6.314,-1.6895 9.191,-0.1534 l 0.277,0.1534 19.571,11.2998 c 2.929,1.6911 4.733,4.8161 4.733,8.1982 V 79.942 c 0,3.3824 -1.804,6.5081 -4.733,8.1992 l -14.67,8.4688 0.374,19.258 15.877,9.167 c 2.929,1.691 4.733,4.817 4.733,8.199 v 22.599 c 0,3.382 -1.804,6.508 -4.733,8.199 l -19.571,11.3 c -2.929,1.691 -6.539,1.691 -9.468,0 l -15.036,-8.682 -16.124,9.729 v 18.769 c 0,3.382 -1.805,6.507 -4.735,8.198 l -19.571,11.3 c -2.9289,1.691 -6.5375,1.691 -9.4666,0 l -19.5713,-11.3 C 69.9,201.655 68.0958,198.53 68.0957,195.148 V 177.54 l -16.5264,-8.833 -16.2158,9.363 c -2.9292,1.691 -6.5386,1.691 -9.4678,0 L 6.31445,166.77 c -2.92902,-1.691 -4.73339,-4.817 -4.7334,-8.199 v -22.599 c 4e-5,-3.382 1.80427,-6.508 4.7334,-8.199 L 21.5166,118.996 20.8174,100.165 4.7334,90.8795 C 1.80424,89.1883 5.79406e-6,86.0626 0,82.6803 V 60.0817 c -2.85218e-8,-3.3823 1.80437,-6.508 4.7334,-8.1992 L 24.3047,40.5826 c 2.8377,-1.6383 6.3138,-1.6894 9.1914,-0.1533 l 0.2764,0.1533 14.6855,8.4786 16.96,-10.5215 V 20.7662 c 10e-5,-3.3821 1.8044,-6.507 4.7334,-8.1982 z M 59.6582,139.543 v 14.212 l 16.3691,8.749 12.0665,-6.968 -0.4659,-12.873 c -7.0324,-1.357 -13.3543,-4.705 -18.3554,-9.437 z M 121.864,131.4 c -4.591,4.987 -10.534,8.707 -17.25,10.579 l 0.468,12.927 12.147,7.014 15.799,-9.533 v -14.716 z m -84.0466,-31.5576 0.6846,18.4496 11.999,6.926 9.4297,-6.194 c -1.4371,-3.946 -2.2217,-8.206 -2.2217,-12.648 0,-3.164 0.3979,-6.234 1.1455,-9.1644 l -8.6406,-4.5264 z m 92.3036,-3.9355 c 0.979,3.3193 1.506,6.8321 1.506,10.4691 0,3.541 -0.499,6.965 -1.429,10.208 l 11.253,6.32 12.043,-6.953 -0.35,-18.0168 -13.218,-7.6308 z M 58.0771,63.0992 v 14.5147 l 8.6729,4.543 C 71.7326,76.4182 78.4553,72.2323 86.0967,70.4176 L 86.0352,60.734 73.5283,53.5133 Z m 44.9579,-2.456 0.062,9.7393 c 7.245,1.69 13.67,5.5127 18.581,10.7685 l 9.769,-5.582 V 61.4049 L 116.446,52.9 Z"
       fill="#f44336"
       id="path2" />
    <path
       d="m 227.407,76.387 c -1.089,0 -1.921,-0.301 -2.494,-0.903 -0.573,-0.602 -0.86,-1.4477 -0.86,-2.537 V 49.082 c 0,-1.118 0.287,-1.9637 0.86,-2.537 0.602,-0.5733 1.448,-0.86 2.537,-0.86 h 10.449 c 3.383,0 5.991,0.817 7.826,2.451 1.835,1.634 2.752,3.913 2.752,6.837 0,1.892 -0.416,3.526 -1.247,4.902 -0.831,1.376 -2.035,2.4367 -3.612,3.182 -1.548,0.7453 -3.454,1.118 -5.719,1.118 l 0.344,-0.731 h 1.763 c 1.204,0 2.25,0.301 3.139,0.903 0.917,0.5733 1.706,1.462 2.365,2.666 l 2.666,4.945 c 0.401,0.7167 0.588,1.419 0.559,2.107 -0.029,0.688 -0.287,1.247 -0.774,1.677 -0.487,0.43 -1.204,0.645 -2.15,0.645 -0.946,0 -1.72,-0.2007 -2.322,-0.602 -0.573,-0.4013 -1.089,-1.0177 -1.548,-1.849 l -4.128,-7.611 c -0.43,-0.8027 -0.96,-1.3473 -1.591,-1.634 -0.602,-0.2867 -1.347,-0.43 -2.236,-0.43 h -3.268 v 8.686 c 0,1.0893 -0.287,1.935 -0.86,2.537 -0.545,0.602 -1.362,0.903 -2.451,0.903 z m 3.311,-16.942 h 5.977 c 1.777,0 3.11,-0.3583 3.999,-1.075 0.917,-0.7167 1.376,-1.7917 1.376,-3.225 0,-1.4047 -0.459,-2.4653 -1.376,-3.182 -0.889,-0.7167 -2.222,-1.075 -3.999,-1.075 h -5.977 z M 257.476,76 c -1.118,0 -1.978,-0.301 -2.58,-0.903 -0.602,-0.602 -0.903,-1.462 -0.903,-2.58 V 49.168 c 0,-1.118 0.301,-1.978 0.903,-2.58 0.602,-0.602 1.462,-0.903 2.58,-0.903 h 15.007 c 0.86,0 1.505,0.2293 1.935,0.688 0.459,0.43 0.688,1.0607 0.688,1.892 0,0.86 -0.229,1.5193 -0.688,1.978 -0.43,0.43 -1.075,0.645 -1.935,0.645 h -12.126 v 7.095 h 11.137 c 0.889,0 1.548,0.2293 1.978,0.688 0.459,0.43 0.688,1.075 0.688,1.935 0,0.86 -0.229,1.5193 -0.688,1.978 -0.43,0.43 -1.089,0.645 -1.978,0.645 h -11.137 v 7.568 h 12.126 c 0.86,0 1.505,0.2293 1.935,0.688 0.459,0.43 0.688,1.0607 0.688,1.892 0,0.86 -0.229,1.5193 -0.688,1.978 -0.43,0.43 -1.075,0.645 -1.935,0.645 z m 26.036,0 c -1.118,0 -1.978,-0.301 -2.58,-0.903 -0.602,-0.602 -0.903,-1.462 -0.903,-2.58 V 49.168 c 0,-1.118 0.301,-1.978 0.903,-2.58 0.602,-0.602 1.462,-0.903 2.58,-0.903 h 8.385 c 5.188,0 9.187,1.3187 11.997,3.956 2.838,2.6087 4.257,6.3353 4.257,11.18 0,2.4367 -0.373,4.601 -1.118,6.493 -0.717,1.8633 -1.763,3.44 -3.139,4.73 -1.376,1.29 -3.068,2.279 -5.074,2.967 -2.007,0.6593 -4.315,0.989 -6.923,0.989 z m 3.182,-5.461 h 4.816 c 1.634,0 3.053,-0.2007 4.257,-0.602 1.204,-0.4013 2.207,-1.0033 3.01,-1.806 0.802,-0.8027 1.404,-1.806 1.806,-3.01 0.401,-1.2327 0.602,-2.666 0.602,-4.3 0,-3.268 -0.817,-5.6903 -2.451,-7.267 -1.606,-1.6053 -4.014,-2.408 -7.224,-2.408 h -4.816 z m -59.287,49.848 c -1.089,0 -1.921,-0.301 -2.494,-0.903 -0.573,-0.602 -0.86,-1.448 -0.86,-2.537 V 93.082 c 0,-1.118 0.287,-1.9637 0.86,-2.537 0.602,-0.5733 1.448,-0.86 2.537,-0.86 h 10.449 c 3.383,0 5.991,0.86 7.826,2.58 1.835,1.6913 2.752,4.0563 2.752,7.095 0,3.039 -0.917,5.418 -2.752,7.138 -1.835,1.72 -4.443,2.58 -7.826,2.58 h -7.181 v 7.869 c 0,1.089 -0.287,1.935 -0.86,2.537 -0.545,0.602 -1.362,0.903 -2.451,0.903 z m 3.311,-16.469 h 6.063 c 1.72,0 3.024,-0.387 3.913,-1.161 0.917,-0.774 1.376,-1.906 1.376,-3.397 0,-1.4907 -0.459,-2.6087 -1.376,-3.354 -0.889,-0.7453 -2.193,-1.118 -3.913,-1.118 h -6.063 z M 256.005,120 c -1.09,0 -1.935,-0.301 -2.537,-0.903 -0.574,-0.602 -0.86,-1.433 -0.86,-2.494 V 92.996 c 0,-1.118 0.286,-1.9637 0.86,-2.537 0.573,-0.5733 1.404,-0.86 2.494,-0.86 1.06,0 1.877,0.2867 2.451,0.86 0.573,0.5733 0.86,1.419 0.86,2.537 v 21.371 h 11.524 c 0.917,0 1.619,0.244 2.107,0.731 0.516,0.487 0.774,1.175 0.774,2.064 0,0.917 -0.258,1.62 -0.774,2.107 -0.488,0.487 -1.19,0.731 -2.107,0.731 z m 21.566,0.387 c -0.802,0 -1.462,-0.186 -1.978,-0.559 -0.487,-0.373 -0.802,-0.874 -0.946,-1.505 -0.114,-0.631 0.015,-1.333 0.387,-2.107 l 11.008,-24.123 c 0.459,-0.9747 1.004,-1.677 1.634,-2.107 0.631,-0.4587 1.362,-0.688 2.193,-0.688 0.832,0 1.563,0.2293 2.193,0.688 0.631,0.43 1.161,1.1323 1.591,2.107 l 11.094,24.123 c 0.373,0.774 0.502,1.491 0.387,2.15 -0.086,0.631 -0.372,1.132 -0.86,1.505 -0.487,0.344 -1.118,0.516 -1.892,0.516 -0.974,0 -1.734,-0.229 -2.279,-0.688 -0.516,-0.459 -0.974,-1.175 -1.376,-2.15 l -2.58,-5.977 2.666,1.849 h -17.931 l 2.666,-1.849 -2.537,5.977 c -0.43,1.003 -0.888,1.734 -1.376,2.193 -0.458,0.43 -1.146,0.645 -2.064,0.645 z m 12.212,-23.607 -5.504,13.115 -1.161,-1.677 h 13.459 l -1.161,1.677 -5.547,-13.115 z m 22.4,23.607 c -1.003,0 -1.777,-0.272 -2.322,-0.817 -0.516,-0.573 -0.774,-1.376 -0.774,-2.408 v -24.51 c 0,-1.0893 0.258,-1.9207 0.774,-2.494 0.545,-0.5733 1.262,-0.86 2.15,-0.86 0.774,0 1.362,0.1577 1.763,0.473 0.43,0.2867 0.918,0.774 1.462,1.462 l 15.093,19.221 h -1.161 V 92.48 c 0,-1.0033 0.258,-1.7773 0.774,-2.322 0.545,-0.5733 1.319,-0.86 2.322,-0.86 1.004,0 1.763,0.2867 2.279,0.86 0.545,0.5447 0.817,1.3187 0.817,2.322 v 24.811 c 0,0.946 -0.243,1.706 -0.731,2.279 -0.487,0.545 -1.146,0.817 -1.978,0.817 -0.802,0 -1.447,-0.158 -1.935,-0.473 -0.458,-0.315 -0.96,-0.817 -1.505,-1.505 l -15.05,-19.221 h 1.118 v 17.974 c 0,1.032 -0.258,1.835 -0.774,2.408 -0.516,0.545 -1.29,0.817 -2.322,0.817 z M 344.946,120 c -1.118,0 -1.978,-0.301 -2.58,-0.903 -0.602,-0.602 -0.903,-1.462 -0.903,-2.58 V 93.168 c 0,-1.118 0.301,-1.978 0.903,-2.58 0.602,-0.602 1.462,-0.903 2.58,-0.903 h 15.007 c 0.86,0 1.505,0.2293 1.935,0.688 0.459,0.43 0.688,1.0607 0.688,1.892 0,0.86 -0.229,1.5193 -0.688,1.978 -0.43,0.43 -1.075,0.645 -1.935,0.645 h -12.126 v 7.095 h 11.137 c 0.889,0 1.548,0.229 1.978,0.688 0.459,0.43 0.688,1.075 0.688,1.935 0,0.86 -0.229,1.519 -0.688,1.978 -0.43,0.43 -1.089,0.645 -1.978,0.645 h -11.137 v 7.568 h 12.126 c 0.86,0 1.505,0.229 1.935,0.688 0.459,0.43 0.688,1.061 0.688,1.892 0,0.86 -0.229,1.519 -0.688,1.978 -0.43,0.43 -1.075,0.645 -1.935,0.645 z m 33.13,0.387 c -1.089,0 -1.92,-0.301 -2.494,-0.903 -0.573,-0.602 -0.86,-1.448 -0.86,-2.537 V 95.189 h -7.611 c -0.888,0 -1.576,-0.2437 -2.064,-0.731 -0.487,-0.4873 -0.731,-1.161 -0.731,-2.021 0,-0.8887 0.244,-1.5623 0.731,-2.021 0.488,-0.4873 1.176,-0.731 2.064,-0.731 h 21.887 c 0.889,0 1.577,0.2437 2.064,0.731 0.488,0.4587 0.731,1.1323 0.731,2.021 0,0.86 -0.243,1.5337 -0.731,2.021 -0.487,0.4873 -1.175,0.731 -2.064,0.731 h -7.611 v 21.758 c 0,1.089 -0.286,1.935 -0.86,2.537 -0.544,0.602 -1.361,0.903 -2.451,0.903 z m -143.445,44 c -1.089,0 -1.921,-0.301 -2.494,-0.903 -0.573,-0.602 -0.86,-1.448 -0.86,-2.537 v -21.758 h -7.611 c -0.889,0 -1.577,-0.244 -2.064,-0.731 -0.487,-0.487 -0.731,-1.161 -0.731,-2.021 0,-0.889 0.244,-1.562 0.731,-2.021 0.487,-0.487 1.175,-0.731 2.064,-0.731 h 21.887 c 0.889,0 1.577,0.244 2.064,0.731 0.487,0.459 0.731,1.132 0.731,2.021 0,0.86 -0.244,1.534 -0.731,2.021 -0.487,0.487 -1.175,0.731 -2.064,0.731 h -7.611 v 21.758 c 0,1.089 -0.287,1.935 -0.86,2.537 -0.545,0.602 -1.362,0.903 -2.451,0.903 z m 19.945,0 c -1.089,0 -1.921,-0.301 -2.494,-0.903 -0.573,-0.602 -0.86,-1.448 -0.86,-2.537 v -23.865 c 0,-1.118 0.287,-1.964 0.86,-2.537 0.602,-0.573 1.448,-0.86 2.537,-0.86 h 10.449 c 3.383,0 5.991,0.817 7.826,2.451 1.835,1.634 2.752,3.913 2.752,6.837 0,1.892 -0.416,3.526 -1.247,4.902 -0.831,1.376 -2.035,2.437 -3.612,3.182 -1.548,0.745 -3.454,1.118 -5.719,1.118 l 0.344,-0.731 h 1.763 c 1.204,0 2.25,0.301 3.139,0.903 0.917,0.573 1.706,1.462 2.365,2.666 l 2.666,4.945 c 0.401,0.717 0.588,1.419 0.559,2.107 -0.029,0.688 -0.287,1.247 -0.774,1.677 -0.487,0.43 -1.204,0.645 -2.15,0.645 -0.946,0 -1.72,-0.201 -2.322,-0.602 -0.573,-0.401 -1.089,-1.018 -1.548,-1.849 l -4.128,-7.611 c -0.43,-0.803 -0.96,-1.347 -1.591,-1.634 -0.602,-0.287 -1.347,-0.43 -2.236,-0.43 h -3.268 v 8.686 c 0,1.089 -0.287,1.935 -0.86,2.537 -0.545,0.602 -1.362,0.903 -2.451,0.903 z m 3.311,-16.942 h 5.977 c 1.777,0 3.11,-0.358 3.999,-1.075 0.917,-0.717 1.376,-1.792 1.376,-3.225 0,-1.405 -0.459,-2.465 -1.376,-3.182 -0.889,-0.717 -2.222,-1.075 -3.999,-1.075 h -5.977 z m 26.629,16.942 c -1.089,0 -1.92,-0.301 -2.494,-0.903 -0.573,-0.602 -0.86,-1.448 -0.86,-2.537 v -24.209 c 0,-1.089 0.287,-1.935 0.86,-2.537 0.574,-0.602 1.405,-0.903 2.494,-0.903 1.061,0 1.878,0.301 2.451,0.903 0.574,0.602 0.86,1.448 0.86,2.537 v 24.209 c 0,1.089 -0.286,1.935 -0.86,2.537 -0.544,0.602 -1.361,0.903 -2.451,0.903 z M 297.411,164 c -1.118,0 -1.978,-0.301 -2.58,-0.903 -0.602,-0.602 -0.903,-1.462 -0.903,-2.58 v -23.349 c 0,-1.118 0.301,-1.978 0.903,-2.58 0.602,-0.602 1.462,-0.903 2.58,-0.903 h 10.406 c 2.15,0 3.985,0.315 5.504,0.946 1.519,0.631 2.666,1.534 3.44,2.709 0.803,1.175 1.204,2.58 1.204,4.214 0,1.806 -0.516,3.34 -1.548,4.601 -1.032,1.261 -2.451,2.107 -4.257,2.537 v -0.688 c 2.093,0.373 3.712,1.204 4.859,2.494 1.175,1.261 1.763,2.91 1.763,4.945 0,2.695 -0.932,4.802 -2.795,6.321 -1.863,1.491 -4.429,2.236 -7.697,2.236 z m 2.881,-4.945 h 7.095 c 1.72,0 2.981,-0.33 3.784,-0.989 0.803,-0.688 1.204,-1.691 1.204,-3.01 0,-1.319 -0.401,-2.308 -1.204,-2.967 -0.803,-0.659 -2.064,-0.989 -3.784,-0.989 h -7.095 z m 0,-12.9 h 6.364 c 1.663,0 2.895,-0.315 3.698,-0.946 0.803,-0.631 1.204,-1.577 1.204,-2.838 0,-1.233 -0.401,-2.164 -1.204,-2.795 -0.803,-0.631 -2.035,-0.946 -3.698,-0.946 h -6.364 z M 327.309,164 c -1.118,0 -1.978,-0.301 -2.58,-0.903 -0.602,-0.602 -0.903,-1.462 -0.903,-2.58 v -23.349 c 0,-1.118 0.301,-1.978 0.903,-2.58 0.602,-0.602 1.462,-0.903 2.58,-0.903 h 15.007 c 0.86,0 1.505,0.229 1.935,0.688 0.459,0.43 0.688,1.061 0.688,1.892 0,0.86 -0.229,1.519 -0.688,1.978 -0.43,0.43 -1.075,0.645 -1.935,0.645 H 330.19 v 7.095 h 11.137 c 0.889,0 1.548,0.229 1.978,0.688 0.459,0.43 0.688,1.075 0.688,1.935 0,0.86 -0.229,1.519 -0.688,1.978 -0.43,0.43 -1.089,0.645 -1.978,0.645 H 330.19 v 7.568 h 12.126 c 0.86,0 1.505,0.229 1.935,0.688 0.459,0.43 0.688,1.061 0.688,1.892 0,0.86 -0.229,1.519 -0.688,1.978 -0.43,0.43 -1.075,0.645 -1.935,0.645 z"
       fill="#3d3434"
       id="path4" />
  </g>
</svg>
