<svg width="441" height="216" viewBox="0 0 441 216" fill="none" xmlns="http://www.w3.org/2000/svg">
<path d="M89.7227 1.26855C92.5603 -0.369748 96.0356 -0.420617 98.9131 1.11523L99.1904 1.26855L118.762 12.5684C121.69 14.2596 123.495 17.3846 123.495 20.7666V37.3545L140.197 46.8242L155.752 37.8447C158.59 36.2063 162.066 36.1552 164.943 37.6914L165.22 37.8447L184.791 49.1445C187.72 50.8357 189.524 53.9608 189.524 57.3428V79.9424C189.524 83.3246 187.72 86.4505 184.791 88.1416L170.121 96.6104L170.495 115.868L186.372 125.035C189.301 126.726 191.105 129.852 191.105 133.234V155.833C191.105 159.215 189.301 162.341 186.372 164.032L166.801 175.332C163.872 177.023 160.262 177.023 157.333 175.332L142.297 166.65L126.173 176.379V195.148C126.173 198.53 124.368 201.656 121.438 203.347L101.867 214.646C98.9381 216.337 95.3294 216.337 92.4004 214.646L72.8291 203.347C69.9001 201.656 68.096 198.53 68.0957 195.148V177.54L51.5693 168.707L35.3535 178.07C32.4244 179.761 28.8149 179.761 25.8857 178.07L6.31445 166.771C3.38552 165.079 1.58119 161.953 1.58105 158.571V135.973C1.58109 132.59 3.38542 129.465 6.31445 127.773L21.5166 118.996L20.8174 100.165L4.7334 90.8799C1.80433 89.1887 0.000134325 86.0628 0 82.6807V60.082C-2.85213e-08 56.6998 1.80446 53.574 4.7334 51.8828L24.3047 40.583C27.1425 38.9446 30.6185 38.8936 33.4961 40.4297L33.7725 40.583L48.458 49.0615L65.418 38.54V20.7666C65.4181 17.3845 67.2225 14.2596 70.1514 12.5684L89.7227 1.26855ZM59.6582 139.543V153.755L76.0273 162.504L88.0938 155.536L87.6279 142.663C80.5956 141.307 74.2736 137.958 69.2725 133.227L59.6582 139.543ZM121.864 131.4C117.273 136.387 111.33 140.107 104.614 141.979L105.082 154.906L117.229 161.92L133.028 152.388V137.671L121.864 131.4ZM37.8174 99.8428L38.502 118.292L50.501 125.219L59.9307 119.024C58.4937 115.079 57.709 110.819 57.709 106.376C57.709 103.213 58.1069 100.142 58.8545 97.2119L50.2139 92.6855L37.8174 99.8428ZM130.121 95.9072C131.1 99.2265 131.627 102.74 131.627 106.376C131.627 109.917 131.128 113.342 130.198 116.584L141.451 122.904L153.494 115.951L153.144 97.9346L139.926 90.3037L130.121 95.9072ZM58.0771 63.0996V77.6143L66.75 82.1572C71.7326 76.4186 78.4553 72.2327 86.0967 70.418L86.0352 60.7344L73.5283 53.5137L58.0771 63.0996ZM103.035 60.6436L103.097 70.3828C110.342 72.0728 116.767 75.8956 121.678 81.1514L131.447 75.5693V61.4053L116.446 52.9004L103.035 60.6436Z" fill="#F44336"/>
<path d="M227.407 76.4726C226.318 76.4726 225.486 76.1716 224.913 75.5696C224.34 74.9676 224.053 74.1219 224.053 73.0326V49.1676C224.053 48.0496 224.34 47.2039 224.913 46.6306C225.515 46.0572 226.361 45.7706 227.45 45.7706H237.899C241.282 45.7706 243.89 46.5876 245.725 48.2216C247.56 49.8556 248.477 52.1346 248.477 55.0586C248.477 56.9506 248.061 58.5846 247.23 59.9606C246.399 61.3366 245.195 62.3972 243.618 63.1426C242.07 63.8879 240.164 64.2606 237.899 64.2606L238.243 63.5296H240.006C241.21 63.5296 242.256 63.8306 243.145 64.4326C244.062 65.0059 244.851 65.8946 245.51 67.0986L248.176 72.0436C248.577 72.7602 248.764 73.4626 248.735 74.1506C248.706 74.8386 248.448 75.3976 247.961 75.8276C247.474 76.2576 246.757 76.4726 245.811 76.4726C244.865 76.4726 244.091 76.2719 243.489 75.8706C242.916 75.4692 242.4 74.8529 241.941 74.0216L237.813 66.4106C237.383 65.6079 236.853 65.0632 236.222 64.7766C235.62 64.4899 234.875 64.3466 233.986 64.3466H230.718V73.0326C230.718 74.1219 230.431 74.9676 229.858 75.5696C229.313 76.1716 228.496 76.4726 227.407 76.4726ZM230.718 59.5306H236.695C238.472 59.5306 239.805 59.1722 240.694 58.4556C241.611 57.7389 242.07 56.6639 242.07 55.2306C242.07 53.8259 241.611 52.7652 240.694 52.0486C239.805 51.3319 238.472 50.9736 236.695 50.9736H230.718V59.5306ZM257.476 76.0856C256.358 76.0856 255.498 75.7846 254.896 75.1826C254.294 74.5806 253.993 73.7206 253.993 72.6026V49.2536C253.993 48.1356 254.294 47.2756 254.896 46.6736C255.498 46.0716 256.358 45.7706 257.476 45.7706H272.483C273.343 45.7706 273.988 45.9999 274.418 46.4586C274.877 46.8886 275.106 47.5192 275.106 48.3506C275.106 49.2106 274.877 49.8699 274.418 50.3286C273.988 50.7586 273.343 50.9736 272.483 50.9736H260.357V58.0686H271.494C272.383 58.0686 273.042 58.2979 273.472 58.7566C273.931 59.1866 274.16 59.8316 274.16 60.6916C274.16 61.5516 273.931 62.2109 273.472 62.6696C273.042 63.0996 272.383 63.3146 271.494 63.3146H260.357V70.8826H272.483C273.343 70.8826 273.988 71.1119 274.418 71.5706C274.877 72.0006 275.106 72.6312 275.106 73.4626C275.106 74.3226 274.877 74.9819 274.418 75.4406C273.988 75.8706 273.343 76.0856 272.483 76.0856H257.476ZM283.512 76.0856C282.394 76.0856 281.534 75.7846 280.932 75.1826C280.33 74.5806 280.029 73.7206 280.029 72.6026V49.2536C280.029 48.1356 280.33 47.2756 280.932 46.6736C281.534 46.0716 282.394 45.7706 283.512 45.7706H291.897C297.085 45.7706 301.084 47.0892 303.894 49.7266C306.732 52.3352 308.151 56.0619 308.151 60.9066C308.151 63.3432 307.778 65.5076 307.033 67.3996C306.316 69.2629 305.27 70.8396 303.894 72.1296C302.518 73.4196 300.826 74.4086 298.82 75.0966C296.813 75.7559 294.505 76.0856 291.897 76.0856H283.512ZM286.694 70.6246H291.51C293.144 70.6246 294.563 70.4239 295.767 70.0226C296.971 69.6212 297.974 69.0192 298.777 68.2166C299.579 67.4139 300.181 66.4106 300.583 65.2066C300.984 63.9739 301.185 62.5406 301.185 60.9066C301.185 57.6386 300.368 55.2162 298.734 53.6396C297.128 52.0342 294.72 51.2316 291.51 51.2316H286.694V70.6246ZM227.407 120.473C226.318 120.473 225.486 120.172 224.913 119.57C224.34 118.968 224.053 118.122 224.053 117.033V93.1676C224.053 92.0496 224.34 91.2039 224.913 90.6306C225.515 90.0572 226.361 89.7706 227.45 89.7706H237.899C241.282 89.7706 243.89 90.6306 245.725 92.3506C247.56 94.0419 248.477 96.4069 248.477 99.4456C248.477 102.484 247.56 104.864 245.725 106.584C243.89 108.304 241.282 109.164 237.899 109.164H230.718V117.033C230.718 118.122 230.431 118.968 229.858 119.57C229.313 120.172 228.496 120.473 227.407 120.473ZM230.718 104.004H236.781C238.501 104.004 239.805 103.617 240.694 102.843C241.611 102.069 242.07 100.936 242.07 99.4456C242.07 97.9549 241.611 96.8369 240.694 96.0916C239.805 95.3462 238.501 94.9736 236.781 94.9736H230.718V104.004ZM256.005 120.086C254.915 120.086 254.07 119.785 253.468 119.183C252.894 118.581 252.608 117.749 252.608 116.689V93.0816C252.608 91.9636 252.894 91.1179 253.468 90.5446C254.041 89.9712 254.872 89.6846 255.962 89.6846C257.022 89.6846 257.839 89.9712 258.413 90.5446C258.986 91.1179 259.273 91.9636 259.273 93.0816V114.453H270.797C271.714 114.453 272.416 114.696 272.904 115.184C273.42 115.671 273.678 116.359 273.678 117.248C273.678 118.165 273.42 118.867 272.904 119.355C272.416 119.842 271.714 120.086 270.797 120.086H256.005ZM277.571 120.473C276.769 120.473 276.109 120.286 275.593 119.914C275.106 119.541 274.791 119.039 274.647 118.409C274.533 117.778 274.662 117.076 275.034 116.302L286.042 92.1786C286.501 91.2039 287.046 90.5016 287.676 90.0716C288.307 89.6129 289.038 89.3836 289.869 89.3836C290.701 89.3836 291.432 89.6129 292.062 90.0716C292.693 90.5016 293.223 91.2039 293.653 92.1786L304.747 116.302C305.12 117.076 305.249 117.792 305.134 118.452C305.048 119.082 304.762 119.584 304.274 119.957C303.787 120.301 303.156 120.473 302.382 120.473C301.408 120.473 300.648 120.243 300.103 119.785C299.587 119.326 299.129 118.609 298.727 117.635L296.147 111.658L298.813 113.507H280.882L283.548 111.658L281.011 117.635C280.581 118.638 280.123 119.369 279.635 119.828C279.177 120.258 278.489 120.473 277.571 120.473ZM289.783 96.8656L284.279 109.981L283.118 108.304H296.577L295.416 109.981L289.869 96.8656H289.783ZM312.183 120.473C311.18 120.473 310.406 120.2 309.861 119.656C309.345 119.082 309.087 118.28 309.087 117.248V92.7376C309.087 91.6482 309.345 90.8169 309.861 90.2436C310.406 89.6702 311.123 89.3836 312.011 89.3836C312.785 89.3836 313.373 89.5412 313.774 89.8566C314.204 90.1432 314.692 90.6306 315.236 91.3186L330.329 110.54H329.168V92.5656C329.168 91.5622 329.426 90.7882 329.942 90.2436C330.487 89.6702 331.261 89.3836 332.264 89.3836C333.268 89.3836 334.027 89.6702 334.543 90.2436C335.088 90.7882 335.36 91.5622 335.36 92.5656V117.377C335.36 118.323 335.117 119.082 334.629 119.656C334.142 120.2 333.483 120.473 332.651 120.473C331.849 120.473 331.204 120.315 330.716 120C330.258 119.684 329.756 119.183 329.211 118.495L314.161 99.2736H315.279V117.248C315.279 118.28 315.021 119.082 314.505 119.656C313.989 120.2 313.215 120.473 312.183 120.473ZM344.946 120.086C343.828 120.086 342.968 119.785 342.366 119.183C341.764 118.581 341.463 117.721 341.463 116.603V93.2536C341.463 92.1356 341.764 91.2756 342.366 90.6736C342.968 90.0716 343.828 89.7706 344.946 89.7706H359.953C360.813 89.7706 361.458 89.9999 361.888 90.4586C362.347 90.8886 362.576 91.5192 362.576 92.3506C362.576 93.2106 362.347 93.8699 361.888 94.3286C361.458 94.7586 360.813 94.9736 359.953 94.9736H347.827V102.069H358.964C359.853 102.069 360.512 102.298 360.942 102.757C361.401 103.187 361.63 103.832 361.63 104.692C361.63 105.552 361.401 106.211 360.942 106.67C360.512 107.1 359.853 107.315 358.964 107.315H347.827V114.883H359.953C360.813 114.883 361.458 115.112 361.888 115.571C362.347 116.001 362.576 116.631 362.576 117.463C362.576 118.323 362.347 118.982 361.888 119.441C361.458 119.871 360.813 120.086 359.953 120.086H344.946ZM378.076 120.473C376.987 120.473 376.156 120.172 375.582 119.57C375.009 118.968 374.722 118.122 374.722 117.033V95.2746H367.111C366.223 95.2746 365.535 95.0309 365.047 94.5436C364.56 94.0562 364.316 93.3826 364.316 92.5226C364.316 91.6339 364.56 90.9602 365.047 90.5016C365.535 90.0142 366.223 89.7706 367.111 89.7706H388.998C389.887 89.7706 390.575 90.0142 391.062 90.5016C391.55 90.9602 391.793 91.6339 391.793 92.5226C391.793 93.3826 391.55 94.0562 391.062 94.5436C390.575 95.0309 389.887 95.2746 388.998 95.2746H381.387V117.033C381.387 118.122 381.101 118.968 380.527 119.57C379.983 120.172 379.166 120.473 378.076 120.473ZM234.631 164.473C233.542 164.473 232.71 164.172 232.137 163.57C231.564 162.968 231.277 162.122 231.277 161.033V139.275H223.666C222.777 139.275 222.089 139.031 221.602 138.544C221.115 138.056 220.871 137.383 220.871 136.523C220.871 135.634 221.115 134.96 221.602 134.502C222.089 134.014 222.777 133.771 223.666 133.771H245.553C246.442 133.771 247.13 134.014 247.617 134.502C248.104 134.96 248.348 135.634 248.348 136.523C248.348 137.383 248.104 138.056 247.617 138.544C247.13 139.031 246.442 139.275 245.553 139.275H237.942V161.033C237.942 162.122 237.655 162.968 237.082 163.57C236.537 164.172 235.72 164.473 234.631 164.473ZM254.576 164.473C253.487 164.473 252.655 164.172 252.082 163.57C251.509 162.968 251.222 162.122 251.222 161.033V137.168C251.222 136.05 251.509 135.204 252.082 134.631C252.684 134.057 253.53 133.771 254.619 133.771H265.068C268.451 133.771 271.059 134.588 272.894 136.222C274.729 137.856 275.646 140.135 275.646 143.059C275.646 144.951 275.23 146.585 274.399 147.961C273.568 149.337 272.364 150.397 270.787 151.143C269.239 151.888 267.333 152.261 265.068 152.261L265.412 151.53H267.175C268.379 151.53 269.425 151.831 270.314 152.433C271.231 153.006 272.02 153.895 272.679 155.099L275.345 160.044C275.746 160.76 275.933 161.463 275.904 162.151C275.875 162.839 275.617 163.398 275.13 163.828C274.643 164.258 273.926 164.473 272.98 164.473C272.034 164.473 271.26 164.272 270.658 163.871C270.085 163.469 269.569 162.853 269.11 162.022L264.982 154.411C264.552 153.608 264.022 153.063 263.391 152.777C262.789 152.49 262.044 152.347 261.155 152.347H257.887V161.033C257.887 162.122 257.6 162.968 257.027 163.57C256.482 164.172 255.665 164.473 254.576 164.473ZM257.887 147.531H263.864C265.641 147.531 266.974 147.172 267.863 146.456C268.78 145.739 269.239 144.664 269.239 143.231C269.239 141.826 268.78 140.765 267.863 140.049C266.974 139.332 265.641 138.974 263.864 138.974H257.887V147.531ZM284.516 164.473C283.427 164.473 282.596 164.172 282.022 163.57C281.449 162.968 281.162 162.122 281.162 161.033V136.824C281.162 135.734 281.449 134.889 282.022 134.287C282.596 133.685 283.427 133.384 284.516 133.384C285.577 133.384 286.394 133.685 286.967 134.287C287.541 134.889 287.827 135.734 287.827 136.824V161.033C287.827 162.122 287.541 162.968 286.967 163.57C286.423 164.172 285.606 164.473 284.516 164.473ZM297.411 164.086C296.293 164.086 295.433 163.785 294.831 163.183C294.229 162.581 293.928 161.721 293.928 160.603V137.254C293.928 136.136 294.229 135.276 294.831 134.674C295.433 134.072 296.293 133.771 297.411 133.771H307.817C309.967 133.771 311.802 134.086 313.321 134.717C314.84 135.347 315.987 136.25 316.761 137.426C317.564 138.601 317.965 140.006 317.965 141.64C317.965 143.446 317.449 144.979 316.417 146.241C315.385 147.502 313.966 148.348 312.16 148.778V148.09C314.253 148.462 315.872 149.294 317.019 150.584C318.194 151.845 318.782 153.493 318.782 155.529C318.782 158.223 317.85 160.33 315.987 161.85C314.124 163.34 311.558 164.086 308.29 164.086H297.411ZM300.292 159.141H307.387C309.107 159.141 310.368 158.811 311.171 158.152C311.974 157.464 312.375 156.46 312.375 155.142C312.375 153.823 311.974 152.834 311.171 152.175C310.368 151.515 309.107 151.186 307.387 151.186H300.292V159.141ZM300.292 146.241H306.656C308.319 146.241 309.551 145.925 310.354 145.295C311.157 144.664 311.558 143.718 311.558 142.457C311.558 141.224 311.157 140.292 310.354 139.662C309.551 139.031 308.319 138.716 306.656 138.716H300.292V146.241ZM327.309 164.086C326.191 164.086 325.331 163.785 324.729 163.183C324.127 162.581 323.826 161.721 323.826 160.603V137.254C323.826 136.136 324.127 135.276 324.729 134.674C325.331 134.072 326.191 133.771 327.309 133.771H342.316C343.176 133.771 343.821 134 344.251 134.459C344.71 134.889 344.939 135.519 344.939 136.351C344.939 137.211 344.71 137.87 344.251 138.329C343.821 138.759 343.176 138.974 342.316 138.974H330.19V146.069H341.327C342.216 146.069 342.875 146.298 343.305 146.757C343.764 147.187 343.993 147.832 343.993 148.692C343.993 149.552 343.764 150.211 343.305 150.67C342.875 151.1 342.216 151.315 341.327 151.315H330.19V158.883H342.316C343.176 158.883 343.821 159.112 344.251 159.571C344.71 160.001 344.939 160.631 344.939 161.463C344.939 162.323 344.71 162.982 344.251 163.441C343.821 163.871 343.176 164.086 342.316 164.086H327.309Z" fill="#DBE2E9"/>
</svg>
