<?xml version="1.0" encoding="UTF-8" standalone="no"?>
<!-- Created with Inkscape (http://www.inkscape.org/) -->

<svg
   width="670.11902mm"
   height="99.579292mm"
   viewBox="0 0 670.11902 99.579292"
   version="1.1"
   id="svg5"
   xml:space="preserve"
   xmlns="http://www.w3.org/2000/svg"
   xmlns:svg="http://www.w3.org/2000/svg"><defs
     id="defs2"><clipPath
       clipPathUnits="userSpaceOnUse"
       id="clipPath198"><path
         d="M 0,282.272 H 1899.547 V 0 H 0 Z"
         id="path196" /></clipPath></defs><g
     id="g192"
     transform="matrix(0.35277776,0,0,-0.35277778,-5.0620426e-6,99.579293)"><g
       id="g194"
       clip-path="url(#clipPath198)"><g
         id="g200"
         transform="translate(714.8561,100.3405)"><path
           d="m 0,0 c -6.38,-12.517 -15.947,-22.203 -28.702,-29.062 -12.76,-6.86 -28.645,-10.289 -47.655,-10.289 h -36.463 v 166.07 h 36.463 c 19.01,0 34.895,-3.428 47.655,-10.289 C -15.947,109.571 -6.38,99.942 0,87.548 6.374,75.15 9.567,60.528 9.567,43.684 9.567,27.078 6.374,12.512 0,0 m -3.249,156.504 c -19.856,10.95 -43.504,16.427 -70.941,16.427 h -87.368 V -85.563 h 87.368 c 27.437,0 51.085,5.416 70.941,16.246 19.856,10.831 35.138,25.995 45.85,45.49 10.707,19.495 16.065,41.997 16.065,67.511 0,25.509 -5.358,47.954 -16.065,67.332 -10.712,19.37 -25.994,34.534 -45.85,45.488"
           style="fill:#1e1e1e;fill-opacity:1;fill-rule:nonzero;stroke:none"
           id="path202" /></g><g
         id="g204"
         transform="translate(845.339,129.2226)"><path
           d="m 0,0 c 0.982,3.361 2.129,6.598 3.634,9.567 4.333,8.541 10.289,15.22 17.871,20.037 7.582,4.813 15.942,7.22 25.092,7.22 6.977,0 13.177,-1.144 18.593,-3.43 5.414,-2.289 10.046,-5.234 13.899,-8.844 3.847,-3.61 6.859,-7.582 9.026,-11.914 C 90.28,8.304 91.482,4.09 91.725,0 Z m 96.057,62.819 c -13.482,8.422 -30.089,12.636 -49.821,12.636 -18.294,0 -34.54,-4.514 -48.739,-13.54 -14.204,-9.024 -25.395,-21.001 -33.575,-35.921 -8.185,-14.926 -12.275,-31.172 -12.275,-48.738 0,-18.774 4.151,-35.505 12.455,-50.183 8.303,-14.684 19.732,-26.236 34.298,-34.659 14.559,-8.421 31.105,-12.636 49.64,-12.636 20.455,0 37.666,4.395 51.627,13.179 13.956,8.782 25.272,20.758 33.937,35.921 l -38.269,18.774 c -4.333,-7.464 -10.352,-13.663 -18.052,-18.593 -7.705,-4.936 -17.211,-7.401 -28.521,-7.401 -9.629,0 -18.355,2.223 -26.174,6.679 -7.824,4.451 -14.023,10.949 -18.593,19.495 -2.901,5.416 -4.774,11.673 -5.835,18.592 h 137.971 c 0.236,1.203 0.479,3.188 0.722,5.957 0.236,2.764 0.361,6.076 0.361,9.928 0,17.087 -3.492,32.674 -10.47,46.754 -6.983,14.079 -17.211,25.327 -30.687,33.756"
           style="fill:#1e1e1e;fill-opacity:1;fill-rule:nonzero;stroke:none"
           id="path206" /></g><g
         id="g208"
         transform="translate(1087.1051,79.04)"><path
           d="m 0,0 h -2.888 l -46.571,119.86 h -53.793 l 77.981,-184.122 h 46.933 l 78.703,184.122 h -53.07 z"
           style="fill:#1e1e1e;fill-opacity:1;fill-rule:nonzero;stroke:none"
           id="path210" /></g><g
         id="g212"
         transform="translate(1210.7534,14.778)"><path
           d="m 0,0 h 48.738 v 103.253 h 103.614 v 46.212 H 48.738 v 62.817 h 115.166 v 46.211 H 0 Z"
           style="fill:#1e1e1e;fill-opacity:1;fill-rule:nonzero;stroke:none"
           id="path214" /></g><g
         id="g216"
         transform="translate(1437.2717,129.2226)"><path
           d="m 0,0 c 0.982,3.361 2.129,6.598 3.634,9.567 4.332,8.541 10.289,15.22 17.871,20.037 7.582,4.813 15.942,7.22 25.091,7.22 6.978,0 13.178,-1.144 18.594,-3.43 5.414,-2.289 10.046,-5.234 13.898,-8.844 3.848,-3.61 6.86,-7.582 9.026,-11.914 C 90.281,8.304 91.482,4.09 91.724,0 Z M 96.057,62.819 C 82.575,71.241 65.968,75.455 46.236,75.455 27.942,75.455 11.695,70.941 -2.503,61.915 -16.707,52.891 -27.898,40.914 -36.078,25.994 -44.263,11.068 -48.353,-5.178 -48.353,-22.744 c 0,-18.774 4.151,-35.505 12.455,-50.183 8.303,-14.684 19.732,-26.236 34.298,-34.659 14.558,-8.421 31.104,-12.636 49.64,-12.636 20.455,0 37.666,4.395 51.627,13.179 13.956,8.782 25.272,20.758 33.937,35.921 l -38.27,18.774 c -4.332,-7.464 -10.351,-13.663 -18.052,-18.593 -7.704,-4.936 -17.21,-7.401 -28.52,-7.401 -9.63,0 -18.355,2.223 -26.174,6.679 -7.824,4.451 -14.023,10.949 -18.593,19.495 -2.901,5.416 -4.774,11.673 -5.835,18.592 h 137.97 c 0.236,1.203 0.48,3.188 0.722,5.957 0.237,2.764 0.362,6.076 0.362,9.928 0,17.087 -3.493,32.674 -10.471,46.754 -6.983,14.079 -17.211,25.327 -30.686,33.756"
           style="fill:#1e1e1e;fill-opacity:1;fill-rule:nonzero;stroke:none"
           id="path218" /></g><g
         id="g220"
         transform="translate(1696.4025,124.529)"><path
           d="m 0,0 -27.078,6.499 c -6.74,1.681 -12.517,4.208 -17.328,7.581 -4.818,3.368 -7.222,7.34 -7.222,11.914 0,4.332 2.404,8.061 7.222,11.192 4.811,3.125 11.31,4.693 19.495,4.693 6.978,0 13.538,-1.445 19.677,-4.332 6.136,-2.888 11.128,-7.943 14.98,-15.163 l 40.437,17.69 C 45.85,49.218 40.074,56.737 32.853,62.638 25.633,68.533 17.086,72.927 7.22,75.816 c -9.871,2.888 -20.94,4.332 -33.214,4.332 -13.24,0 -25.333,-2.29 -36.282,-6.86 -10.955,-4.575 -19.62,-10.954 -25.994,-19.134 -6.381,-8.185 -9.568,-17.814 -9.568,-28.882 0,-9.872 2.465,-18.593 7.401,-26.174 4.93,-7.582 11.372,-13.843 19.315,-18.773 7.942,-4.936 16.364,-8.366 25.272,-10.289 l 21.662,-4.694 c 5.054,-0.964 9.984,-2.228 14.801,-3.791 4.812,-1.568 8.845,-3.734 12.095,-6.498 3.249,-2.77 4.873,-6.56 4.873,-11.373 0,-6.741 -3.13,-11.372 -9.387,-13.899 -6.261,-2.528 -13.239,-3.791 -20.94,-3.791 -9.385,0 -17.571,2.223 -24.549,6.679 -6.982,4.451 -12.517,11.011 -16.607,19.676 l -42.239,-18.413 c 3.368,-8.907 8.54,-17.092 15.524,-24.549 6.977,-7.463 16.066,-13.482 27.257,-18.051 11.192,-4.57 24.73,-6.86 40.614,-6.86 14.442,0 27.557,2.471 39.353,7.401 11.79,4.93 21.176,11.914 28.16,20.94 6.978,9.026 10.469,19.551 10.469,31.59 0,13.475 -4.636,25.028 -13.9,34.657 C 32.068,-11.315 18.288,-4.332 0,0"
           style="fill:#1e1e1e;fill-opacity:1;fill-rule:nonzero;stroke:none"
           id="path222" /></g><g
         id="g224"
         transform="translate(1879.0415,57.9204)"><path
           d="m 0,0 c -3.373,-1.084 -6.984,-1.624 -10.83,-1.624 -8.185,0 -14.081,2.104 -17.691,6.318 -3.611,4.207 -5.416,10.769 -5.416,19.676 v 76.175 h 45.128 v 40.435 h -45.128 v 51.987 H -81.23 V 140.98 h -32.132 v -40.435 h 32.132 v -84.84 c 0,-19.259 5.415,-34.36 16.246,-45.309 10.83,-10.955 25.751,-16.426 44.766,-16.426 5.778,0 11.373,0.541 16.789,1.624 5.414,1.084 10.768,2.583 16.065,4.512 V 6.318 C 7.581,3.188 3.368,1.084 0,0"
           style="fill:#1e1e1e;fill-opacity:1;fill-rule:nonzero;stroke:none"
           id="path226" /></g><g
         id="g228"
         transform="translate(204.2943,249.8027)"><path
           d="m 0,0 v 0 c 16.035,-22.311 10.946,-53.397 -11.365,-69.431 l -106.274,-76.376 c -22.311,-16.035 -53.397,-10.946 -69.431,11.365 v 0 c -16.035,22.312 -10.946,53.397 11.365,69.432 L -69.431,11.365 C -47.12,27.4 -16.035,22.311 0,0"
           style="fill:#ea4335;fill-opacity:1;fill-rule:nonzero;stroke:none"
           id="path230" /></g><g
         id="g232"
         transform="translate(204.2943,249.8027)"><path
           d="m 0,0 v 0 c 16.035,-22.311 10.946,-53.397 -11.365,-69.431 l -106.274,-76.376 c -22.311,-16.035 -53.397,-10.946 -69.431,11.365 v 0 c -16.035,22.312 -10.946,53.397 11.365,69.432 L -69.431,11.365 C -47.12,27.4 -16.035,22.311 0,0 Z"
           style="fill:none;stroke:#1e1e1e;stroke-width:9.557;stroke-linecap:butt;stroke-linejoin:miter;stroke-miterlimit:10;stroke-dasharray:none;stroke-opacity:1"
           id="path234" /></g><g
         id="g236"
         transform="translate(17.224,173.4108)"><path
           d="m 0,0 v 0 c -16.035,-22.311 -10.946,-53.397 11.365,-69.431 l 106.274,-76.376 c 22.311,-16.035 53.397,-10.946 69.431,11.365 v 0 c 16.035,22.312 10.946,53.397 -11.365,69.432 L 69.431,11.365 C 47.12,27.4 16.035,22.311 0,0"
           style="fill:#4285f4;fill-opacity:1;fill-rule:nonzero;stroke:none"
           id="path238" /></g><g
         id="g240"
         transform="translate(17.224,173.4108)"><path
           d="m 0,0 v 0 c -16.035,-22.311 -10.946,-53.397 11.365,-69.431 l 106.274,-76.376 c 22.311,-16.035 53.397,-10.946 69.431,11.365 v 0 c 16.035,22.312 10.946,53.397 -11.365,69.432 L 69.431,11.365 C 47.12,27.4 16.035,22.311 0,0 Z"
           style="fill:none;stroke:#1e1e1e;stroke-width:9.557;stroke-linecap:butt;stroke-linejoin:miter;stroke-miterlimit:10;stroke-dasharray:none;stroke-opacity:1"
           id="path242" /></g><g
         id="g244"
         transform="translate(461.092,173.4108)"><path
           d="m 0,0 v 0 c 16.035,-22.311 10.946,-53.397 -11.365,-69.431 l -106.274,-76.376 c -22.311,-16.035 -53.397,-10.946 -69.431,11.365 v 0 c -16.035,22.312 -10.946,53.397 11.365,69.432 L -69.431,11.365 C -47.12,27.4 -16.035,22.311 0,0"
           style="fill:#f9ab00;fill-opacity:1;fill-rule:nonzero;stroke:none"
           id="path246" /></g><g
         id="g248"
         transform="translate(461.092,173.4108)"><path
           d="m 0,0 v 0 c 16.035,-22.311 10.946,-53.397 -11.365,-69.431 l -106.274,-76.376 c -22.311,-16.035 -53.397,-10.946 -69.431,11.365 v 0 c -16.035,22.312 -10.946,53.397 11.365,69.432 L -69.431,11.365 C -47.12,27.4 -16.035,22.311 0,0 Z"
           style="fill:none;stroke:#1e1e1e;stroke-width:9.557;stroke-linecap:butt;stroke-linejoin:miter;stroke-miterlimit:10;stroke-dasharray:none;stroke-opacity:1"
           id="path250" /></g><g
         id="g252"
         transform="translate(274.0217,249.8027)"><path
           d="m 0,0 v 0 c -16.035,-22.311 -10.946,-53.397 11.365,-69.431 l 106.274,-76.376 c 22.311,-16.035 53.397,-10.946 69.431,11.365 v 0 c 16.035,22.312 10.946,53.397 -11.365,69.432 L 69.431,11.365 C 47.12,27.4 16.034,22.311 0,0"
           style="fill:#34a853;fill-opacity:1;fill-rule:nonzero;stroke:none"
           id="path254" /></g><g
         id="g256"
         transform="translate(274.0217,249.8027)"><path
           d="m 0,0 v 0 c -16.035,-22.311 -10.946,-53.397 11.365,-69.431 l 106.274,-76.376 c 22.311,-16.035 53.397,-10.946 69.431,11.365 v 0 c 16.035,22.312 10.946,53.397 -11.365,69.432 L 69.431,11.365 C 47.12,27.4 16.034,22.311 0,0 Z"
           style="fill:none;stroke:#1e1e1e;stroke-width:9.557;stroke-linecap:butt;stroke-linejoin:miter;stroke-miterlimit:10;stroke-dasharray:none;stroke-opacity:1"
           id="path258" /></g></g></g></svg>
