<?xml version="1.0" encoding="UTF-8" standalone="no"?>
<!-- Created with Inkscape (http://www.inkscape.org/) -->

<svg
   width="30.973701mm"
   height="30.352919mm"
   viewBox="0 0 30.973701 30.352919"
   version="1.1"
   id="svg5"
   xml:space="preserve"
   xmlns:inkscape="http://www.inkscape.org/namespaces/inkscape"
   xmlns:sodipodi="http://sodipodi.sourceforge.net/DTD/sodipodi-0.dtd"
   xmlns="http://www.w3.org/2000/svg"
   xmlns:svg="http://www.w3.org/2000/svg"><sodipodi:namedview
     id="namedview7"
     pagecolor="#ffffff"
     bordercolor="#000000"
     borderopacity="0.25"
     inkscape:showpageshadow="2"
     inkscape:pageopacity="0.0"
     inkscape:pagecheckerboard="0"
     inkscape:deskcolor="#d1d1d1"
     inkscape:document-units="mm"
     showgrid="false" /><defs
     id="defs2" /><g
     inkscape:label="Layer 1"
     inkscape:groupmode="layer"
     id="layer1"
     transform="translate(-48.803621,-12.468121)"><path
       style="fill:#e8551c;stroke-width:1"
       d="M 58.039465,42.770799 C 57.461523,42.725839 57.269202,42.577026 56.832477,41.836952 55.644584,39.823991 48.9896,28.324824 48.903658,28.136754 c -0.135012,-0.295465 -0.133216,-0.681547 0.0045,-0.985078 0.06008,-0.132317 0.48126,-0.879636 0.935954,-1.660665 0.454689,-0.781002 1.478794,-2.540994 2.275801,-3.91105 3.859895,-6.63518 4.998655,-8.571783 5.113134,-8.695467 0.06843,-0.07392 0.227502,-0.189893 0.353483,-0.257696 0.215964,-0.116207 0.306253,-0.123273 1.579204,-0.123273 h 1.350146 l 0.281891,0.172706 c 0.333035,0.20405 0.186857,-0.03337 3.801626,6.174513 1.417577,2.434472 1.556003,2.695124 1.498457,2.821428 -0.03487,0.07654 -0.134583,0.166462 -0.22158,0.199863 -0.19009,0.07297 -1.626676,0.0167 -1.859744,-0.07276 -0.177106,-0.06803 -0.247639,-0.174093 -1.136037,-1.708195 -0.355666,-0.614155 -0.934364,-1.606274 -1.286,-2.204679 -0.351634,-0.598405 -0.801105,-1.371495 -0.99882,-1.717933 -0.767506,-1.344877 -0.84474,-1.45127 -1.104261,-1.521153 -0.253801,-0.06832 -0.678281,-0.02878 -0.858452,0.07998 -0.06086,0.03676 -0.208729,0.234315 -0.328588,0.439034 -0.768978,1.313455 -1.351387,2.311791 -2.605754,4.466651 -0.779194,1.338557 -1.642734,2.820273 -1.918988,3.292707 -0.276254,0.472435 -0.83127,1.425886 -1.233384,2.118788 -0.402112,0.692903 -0.882051,1.519895 -1.066545,1.837763 -0.225824,0.389114 -0.335418,0.640131 -0.335418,0.76826 0,0.133216 0.126672,0.406456 0.422318,0.91093 0.232269,0.396333 1.086934,1.867335 1.899231,3.26889 0.812306,1.401529 1.957243,3.372868 2.544311,4.380735 0.587064,1.007842 1.383565,2.37836 1.769999,3.045571 0.425193,0.734113 0.763087,1.253539 0.855778,1.315536 0.187404,0.125327 0.837333,0.14339 1.051172,0.02921 0.139228,-0.07436 0.245359,-0.239994 1.106823,-1.727517 1.817068,-3.1376 2.382412,-4.114329 2.679791,-4.629799 0.467163,-0.809726 0.467402,-0.809855 1.598843,-0.810137 0.892754,0 0.901395,0 0.992562,0.140152 0.05398,0.0824 0.07663,0.188661 0.05484,0.257337 -0.0204,0.06433 -0.502346,0.922414 -1.070953,1.90685 -0.56861,0.984437 -1.485259,2.575833 -2.037001,3.536427 -1.840749,3.204838 -1.856432,3.228861 -2.247283,3.443086 -0.151781,0.08319 -1.900196,0.117209 -2.725294,0.05303 z m 5.028846,-0.0054 c -0.142383,-0.05701 -0.244224,-0.262784 -0.197198,-0.398415 0.09041,-0.260779 0.844412,-1.501755 0.94876,-1.561542 0.08186,-0.04689 0.529246,-0.08011 1.335946,-0.09915 1.442363,-0.03404 1.389061,-0.01131 1.827412,-0.778279 0.160373,-0.280588 0.746618,-1.295084 1.302767,-2.254393 0.556145,-0.959334 1.011177,-1.79812 1.011177,-1.863969 0,-0.235986 -0.09048,-0.257157 -1.099481,-0.257157 -0.885692,0 -0.971132,-0.009 -1.076571,-0.114538 -0.06299,-0.06297 -0.11453,-0.168132 -0.11453,-0.233673 0,-0.201096 0.855768,-1.594198 1.036828,-1.687822 0.21481,-0.111069 4.682571,-0.124172 4.792699,-0.01414 0.158089,0.158061 0.06894,0.418892 -0.436688,1.277614 -0.444965,0.755696 -1.53003,2.63562 -3.635345,6.29848 -0.752784,1.309678 -0.83739,1.426708 -1.145218,1.583817 -0.230346,0.11757 -0.324605,0.123171 -2.330212,0.138843 -1.166209,0.0093 -2.147705,-0.0067 -2.220346,-0.03579 z m 6.815358,0 c -0.07112,-0.0286 -0.158596,-0.116233 -0.194385,-0.194801 -0.05846,-0.128309 -0.0202,-0.221213 0.37638,-0.913756 0.2428,-0.424005 0.506105,-0.813272 0.585128,-0.865043 0.120259,-0.0788 0.338243,-0.09581 1.337834,-0.104363 1.410546,-0.01208 1.36919,0.0041 1.780049,-0.703359 1.882442,-3.241964 2.342977,-4.0613 2.342977,-4.168387 0,-0.243205 -0.08528,-0.263657 -1.099478,-0.263657 -0.885692,0 -0.971135,-0.009 -1.076574,-0.114511 -0.06299,-0.063 -0.11453,-0.157496 -0.11453,-0.209986 0,-0.05249 0.186826,-0.430273 0.415169,-0.839581 0.283263,-0.507711 0.46975,-0.777509 0.586959,-0.849191 0.159098,-0.09732 0.341475,-0.105108 2.467817,-0.105288 2.151777,0 2.301976,0.0064 2.390792,0.104492 0.05213,0.0576 0.09477,0.150301 0.09477,0.206003 0,0.05572 -0.480683,0.929839 -1.068181,1.942486 -1.672353,2.882602 -2.442027,4.214324 -3.13191,5.418946 -0.74,1.292155 -0.968983,1.561645 -1.406689,1.655525 -0.36081,0.07736 -4.095007,0.08129 -4.286131,0.0046 z m -9.990083,-6.425966 c -0.102901,-0.08062 -0.256393,-0.338679 -2.885518,-4.850909 -1.036122,-1.77826 -1.914108,-3.311489 -1.951091,-3.407245 -0.100845,-0.261113 -0.08656,-0.660505 0.03305,-0.923853 0.0924,-0.20346 1.736884,-3.050349 3.569357,-6.179215 1.225949,-2.093224 1.203866,-2.059901 1.378719,-2.079967 0.211885,-0.02441 0.262869,0.02466 0.569771,0.548613 0.5457,0.931407 0.617077,1.135611 0.507161,1.45091 -0.05764,0.165332 -0.714756,1.306544 -2.931459,5.09111 -0.731326,1.248555 -0.821612,1.431332 -0.82043,1.660664 0.0013,0.233365 0.162572,0.533429 1.70912,3.17817 2.159709,3.693331 2.111304,3.602379 2.077701,3.904293 -0.02556,0.229692 -0.632291,1.402531 -0.825479,1.595713 -0.102215,0.10223 -0.308236,0.107806 -0.4309,0.01181 z m 8.41453,-14.474182 c -0.296875,-0.05368 -0.433258,-0.199528 -0.872088,-0.932717 -0.46234,-0.772447 -0.49581,-0.8959 -0.287373,-1.059844 0.142408,-0.112019 0.215478,-0.119547 1.0558,-0.108679 0.955413,0.01234 1.09272,-0.01978 1.09272,-0.256001 0,-0.06076 -0.254246,-0.540777 -0.564996,-1.066678 C 68.254807,17.633379 67.261828,15.92246 66.73679,15.003206 66.51885,14.62162 66.401222,14.59323 65.037661,14.59323 h -1.170907 l -0.153611,-0.162737 c -0.183717,-0.194647 -0.876113,-1.353921 -0.926184,-1.5507 -0.02703,-0.106213 0.0021,-0.170598 0.12342,-0.275141 l 0.158703,-0.136531 2.126232,0.01747 c 2.075915,0.01721 2.131917,0.02055 2.366289,0.145805 0.132032,0.07055 0.30362,0.212298 0.381306,0.314966 0.07769,0.102641 0.778004,1.281801 1.55626,2.620358 0.778259,1.338582 1.864499,3.200984 2.413871,4.138711 0.819716,1.399192 0.995656,1.737871 0.981012,1.888429 -0.03132,0.321979 -0.08492,0.329328 -2.337058,0.319384 -1.118089,-0.0049 -2.130085,-0.02654 -2.248878,-0.04802 z m 6.783351,0 c -0.277485,-0.06567 -0.426977,-0.234239 -0.83477,-0.941298 -0.467673,-0.810909 -0.479818,-0.852788 -0.299629,-1.032969 0.142381,-0.142389 0.147966,-0.143031 1.096091,-0.129799 0.886777,0.01234 0.958654,0.0056 1.034637,-0.0982 0.110399,-0.15079 0.0846,-0.213789 -0.493633,-1.205573 -0.275448,-0.472434 -0.853179,-1.464527 -1.28385,-2.204678 -0.430672,-0.740151 -0.8463,-1.410136 -0.923622,-1.488883 -0.139744,-0.142312 -0.148171,-0.14334 -1.419288,-0.171781 -1.003585,-0.02261 -1.300283,-0.04658 -1.37899,-0.112046 -0.149551,-0.124377 -0.947439,-1.502115 -0.946612,-1.634535 0.0021,-0.349881 0.142674,-0.372208 2.340141,-0.372208 2.202261,0 2.358932,0.02235 2.708256,0.384798 0.114723,0.119059 0.472018,0.667416 0.793988,1.218598 0.321968,0.551183 0.849102,1.453094 1.171405,2.004251 1.7881,3.057851 3.06438,5.26068 3.09667,5.344849 0.07587,0.197704 -0.02438,0.373852 -0.248133,0.435976 -0.250569,0.0696 -4.120478,0.07266 -4.412661,0.0036 z"
       id="path9207"
       inkscape:export-filename="isotipo.svg"
       inkscape:export-xdpi="96"
       inkscape:export-ydpi="96" /></g></svg>
